<svg xmlns="http://www.w3.org/2000/svg" viewBox="0 0 661.96 165.72"><defs><style>.cls-1{fill:#da9c9a;}.cls-2{fill:#c76a9f;}.cls-3,.cls-4{fill:#c55c7f;}.cls-4{font-size:139.37px;font-family:SlimeYogurtDemo, Slime Yogurt Demo;}.cls-5{letter-spacing:-0.03em;}</style></defs><title>abotme</title><g id="Capa_2" data-name="Capa 2"><g id="Capa_1-2" data-name="Capa 1"><path class="cls-1" d="M629.15,54.36c1.43,3.85,3.79,21.08.05,22.1s-9.87-14.73-11-18.69c-.81-3-.73-11.31,2.51-12.2S627.72,50.51,629.15,54.36Z"/><path class="cls-1" d="M630.16,101.2c-1.43-3.85-3.8-21.07,0-22.09s9.87,14.72,11,18.69c.81,3,.73,11.31-2.51,12.2S631.58,105.05,630.16,101.2Z"/><path class="cls-1" d="M653.08,77.28c-3.86,1.43-21.08,3.79-22.1,0s14.73-9.88,18.69-11c3-.81,11.31-.73,12.2,2.51S656.92,75.85,653.08,77.28Z"/><path class="cls-1" d="M606.23,78.29c3.86-1.43,21.08-3.8,22.1-.05s-14.73,9.87-18.69,11c-3,.8-11.31.73-12.2-2.52S602.38,79.71,606.23,78.29Z"/><path class="cls-1" d="M612.74,61.58c3.73,1.71,17.58,12.22,15.66,15.59s-17.4-3.43-21-5.47c-2.66-1.52-8.52-7.48-6.85-10.4S609,59.86,612.74,61.58Z"/><path class="cls-1" d="M646.57,94C642.84,92.27,629,81.77,630.91,78.4s17.4,3.43,21,5.47c2.66,1.52,8.52,7.47,6.85,10.4S650.3,95.7,646.57,94Z"/><path class="cls-1" d="M645.86,60.87c-1.71,3.73-12.22,17.58-15.59,15.65s3.43-17.39,5.47-21c1.52-2.67,7.48-8.52,10.4-6.85S647.57,57.14,645.86,60.87Z"/><path class="cls-1" d="M613.45,94.7C615.16,91,625.67,77.12,629,79s-3.43,17.4-5.47,21c-1.52,2.66-7.48,8.51-10.4,6.85S611.74,98.43,613.45,94.7Z"/><path class="cls-2" d="M634.09,76.57a4.69,4.69,0,1,1-5.76-3.29A4.69,4.69,0,0,1,634.09,76.57Z"/><path class="cls-1" d="M31.8,54.36c1.43,3.85,3.79,21.08.05,22.1S22,61.73,20.89,57.77c-.81-3-.73-11.31,2.51-12.2S30.37,50.51,31.8,54.36Z"/><path class="cls-1" d="M32.81,101.2c-1.43-3.85-3.8-21.07-.05-22.09s9.87,14.72,11,18.69c.81,3,.73,11.31-2.51,12.2S34.23,105.05,32.81,101.2Z"/><path class="cls-1" d="M55.73,77.28c-3.86,1.43-21.08,3.79-22.1,0s14.73-9.88,18.69-11c3-.81,11.31-.73,12.2,2.51S59.57,75.85,55.73,77.28Z"/><path class="cls-1" d="M8.88,78.29c3.86-1.43,21.08-3.8,22.1-.05s-14.73,9.87-18.69,11C9.33,90,1,89.93.09,86.68S5,79.71,8.88,78.29Z"/><path class="cls-1" d="M15.39,61.58C19.12,63.29,33,73.8,31.05,77.17s-17.4-3.43-21-5.47c-2.66-1.52-8.52-7.48-6.85-10.4S11.66,59.86,15.39,61.58Z"/><path class="cls-1" d="M49.22,94C45.49,92.27,31.64,81.77,33.56,78.4s17.4,3.43,21,5.47c2.66,1.52,8.52,7.47,6.85,10.4S53,95.7,49.22,94Z"/><path class="cls-1" d="M48.51,60.87C46.8,64.6,36.29,78.45,32.92,76.52s3.43-17.39,5.47-21c1.52-2.67,7.48-8.52,10.4-6.85S50.22,57.14,48.51,60.87Z"/><path class="cls-1" d="M16.1,94.7C17.81,91,28.32,77.12,31.69,79s-3.43,17.4-5.47,21c-1.52,2.66-7.48,8.51-10.4,6.85S14.39,98.43,16.1,94.7Z"/><path class="cls-2" d="M36.74,76.57A4.69,4.69,0,1,1,31,73.28,4.69,4.69,0,0,1,36.74,76.57Z"/><path class="cls-3" d="M429.89,137.89a7.22,7.22,0,0,1-1.39.09c-4.95-.09-7.89-1.23-8.82-3.61-.77-2.08,1.39-4.36,5.42-5.4a75.79,75.79,0,0,1,11.44-1.43,518.36,518.36,0,0,1,64.33-1c9.75.48,19.49,1,29.08,2.28,1.85.29,3.86.57,5.57.95,3.71,1,6,3,5.56,5-.46,2.28-2.78,3.6-6.18,4.17a35.23,35.23,0,0,1-9,.38c-13.92-.66-28-1.23-42.07-1.42C466.08,137.79,447.67,137.32,429.89,137.89Z"/><text class="cls-4" transform="translate(119.84 139.52)"><tspan class="cls-5">A</tspan><tspan x="74" y="0">bout me</tspan></text></g></g></svg>