<svg xmlns="http://www.w3.org/2000/svg" viewBox="0 0 251.17 50"><defs><style>.cls-1{fill:#823c68;}</style></defs><title>aboutme</title><g id="Capa_2" data-name="Capa 2"><g id="Capa_1-2" data-name="Capa 1"><path class="cls-1" d="M33.33,49.76a3.64,3.64,0,0,1-1.75-1.86q-1.18-3-1.18-13V30.25l-3,.08c-1.2,0-2.68.1-4.45.22s-3.37.25-4.81.37a12.52,12.52,0,0,0-2.36.3,10.24,10.24,0,0,0-.62,1.43c-.34.88-.74,2-1.18,3.25L12.6,39.78c-.31,1-.61,1.93-.9,2.71s-.49,1.26-.59,1.45a2.29,2.29,0,0,1-1.9.93H9a2.33,2.33,0,0,1-1.95-1.21,1.42,1.42,0,0,1-.11-.47v-.3A3.69,3.69,0,0,1,7,42.33a11.59,11.59,0,0,1,.3-1.58c.14-.67.35-1.54.65-2.6s.59-2.06.9-3,.54-1.73.72-2.35a10,10,0,0,0,.25-1l-.74,0c-.47,0-1,.08-1.73.16q-2.56.24-4.11.24a6.61,6.61,0,0,1-1.95-.2A1.8,1.8,0,0,1,.05,30.78a2.58,2.58,0,0,1,0-.45c0-.83.75-1.39,2.26-1.65.83-.14,1.91-.3,3.27-.49s2.68-.35,4-.48c.59-.06,1.08-.12,1.47-.19a4.28,4.28,0,0,0,.69-.14c0-.05.16-.29.37-.7s.42-.94.66-1.56.64-1.39,1.08-2.32.88-1.8,1.29-2.61Q23.92,3,30.6.4A6.57,6.57,0,0,1,32.71,0a4.64,4.64,0,0,1,3,1.09,4.68,4.68,0,0,1,1.7,2.63A20.65,20.65,0,0,1,37.9,8.8c0,1,0,2,0,2.93s-.13,2.17-.28,3.8-.39,4.07-.69,7.33c-.42,4.17-.68,7.27-.8,9.29s-.18,4.33-.18,6.94c0,2,0,3.57.08,4.63a15.62,15.62,0,0,0,.23,2.34,2.39,2.39,0,0,0,.46,1.11,1.75,1.75,0,0,1,.51,1.17,1,1,0,0,1,0,.33,1.67,1.67,0,0,1-1,1.13,4.55,4.55,0,0,1-1.38.2A3.54,3.54,0,0,1,33.33,49.76ZM22.12,26.82c.68-.06,1.55-.1,2.59-.12s2,0,2.81,0h3l.2-3.15c.07-.92.16-2,.26-3.28s.21-2.41.31-3.43Q32,10,32,7.27c0-.43,0-.79,0-1.09l-.16-1.37-.61.48a31.13,31.13,0,0,0-5.87,7.09,97.55,97.55,0,0,0-6.53,11.73c-.37.78-.68,1.44-.92,2s-.36.82-.36.85.17.12.51.12a5,5,0,0,0,.62,0l1.46-.1C20.75,26.88,21.43,26.84,22.12,26.82Z"/><path class="cls-1" d="M42.94,45.27q-.4-1.89-1-6.92t-1-9.27c-.14-1.62-.24-3.94-.31-7s-.11-5.89-.11-8.56a35.64,35.64,0,0,1,.16-4.65,1.47,1.47,0,0,1,.26-.58,2.26,2.26,0,0,1,.46-.51A3.41,3.41,0,0,1,43.51,7a1.9,1.9,0,0,1,.41,0,2.85,2.85,0,0,1,2.21,1.25,1.74,1.74,0,0,1,.23.69,12.75,12.75,0,0,1,.16,1.37c0,.62.1,1.51.15,2.69s.1,2.71.13,4.62c.07,1.56.13,3,.18,4.34s.09,2.24.13,2.73l.1,1.49,1-1.41a17.16,17.16,0,0,1,4.06-4.44,9.91,9.91,0,0,1,5.4-1.9,7.15,7.15,0,0,1,2.11.32,9.75,9.75,0,0,1,5.45,4.81,14.07,14.07,0,0,1,1.7,5,12.05,12.05,0,0,1,1.9-.9c1-.39,2.06-.77,3.29-1.14a21.76,21.76,0,0,1,3.5-.74H76a3.79,3.79,0,0,1,1.9.44,1.4,1.4,0,0,1,.78,1.17v.08c0,.49-.55.91-1.55,1.26s-1.73.56-2.52.8c-1.09.33-2.18.7-3.24,1.11a19.45,19.45,0,0,0-3.39,1.8V33a18.24,18.24,0,0,1-1.08,6,12.8,12.8,0,0,1-4.27,5.86A10.19,10.19,0,0,1,56.73,47h-.42c-2.12-.08-3.54-.64-4.24-1.68a5.15,5.15,0,0,1-1-2.8,8.34,8.34,0,0,1,1.08-3.72,18.1,18.1,0,0,1,4.68-5.23,39.31,39.31,0,0,1,5.81-3.73,15.14,15.14,0,0,0-1.39-4.33q-1.59-2.89-3.5-2.9c-1.16,0-2.4.75-3.7,2.26a21.51,21.51,0,0,0-2.62,4.24,26.2,26.2,0,0,0-2.08,6.6,34.2,34.2,0,0,0-.6,5.88q0,.93.06,1.86a12.49,12.49,0,0,1,.15,1.37v.44a1.75,1.75,0,0,1,0,.45,2.45,2.45,0,0,1-.31.52,3,3,0,0,1-2.47,1.34c-.21,0-.41,0-.62,0A3,3,0,0,1,42.94,45.27Zm16.61-3.59a10.46,10.46,0,0,0,2.58-4.28c.13-.41.26-.81.38-1.21a6.73,6.73,0,0,0,.23-1,3.23,3.23,0,0,0,0-.49v-.08a14,14,0,0,0-3.62,2.16,10.86,10.86,0,0,0-2.65,3.42,4.62,4.62,0,0,0-.62,1.93,1.07,1.07,0,0,0,.11.49.86.86,0,0,0,.82.44,1.94,1.94,0,0,0,.56-.08A5.35,5.35,0,0,0,59.55,41.68Z"/><path class="cls-1" d="M75,40.87a9.45,9.45,0,0,1-1.42-4.46c0-1.44-.08-2.38-.08-2.81a29.86,29.86,0,0,1,.62-6,18.41,18.41,0,0,1,2-5.73A3.53,3.53,0,0,1,79,20a4.38,4.38,0,0,1,.77.08,1.51,1.51,0,0,0,.51.08h.16a3.08,3.08,0,0,0,.77-.28,5.43,5.43,0,0,1,2.11-.44A5.32,5.32,0,0,1,87.79,22a11.07,11.07,0,0,1,1.49,5.17l.18,1.39c.05.39.08.6.08.63A11,11,0,0,0,93,28.05a9.67,9.67,0,0,0,2.49-1.64,1.38,1.38,0,0,1,.78-.48,3,3,0,0,1,.61-.08,2.39,2.39,0,0,1,.77.12,1.39,1.39,0,0,1,1.08,1.33.86.86,0,0,1,0,.32A4.17,4.17,0,0,1,96.84,30a12.59,12.59,0,0,1-3.32,1.53c-1.28.41-2.54.77-3.77,1.09l-.73.16-.41,1.54A17.56,17.56,0,0,1,85.06,41q-2.25,2.43-3.83,2.53l-1.72.1A5.37,5.37,0,0,1,75,40.87Zm7.09-3.47c.24-.32.52-.76.85-1.31a17,17,0,0,0,.85-1.62,3.51,3.51,0,0,0,.36-1s-.11-.06-.34-.1L83,33.24A10.47,10.47,0,0,1,81.77,33c-.44-.13-.84-.25-1.18-.39l-1.18-.44-.1.68a13.25,13.25,0,0,0-.11,1.7,16.43,16.43,0,0,0,.21,2.55c.2,1.34.38,2,.54,2.08l.28.06C80.57,39.22,81.19,38.61,82.08,37.4Zm2.88-8a1.9,1.9,0,0,0,.05-.52A6,6,0,0,0,85,28a14.25,14.25,0,0,0-.23-1.94,10.57,10.57,0,0,0-.38-1.53,5.23,5.23,0,0,0-.37-.75l-.3-.51L83.32,23l-.57.53a4.76,4.76,0,0,0-1.39,3.11V27c0,1.83.94,2.77,2.83,2.83h.26a.82.82,0,0,0,.31,0A.7.7,0,0,0,85,29.36Z"/><path class="cls-1" d="M94.07,38.29a19.52,19.52,0,0,1-.52-4.85c0-.86,0-1.79.1-2.79a33,33,0,0,1,1.5-8.23,3.77,3.77,0,0,1,1.69-2.51,2.07,2.07,0,0,1,.7-.32,4.19,4.19,0,0,1,1-.08,2.72,2.72,0,0,1,2.52,1.09,1.59,1.59,0,0,1,.28,1,14,14,0,0,1-.33,2.1q-.17.77-.36,1.8c-.14.68-.24,1.29-.31,1.83a27.85,27.85,0,0,0-.31,3.07c-.07,1.24-.1,2.44-.1,3.6a20.51,20.51,0,0,0,.1,2.46l.15,1,.72-.93q2.47-2.94,7.36-12.28,1.23-2.46,2-3.63a4.34,4.34,0,0,1,1.36-1.5,3.53,3.53,0,0,1,1.6-.32,3.34,3.34,0,0,1,1.44.26,3,3,0,0,1,1,.87,3.81,3.81,0,0,1,.44.79,4.33,4.33,0,0,1,.26,1.25c0,.55.09,1.34.13,2.36s.06,2.39.1,4.08c.07,3.07.15,5.27.26,6.59a6.24,6.24,0,0,0,.46,2.42,3.16,3.16,0,0,0,.26.36,3.3,3.3,0,0,0,.36.41,1.64,1.64,0,0,1,.46,1,1.21,1.21,0,0,1-.21.68,2.11,2.11,0,0,1-1.74,1h-.16a3.92,3.92,0,0,1-3.75-2.7,18,18,0,0,1-.88-3.74,32.52,32.52,0,0,1-.36-4.83c0-.35-.06-.61-.07-.78s0-.27-.08-.27c-.21.52-.59,1.3-1.13,2.35l-1.65,3.13c-.55,1-1,1.78-1.23,2.24a32.6,32.6,0,0,1-2.21,3.27c-1.93,2.32-3.86,3.47-5.82,3.47h-.46Q95.46,42.85,94.07,38.29Z"/><path class="cls-1" d="M125.49,46.49a4.72,4.72,0,0,1-2.86-3.24,32.73,32.73,0,0,1-1.15-8.48c-.07-1.32-.11-2.73-.11-4.24,0-1.88.06-3.91.16-6.1q.25-5.85.92-10.82l.21-1.66-.72.09c-.21,0-.62,0-1.23.08l-2.06.16c-1,.05-1.7.08-2.21.08a3,3,0,0,1-1.21-.18,1.71,1.71,0,0,1-.65-.55,1.44,1.44,0,0,1-.35-.89,1.18,1.18,0,0,1,.15-.56,2,2,0,0,1,1.34-1.13,11.61,11.61,0,0,1,2.52-.39q1.8-.13,3.75-.18h1.23l.11-.52V7.49a1,1,0,0,0-.11-.46,1.53,1.53,0,0,1,0-.41,6.37,6.37,0,0,1,.11-1,13.64,13.64,0,0,1,.46-2,5.9,5.9,0,0,1,.67-1.53,2.19,2.19,0,0,1,1-.79A3.85,3.85,0,0,1,126.77,1H127a2.59,2.59,0,0,1,2.31,2,2.48,2.48,0,0,1,.06.65V4.2A17.54,17.54,0,0,1,129.24,6c-.07.66-.15,1.23-.25,1.71l-.11.61h3.86q6.22,0,7.77.48a2.05,2.05,0,0,1,.71.61,1.27,1.27,0,0,1,.31.77,1.35,1.35,0,0,1-.28.77,1.6,1.6,0,0,1-.64.56,49.39,49.39,0,0,1-6.17.2l-4.14,0c-1.12,0-1.71,0-1.78.06a7,7,0,0,0-.33,1.58c-.16,1-.32,2.11-.49,3.43s-.31,2.55-.41,3.68q-.62,6.14-.62,11.91v.89a43.85,43.85,0,0,0,.67,9.09,2.26,2.26,0,0,0,.28.6.61.61,0,0,0,.44.2,2.11,2.11,0,0,1,1.05.49,1.93,1.93,0,0,1,.65.89v.16a1.75,1.75,0,0,1-.21.81,2,2,0,0,1-.82.8,2.25,2.25,0,0,1-1.13.33h-.67A4.77,4.77,0,0,1,125.49,46.49Z"/><path class="cls-1" d="M200.16,49a3.16,3.16,0,0,1-1.39-.87,5.27,5.27,0,0,1-1.08-1.63Q196,41.72,196,31.26c0-1.27,0-2.58.05-4q0-2.46.15-5.37c0-1.24.07-2.3.11-3.19l.1-3.88-.36.33c-.1.1-.31.37-.62.78s-.63.9-1,1.44a53,53,0,0,0-2.88,5.15q-1.48,3-3.8,8.38c-.59,1.34-1.12,2.56-1.62,3.65a20.58,20.58,0,0,1-1.06,2.12,4.57,4.57,0,0,1-1.44,1.76,3.36,3.36,0,0,1-1.9.5,3.29,3.29,0,0,1-2.26-.76,4.48,4.48,0,0,1-1.16-1.82A35.77,35.77,0,0,1,177,31.91a.84.84,0,0,0-.05-.29A7,7,0,0,0,176.5,30a.33.33,0,0,0-.15-.06c-.17,0-.45.32-.82,1a.53.53,0,0,0-.16.2,19,19,0,0,0-1.74,3.73c-.55,1.53-1.17,3.67-1.86,6.45a34.55,34.55,0,0,1-1.18,4,3.6,3.6,0,0,1-1.08,1.6,2.7,2.7,0,0,1-1.44.67l-.72,0a4,4,0,0,1-2.06-.57q-1.69-1-2.67-5.39a53.13,53.13,0,0,1-1-10.89q0-8.48,1.13-10.7a2.44,2.44,0,0,1,1.73-1.35l1.05-.06a3,3,0,0,1,2.36,1.05,1.29,1.29,0,0,1,.31.46,2.39,2.39,0,0,1,.11.83c0,.38,0,1-.06,1.76s-.08,1.86-.15,3.21c-.1,1.8-.15,3.42-.15,4.84,0,.71,0,1.36.05,2l.1,2.67.41-1.09q2.67-6.83,6.53-8.81a5.8,5.8,0,0,1,2.06-.4,6,6,0,0,1,1.29.16,4.4,4.4,0,0,1,1.28.83,4.47,4.47,0,0,1,1,1.27,14.5,14.5,0,0,1,.82,2.06,23.2,23.2,0,0,1,.67,2.26c.07.35.12.53.16.53s.05,0,.05,0a11.39,11.39,0,0,0,.64-1.29c.36-.78.8-1.74,1.31-2.87q5.15-11.39,8.28-14.94a11.79,11.79,0,0,1,2.5-2.47,4.07,4.07,0,0,1,2.29-.68,3.11,3.11,0,0,1,2.36.8,3.61,3.61,0,0,1,1.29,2,20.9,20.9,0,0,1,.54,4.57c.08,2.14.13,5.37.13,9.71q0,7,.12,10.56a48.33,48.33,0,0,0,.44,5.51l.21,1.3.72.32c.89.43,1.33,1,1.33,1.65a2.22,2.22,0,0,1-.38,1,4.13,4.13,0,0,1-.85,1.07,3,3,0,0,1-1,.53,3.73,3.73,0,0,1-1.16.24,3.26,3.26,0,0,1-.46,0Z"/><path class="cls-1" d="M208.49,37.36A11,11,0,0,1,207.11,32a7.44,7.44,0,0,1,0-.93,14.35,14.35,0,0,1,2.05-6.26,10.78,10.78,0,0,1,3.4-3.39,12.42,12.42,0,0,1,4.94-1.9,12.25,12.25,0,0,1,1.44-.08,9.52,9.52,0,0,1,2.67.36A3.92,3.92,0,0,1,224,21.24a3.18,3.18,0,0,1,.52,1.54,4.18,4.18,0,0,1-.62,2,14,14,0,0,1-3.49,3.83,11.46,11.46,0,0,1-6.74,2.71h-.88l.16,1.09c.34,2.69,1.09,4.28,2.26,4.75a7.86,7.86,0,0,0,2.57.7,9.41,9.41,0,0,0,5.2-2.06,29.43,29.43,0,0,0,6.53-7.39,5.87,5.87,0,0,1,2.34-2.34,5,5,0,0,1,1.41-.36,1.38,1.38,0,0,1,1.24.64,1.35,1.35,0,0,1,.2.77,5.87,5.87,0,0,1-.87,2.54,36.26,36.26,0,0,1-3.35,4.91,29.23,29.23,0,0,1-3.85,4.06,13.78,13.78,0,0,1-5.4,3,18.26,18.26,0,0,1-4,.6,11.13,11.13,0,0,1-3.65-.6A9,9,0,0,1,208.49,37.36Zm6.79-10.06.9-.52a8.68,8.68,0,0,0,.95-.65,11.2,11.2,0,0,0,1-.93c.38-.38.7-.73,1-1.07a1.86,1.86,0,0,0,.41-.62c0-.06-.07-.09-.2-.09h-.16a3.31,3.31,0,0,0-.92.15,7.29,7.29,0,0,0-.93.3,6.9,6.9,0,0,0-2.78,2.42l-.1.12c-.24.35-.4.61-.49.77a1,1,0,0,0-.13.36c0,.08,0,.14.16.17h.05A4,4,0,0,0,215.28,27.3Z"/><path class="cls-1" d="M243.35,25.94a2.39,2.39,0,0,1,1.11-2.14,3.83,3.83,0,0,1,1.9-.75l.85,0a5,5,0,0,1,2.52.65,2.76,2.76,0,0,1,1.44,2.06V26a2.9,2.9,0,0,1-1.59,2.46,4.33,4.33,0,0,1-2.06.53,6.71,6.71,0,0,1-.67,0,5,5,0,0,1-2.47-1A2.48,2.48,0,0,1,243.35,25.94Z"/></g></g></svg>