<svg xmlns="http://www.w3.org/2000/svg" viewBox="0 0 64.61 64.61"><defs><style>.cls-1{fill:#da9c9a;}.cls-2{fill:#c76a9f;}</style></defs><title>florcita</title><g id="Capa_2" data-name="Capa 2"><g id="Capa_1-2" data-name="Capa 1"><path class="cls-1" d="M31.8,8.88c1.43,3.86,3.79,21.08.05,22.1S22,16.25,20.89,12.29C20.08,9.33,20.16,1,23.4.09S30.37,5,31.8,8.88Z"/><path class="cls-1" d="M32.81,55.73c-1.43-3.86-3.8-21.08-.05-22.1s9.87,14.73,11,18.69c.81,3,.73,11.31-2.51,12.2S34.23,59.57,32.81,55.73Z"/><path class="cls-1" d="M55.73,31.8c-3.86,1.43-21.08,3.8-22.1.05s14.73-9.87,18.69-11c3-.81,11.31-.73,12.2,2.51S59.57,30.38,55.73,31.8Z"/><path class="cls-1" d="M8.88,32.81C12.74,31.38,30,29,31,32.76s-14.73,9.87-18.69,11c-3,.81-11.31.73-12.2-2.52S5,34.23,8.88,32.81Z"/><path class="cls-1" d="M15.39,16.1C19.12,17.81,33,28.32,31.05,31.69s-17.4-3.43-21-5.47c-2.66-1.52-8.52-7.48-6.85-10.4S11.66,14.39,15.39,16.1Z"/><path class="cls-1" d="M49.22,48.51C45.49,46.8,31.64,36.29,33.56,32.92s17.4,3.43,21,5.47c2.66,1.52,8.52,7.47,6.85,10.4S53,50.22,49.22,48.51Z"/><path class="cls-1" d="M48.51,15.39C46.8,19.12,36.29,33,32.92,31.05s3.43-17.4,5.47-21c1.52-2.66,7.48-8.52,10.4-6.85S50.22,11.66,48.51,15.39Z"/><path class="cls-1" d="M16.1,49.22c1.71-3.73,12.22-17.58,15.59-15.66s-3.43,17.4-5.47,21c-1.52,2.66-7.48,8.51-10.4,6.85S14.39,53,16.1,49.22Z"/><path class="cls-2" d="M36.74,31.09A4.69,4.69,0,1,1,31,27.8,4.69,4.69,0,0,1,36.74,31.09Z"/></g></g></svg>