<svg xmlns="http://www.w3.org/2000/svg" viewBox="0 0 1400.56 630.96"><defs><style>.cls-1{fill:#e9c04f;}.cls-2{fill:#fff;}.cls-3{fill:#eece7d;}</style></defs><title>fondoamar</title><g id="Capa_2" data-name="Capa 2"><g id="Capa_1-2" data-name="Capa 1"><polygon class="cls-1" points="62.55 630.96 67.61 625.92 64.36 622.68 54.23 622.68 62.55 630.96"/><polygon class="cls-2" points="1379.88 1.25 1395.92 17.23 1395.91 17.23 1400.28 21.57 1400.28 6.72 1394.79 1.25 1379.88 1.25"/><polygon class="cls-2" points="0.28 583.8 39.31 622.68 54.23 622.68 0.28 568.95 0.28 583.8"/><polygon class="cls-2" points="1378.28 34.69 1344.7 1.25 1329.79 1.25 1370.87 42.17 1370.87 42.17 1400.28 71.45 1400.28 56.6 1378.28 34.69 1378.28 34.69"/><polygon class="cls-2" points="1390.8 22.22 1369.75 1.25 1354.83 1.25 1383.39 29.7 1383.39 29.7 1400.28 46.51 1400.28 31.66 1390.8 22.22 1390.8 22.22"/><polygon class="cls-2" points="0.28 622.68 4.14 622.68 0.28 618.83 0.28 622.68"/><polygon class="cls-2" points="0.28 608.75 14.27 622.68 29.18 622.68 0.28 593.89 0.28 608.75"/><polygon class="cls-2" points="582.2 427.6 1010.32 1.25 995.4 1.25 574.8 420.12 574.8 420.12 371.4 622.68 386.32 622.68 582.2 427.6 582.2 427.6"/><polygon class="cls-2" points="1353.23 59.63 1294.62 1.25 1279.7 1.25 1345.83 67.11 1345.83 67.11 1400.28 121.33 1400.28 106.48 1353.23 59.63 1353.23 59.63"/><polygon class="cls-2" points="607.25 452.54 1060.4 1.25 1045.49 1.25 599.84 445.06 599.84 445.06 421.49 622.68 436.4 622.68 607.25 452.54 607.25 452.54"/><polygon class="cls-2" points="594.72 440.07 1035.36 1.25 1020.44 1.25 587.32 432.59 587.32 432.59 396.44 622.68 411.36 622.68 594.73 440.07 594.72 440.07"/><polygon class="cls-2" points="569.68 415.13 985.27 1.25 970.36 1.25 562.28 407.65 562.28 407.65 346.36 622.68 361.27 622.68 569.68 415.13 569.68 415.13"/><polygon class="cls-2" points="532.12 377.72 910.14 1.25 895.23 1.25 524.71 370.24 524.71 370.24 271.23 622.68 286.14 622.68 532.12 377.72 532.12 377.72"/><polygon class="cls-2" points="544.64 390.19 935.18 1.25 920.27 1.25 537.23 382.71 537.23 382.71 296.27 622.68 311.19 622.68 544.64 390.19 544.64 390.19"/><polygon class="cls-2" points="1365.76 47.16 1319.66 1.25 1304.75 1.25 1358.35 54.64 1358.35 54.64 1400.28 96.39 1400.28 81.54 1365.75 47.16 1365.76 47.16"/><polygon class="cls-2" points="557.16 402.66 960.23 1.25 945.31 1.25 549.75 395.18 549.76 395.18 321.31 622.68 336.23 622.68 557.16 402.66 557.16 402.66"/><polygon class="cls-2" points="1315.67 97.04 1219.49 1.25 1204.57 1.25 1308.26 104.52 1308.26 104.52 1400.28 196.16 1400.28 181.3 1315.67 97.04 1315.67 97.04"/><polygon class="cls-2" points="657.33 502.42 1160.57 1.25 1145.66 1.25 649.93 494.94 649.93 494.94 521.66 622.68 536.58 622.68 657.33 502.42 657.33 502.42"/><polygon class="cls-2" points="1303.15 109.51 1194.44 1.25 1170.7 1.25 662.45 507.41 662.45 507.41 546.7 622.68 561.62 622.68 669.86 514.89 669.86 514.89 1183.01 3.85 1188.07 8.89 674.97 519.88 674.97 519.88 571.75 622.68 586.66 622.68 682.38 527.36 682.38 527.36 1195.53 16.32 1200.59 21.36 687.49 532.35 687.49 532.35 596.79 622.68 611.71 622.68 694.9 539.83 694.9 539.83 1208.05 28.79 1213.12 33.83 700.01 544.82 700.01 544.82 621.83 622.68 636.75 622.68 707.42 552.3 707.42 552.3 1220.57 41.26 1225.64 46.3 712.54 557.29 712.54 557.29 646.88 622.68 661.79 622.68 719.94 564.77 719.94 564.77 1233.09 53.73 1238.16 58.77 725.06 569.76 725.06 569.76 671.92 622.68 686.84 622.68 732.46 577.24 732.46 577.24 1245.62 66.2 1250.68 71.24 737.58 582.23 737.58 582.23 696.96 622.68 711.88 622.68 744.99 589.71 744.98 589.71 1258.14 78.67 1263.2 83.71 750.1 594.7 750.1 594.7 722.01 622.68 736.92 622.68 757.51 602.18 757.5 602.18 1270.66 91.14 1275.72 96.18 762.62 607.17 762.62 607.17 747.05 622.68 761.97 622.68 770.03 614.65 770.03 614.65 1283.18 103.61 1288.24 108.65 775.14 619.64 775.15 619.64 772.09 622.68 791.67 622.68 789.76 620.78 794.82 615.73 801.79 622.68 816.71 622.68 802.28 608.31 807.34 603.26 826.84 622.68 841.75 622.68 814.8 595.84 819.87 590.79 851.88 622.68 866.8 622.68 827.32 583.37 832.39 578.33 876.92 622.68 891.84 622.68 839.85 570.9 844.91 565.86 901.97 622.68 916.88 622.68 852.37 558.43 857.43 553.38 927.01 622.68 941.93 622.68 864.89 545.96 869.95 540.91 952.05 622.68 966.97 622.68 877.41 533.49 882.47 528.45 977.1 622.68 992.01 622.68 889.93 521.02 895 515.98 1002.14 622.68 1017.06 622.68 902.45 508.55 907.52 503.5 1027.18 622.68 1042.1 622.68 914.98 496.08 920.04 491.04 1052.23 622.68 1067.14 622.68 927.5 483.61 932.56 478.56 1077.27 622.68 1092.19 622.68 940.02 471.14 945.08 466.1 1102.31 622.68 1117.23 622.68 952.54 458.67 957.6 453.63 1127.36 622.68 1142.27 622.68 965.06 446.2 970.13 441.15 1152.4 622.68 1167.32 622.68 977.58 433.73 982.65 428.69 1177.44 622.68 1192.36 622.68 990.11 421.26 995.17 416.21 1202.49 622.68 1217.4 622.68 1002.63 408.79 1007.69 403.75 1227.53 622.68 1242.44 622.68 1015.15 396.32 1020.21 391.27 1252.57 622.68 1267.49 622.68 1027.67 383.85 1032.73 378.8 1277.62 622.68 1292.53 622.68 1040.19 371.38 1045.26 366.33 1302.66 622.68 1317.58 622.68 1052.71 358.91 1057.78 353.86 1327.7 622.68 1342.62 622.68 1065.23 346.44 1070.3 341.39 1352.75 622.68 1367.66 622.68 1077.76 333.97 1082.82 328.92 1377.79 622.68 1392.71 622.68 1090.28 321.5 1095.34 316.45 1400.28 620.13 1400.28 605.28 1102.8 309.03 1107.86 303.98 1400.28 595.19 1400.28 580.34 1115.32 296.56 1120.38 291.51 1400.28 570.25 1400.28 555.4 1127.84 284.09 1132.91 279.04 1400.28 545.31 1400.28 530.46 1140.36 271.62 1145.43 266.57 1400.28 520.37 1400.28 505.52 1152.89 259.15 1157.95 254.1 1400.28 495.43 1400.28 480.58 1165.41 246.68 1170.47 241.63 1400.28 470.49 1400.28 455.64 1177.93 234.21 1182.99 229.16 1400.28 445.55 1400.28 430.7 1190.45 221.74 1195.52 216.69 1400.28 420.61 1400.28 405.76 1202.97 209.27 1208.04 204.22 1400.28 395.67 1400.28 380.82 1215.49 196.8 1220.56 191.75 1400.28 370.73 1400.28 355.88 1228.02 184.33 1233.08 179.28 1400.28 345.79 1400.28 330.94 1240.54 171.86 1245.6 166.81 1400.28 320.85 1400.28 306 1253.06 159.39 1258.12 154.34 1400.28 295.92 1400.28 281.06 1265.58 146.92 1270.64 141.88 1400.28 270.98 1400.28 256.12 1278.1 134.45 1283.17 129.41 1400.28 246.03 1400.28 231.18 1290.62 121.98 1295.69 116.94 1400.28 221.09 1400.28 206.24 1303.15 109.51 1303.15 109.51"/><polygon class="cls-2" points="632.29 477.48 1110.49 1.25 1095.57 1.25 624.88 470 624.88 470 471.57 622.68 486.49 622.68 632.29 477.48 632.29 477.48"/><polygon class="cls-2" points="644.81 489.95 1135.53 1.25 1120.61 1.25 637.4 482.47 637.41 482.47 496.62 622.68 511.53 622.68 644.81 489.95 644.81 489.95"/><polygon class="cls-2" points="1328.19 84.57 1244.53 1.25 1229.62 1.25 1320.79 92.05 1320.78 92.05 1400.28 171.22 1400.28 156.36 1328.19 84.57 1328.19 84.57"/><polygon class="cls-2" points="619.77 465.01 1085.44 1.25 1070.53 1.25 612.36 457.53 612.36 457.53 446.53 622.68 461.45 622.68 619.77 465.01 619.77 465.01"/><polygon class="cls-2" points="1340.71 72.1 1269.58 1.25 1254.66 1.25 1333.31 79.58 1333.31 79.58 1400.28 146.27 1400.28 131.42 1340.71 72.1 1340.71 72.1"/><polygon class="cls-2" points="519.59 365.25 885.1 1.25 870.18 1.25 512.19 357.77 512.19 357.77 246.18 622.68 261.1 622.68 519.6 365.25 519.59 365.25"/><polygon class="cls-2" points="444.46 290.43 734.84 1.25 719.92 1.25 437.06 282.95 437.06 282.95 95.92 622.68 110.84 622.68 444.46 290.43 444.46 290.43"/><polygon class="cls-2" points="456.99 302.9 759.88 1.25 744.97 1.25 449.58 295.42 449.58 295.42 120.97 622.68 135.88 622.68 456.99 302.9 456.99 302.9"/><polygon class="cls-2" points="431.94 277.96 709.79 1.25 694.88 1.25 424.49 270.53 419.42 265.49 684.75 1.25 669.84 1.25 411.96 258.06 406.9 253.02 659.71 1.25 644.79 1.25 399.44 245.59 394.38 240.55 634.66 1.25 619.75 1.25 386.92 233.12 381.86 228.08 609.62 1.25 594.71 1.25 374.4 220.65 369.33 215.61 584.58 1.25 569.66 1.25 361.88 208.18 356.81 203.14 559.53 1.25 544.62 1.25 349.36 195.71 344.29 190.67 534.49 1.25 519.58 1.25 336.83 183.24 331.77 178.2 509.45 1.25 494.53 1.25 324.31 170.77 319.25 165.73 484.4 1.25 469.49 1.25 311.79 158.3 306.73 153.26 459.36 1.25 444.45 1.25 299.27 145.83 294.2 140.79 434.32 1.25 419.4 1.25 286.75 133.36 281.68 128.32 409.28 1.25 394.36 1.25 274.23 120.89 269.16 115.85 384.23 1.25 369.32 1.25 261.7 108.42 256.64 103.38 359.19 1.25 344.27 1.25 249.18 95.95 244.12 90.91 334.14 1.25 319.23 1.25 236.66 83.48 231.6 78.44 309.1 1.25 294.19 1.25 224.14 71.01 219.07 65.97 284.06 1.25 269.14 1.25 211.62 58.54 206.55 53.5 259.01 1.25 244.1 1.25 199.09 46.07 194.03 41.03 233.97 1.25 219.06 1.25 186.57 33.6 181.51 28.56 208.93 1.25 194.01 1.25 174.05 21.13 168.99 16.09 183.88 1.25 168.97 1.25 161.53 8.66 156.47 3.62 158.84 1.25 141.57 1.25 418.21 276.76 413.15 281.8 131.44 1.25 116.53 1.25 405.69 289.23 400.63 294.27 106.4 1.25 91.48 1.25 393.17 301.7 388.11 306.74 81.36 1.25 66.44 1.25 380.65 314.17 375.59 319.21 56.31 1.25 41.4 1.25 368.13 326.64 363.06 331.68 31.27 1.25 16.35 1.25 355.61 339.11 350.54 344.15 6.22 1.25 0.28 1.25 0.28 10.19 343.08 351.58 338.02 356.62 0.28 20.27 0.28 35.13 330.56 364.05 325.5 369.09 0.28 45.21 0.28 60.07 318.04 376.52 312.98 381.56 0.28 70.15 0.28 85.01 305.52 388.99 300.46 394.03 0.28 95.09 0.28 109.95 293 401.46 287.93 406.5 0.28 120.03 0.28 134.89 280.48 413.93 275.41 418.97 0.28 144.97 0.28 159.83 267.95 426.4 262.89 431.44 0.28 169.91 0.28 184.76 255.43 438.87 250.37 443.91 0.28 194.85 0.28 209.71 242.91 451.34 237.85 456.38 0.28 219.79 0.28 234.65 230.39 463.81 225.32 468.85 0.28 244.73 0.28 259.58 217.87 476.28 212.8 481.32 0.28 269.67 0.28 284.52 205.35 488.75 200.28 493.79 0.28 294.61 0.28 309.46 192.82 501.22 187.76 506.26 0.28 319.55 0.28 334.4 180.3 513.69 175.24 518.73 0.28 344.49 0.28 359.35 167.78 526.16 162.72 531.2 0.28 369.43 0.28 384.29 155.26 538.63 150.2 543.67 0.28 394.37 0.28 409.23 142.74 551.1 137.67 556.14 0.28 419.31 0.28 434.17 130.22 563.57 125.15 568.61 0.28 444.25 0.28 459.11 117.69 576.04 112.63 581.08 0.28 469.19 0.28 484.05 105.17 588.51 100.11 593.55 0.28 494.13 0.28 508.99 92.65 600.98 87.59 606.02 0.28 519.07 0.28 533.92 80.13 613.45 75.07 618.49 0.28 544.01 0.28 558.86 64.36 622.68 85.8 622.68 431.94 277.96 431.94 277.96"/><polygon class="cls-2" points="469.51 315.37 784.92 1.25 770.01 1.25 462.1 307.89 462.1 307.89 146.01 622.68 160.93 622.68 469.51 315.37 469.51 315.37"/><polygon class="cls-2" points="507.07 352.78 860.05 1.25 845.14 1.25 499.67 345.3 499.67 345.3 221.14 622.68 236.06 622.68 507.07 352.78 507.07 352.78"/><polygon class="cls-2" points="494.55 340.31 835.01 1.25 820.1 1.25 487.15 332.83 487.15 332.83 196.1 622.68 211.01 622.68 494.55 340.31 494.55 340.31"/><polygon class="cls-2" points="482.03 327.84 809.97 1.25 795.05 1.25 474.63 320.36 474.63 320.36 171.05 622.68 185.97 622.68 482.03 327.84 482.03 327.84"/><polygon class="cls-1" points="418.21 276.76 141.57 1.25 131.44 1.25 413.15 281.8 418.21 276.76"/><polygon class="cls-1" points="405.69 289.23 116.53 1.25 106.4 1.25 400.63 294.27 405.69 289.23"/><polygon class="cls-1" points="393.17 301.7 91.48 1.25 81.36 1.25 388.11 306.74 393.17 301.7"/><polygon class="cls-1" points="380.65 314.17 66.44 1.25 56.31 1.25 375.59 319.21 380.65 314.17"/><polygon class="cls-1" points="368.13 326.64 41.4 1.25 31.27 1.25 363.06 331.68 368.13 326.64"/><polygon class="cls-1" points="355.61 339.11 16.35 1.25 6.22 1.25 350.54 344.15 355.61 339.11"/><polygon class="cls-1" points="343.08 351.58 0.28 10.19 0.28 20.27 338.02 356.62 343.08 351.58"/><polygon class="cls-1" points="330.56 364.05 0.28 35.13 0.28 45.21 325.5 369.09 330.56 364.05"/><polygon class="cls-1" points="318.04 376.52 0.28 60.07 0.28 70.15 312.98 381.56 318.04 376.52"/><polygon class="cls-1" points="305.52 388.99 0.28 85.01 0.28 95.09 300.46 394.03 305.52 388.99"/><polygon class="cls-1" points="293 401.46 0.28 109.95 0.28 120.03 287.93 406.5 293 401.46"/><polygon class="cls-1" points="280.48 413.93 0.28 134.89 0.28 144.97 275.41 418.97 280.48 413.93"/><polygon class="cls-1" points="267.95 426.4 0.28 159.83 0.28 169.91 262.89 431.44 267.95 426.4"/><polygon class="cls-1" points="255.43 438.87 0.28 184.76 0.28 194.85 250.37 443.91 255.43 438.87"/><polygon class="cls-1" points="242.91 451.34 0.28 209.71 0.28 219.79 237.85 456.38 242.91 451.34"/><polygon class="cls-1" points="230.39 463.81 0.28 234.65 0.28 244.73 225.32 468.85 230.39 463.81"/><polygon class="cls-1" points="217.87 476.28 0.28 259.58 0.28 269.67 212.8 481.32 217.87 476.28"/><polygon class="cls-1" points="205.35 488.75 0.28 284.52 0.28 294.61 200.28 493.79 205.35 488.75"/><polygon class="cls-1" points="192.82 501.22 0.28 309.46 0.28 319.55 187.76 506.26 192.82 501.22"/><polygon class="cls-1" points="180.3 513.69 0.28 334.4 0.28 344.49 175.24 518.73 180.3 513.69"/><polygon class="cls-1" points="167.78 526.16 0.28 359.35 0.28 369.43 162.72 531.2 167.78 526.16"/><polygon class="cls-1" points="155.26 538.63 0.28 384.29 0.28 394.37 150.2 543.67 155.26 538.63"/><polygon class="cls-1" points="142.74 551.1 0.28 409.23 0.28 419.31 137.67 556.14 142.74 551.1"/><polygon class="cls-1" points="130.22 563.57 0.28 434.17 0.28 444.25 125.15 568.61 130.22 563.57"/><polygon class="cls-1" points="117.69 576.04 0.28 459.11 0.28 469.19 112.63 581.08 117.69 576.04"/><polygon class="cls-1" points="105.17 588.51 0.28 484.05 0.28 494.13 100.11 593.55 105.17 588.51"/><polygon class="cls-1" points="92.65 600.98 0.28 508.99 0.28 519.07 87.59 606.02 92.65 600.98"/><polygon class="cls-1" points="80.13 613.45 0.28 533.92 0.28 544.01 75.07 618.49 80.13 613.45"/><polygon class="cls-1" points="0.28 568.95 54.23 622.68 64.36 622.68 0.28 558.86 0.28 568.95"/><polygon class="cls-1" points="0.28 593.89 29.18 622.68 39.31 622.68 0.28 583.8 0.28 593.89"/><polygon class="cls-1" points="0.28 618.83 4.14 622.68 14.27 622.68 0.28 608.75 0.28 618.83"/><polygon class="cls-1" points="1390.85 22.27 1390.8 22.22 1390.8 22.22 1400.28 31.66 1400.28 21.57 1395.91 17.23 1390.85 22.27"/><polygon class="cls-1" points="1378.33 34.74 1378.28 34.69 1378.28 34.69 1400.28 56.6 1400.28 46.51 1383.39 29.7 1378.33 34.74"/><polygon class="cls-1" points="1365.81 47.21 1365.76 47.16 1365.75 47.16 1400.28 81.54 1400.28 71.45 1370.87 42.17 1365.81 47.21"/><polygon class="cls-1" points="1353.29 59.68 1353.23 59.63 1353.23 59.63 1400.28 106.48 1400.28 96.39 1358.35 54.64 1353.29 59.68"/><polygon class="cls-1" points="1340.77 72.15 1340.71 72.1 1340.71 72.1 1400.28 131.42 1400.28 121.33 1345.83 67.11 1340.77 72.15"/><polygon class="cls-1" points="1328.24 84.62 1328.19 84.57 1328.19 84.57 1400.28 156.36 1400.28 146.27 1333.31 79.58 1328.24 84.62"/><polygon class="cls-1" points="1315.72 97.09 1315.67 97.04 1315.67 97.04 1400.28 181.3 1400.28 171.22 1320.78 92.05 1315.72 97.09"/><polygon class="cls-1" points="1303.2 109.56 1303.15 109.51 1303.15 109.51 1400.28 206.24 1400.28 196.16 1308.26 104.52 1303.2 109.56"/><polygon class="cls-1" points="1290.62 121.98 1400.28 231.18 1400.28 221.09 1295.69 116.94 1290.62 121.98"/><polygon class="cls-1" points="1278.1 134.45 1400.28 256.12 1400.28 246.03 1283.17 129.41 1278.1 134.45"/><polygon class="cls-1" points="1265.58 146.92 1400.28 281.06 1400.28 270.98 1270.64 141.88 1265.58 146.92"/><polygon class="cls-1" points="1253.06 159.39 1400.28 306 1400.28 295.92 1258.12 154.34 1253.06 159.39"/><polygon class="cls-1" points="1240.54 171.86 1400.28 330.94 1400.28 320.85 1245.6 166.81 1240.54 171.86"/><polygon class="cls-1" points="1228.02 184.33 1400.28 355.88 1400.28 345.79 1233.08 179.28 1228.02 184.33"/><polygon class="cls-1" points="1215.49 196.8 1400.28 380.82 1400.28 370.73 1220.56 191.75 1215.49 196.8"/><polygon class="cls-1" points="1202.97 209.27 1400.28 405.76 1400.28 395.67 1208.04 204.22 1202.97 209.27"/><polygon class="cls-1" points="1190.45 221.74 1400.28 430.7 1400.28 420.61 1195.52 216.69 1190.45 221.74"/><polygon class="cls-1" points="1177.93 234.21 1400.28 455.64 1400.28 445.55 1182.99 229.16 1177.93 234.21"/><polygon class="cls-1" points="1165.41 246.68 1400.28 480.58 1400.28 470.49 1170.47 241.63 1165.41 246.68"/><polygon class="cls-1" points="1152.89 259.15 1400.28 505.52 1400.28 495.43 1157.95 254.1 1152.89 259.15"/><polygon class="cls-1" points="1140.36 271.62 1400.28 530.46 1400.28 520.37 1145.43 266.57 1140.36 271.62"/><polygon class="cls-1" points="1127.84 284.09 1400.28 555.4 1400.28 545.31 1132.91 279.04 1127.84 284.09"/><polygon class="cls-1" points="1115.32 296.56 1400.28 580.34 1400.28 570.25 1120.38 291.51 1115.32 296.56"/><polygon class="cls-1" points="1102.8 309.03 1400.28 605.28 1400.28 595.19 1107.86 303.98 1102.8 309.03"/><polygon class="cls-1" points="1090.28 321.5 1392.71 622.68 1400.28 622.68 1400.28 620.13 1095.34 316.45 1090.28 321.5"/><polygon class="cls-1" points="1077.76 333.97 1367.66 622.68 1377.79 622.68 1082.82 328.92 1077.76 333.97"/><polygon class="cls-1" points="1065.23 346.44 1342.62 622.68 1352.75 622.68 1070.3 341.39 1065.23 346.44"/><polygon class="cls-1" points="1052.71 358.91 1317.58 622.68 1327.7 622.68 1057.78 353.86 1052.71 358.91"/><polygon class="cls-1" points="1040.19 371.38 1292.53 622.68 1302.66 622.68 1045.26 366.33 1040.19 371.38"/><polygon class="cls-1" points="1027.67 383.85 1267.49 622.68 1277.62 622.68 1032.73 378.8 1027.67 383.85"/><polygon class="cls-1" points="1015.15 396.32 1242.44 622.68 1252.57 622.68 1020.21 391.27 1015.15 396.32"/><polygon class="cls-1" points="1002.63 408.79 1217.4 622.68 1227.53 622.68 1007.69 403.75 1002.63 408.79"/><polygon class="cls-1" points="990.11 421.26 1192.36 622.68 1202.49 622.68 995.17 416.21 990.11 421.26"/><polygon class="cls-1" points="977.58 433.73 1167.32 622.68 1177.44 622.68 982.65 428.69 977.58 433.73"/><polygon class="cls-1" points="965.06 446.2 1142.27 622.68 1152.4 622.68 970.13 441.15 965.06 446.2"/><polygon class="cls-1" points="952.54 458.67 1117.23 622.68 1127.36 622.68 957.6 453.63 952.54 458.67"/><polygon class="cls-1" points="940.02 471.14 1092.19 622.68 1102.31 622.68 945.08 466.1 940.02 471.14"/><polygon class="cls-1" points="927.5 483.61 1067.14 622.68 1077.27 622.68 932.56 478.56 927.5 483.61"/><polygon class="cls-1" points="914.98 496.08 1042.1 622.68 1052.23 622.68 920.04 491.04 914.98 496.08"/><polygon class="cls-1" points="902.45 508.55 1017.06 622.68 1027.18 622.68 907.52 503.5 902.45 508.55"/><polygon class="cls-1" points="889.93 521.02 992.01 622.68 1002.14 622.68 895 515.98 889.93 521.02"/><polygon class="cls-1" points="877.41 533.49 966.97 622.68 977.1 622.68 882.47 528.45 877.41 533.49"/><polygon class="cls-1" points="864.89 545.96 941.93 622.68 952.05 622.68 869.95 540.91 864.89 545.96"/><polygon class="cls-1" points="852.37 558.43 916.88 622.68 927.01 622.68 857.43 553.38 852.37 558.43"/><polygon class="cls-1" points="839.85 570.9 891.84 622.68 901.97 622.68 844.91 565.86 839.85 570.9"/><polygon class="cls-1" points="827.32 583.37 866.8 622.68 876.92 622.68 832.39 578.33 827.32 583.37"/><polygon class="cls-1" points="814.8 595.84 841.75 622.68 851.88 622.68 819.87 590.79 814.8 595.84"/><polygon class="cls-1" points="802.28 608.31 816.71 622.68 826.84 622.68 807.34 603.26 802.28 608.31"/><polygon class="cls-1" points="789.76 620.78 791.67 622.68 801.79 622.68 794.82 615.73 789.76 620.78"/><polygon class="cls-1" points="1394.79 1.25 1400.28 6.72 1400.28 1.25 1394.79 1.25"/><polygon class="cls-1" points="1395.86 17.18 1395.91 17.23 1395.92 17.23 1379.88 1.25 1369.75 1.25 1390.8 22.22 1395.86 17.18"/><rect class="cls-1" x="1389.78" y="19.68" width="7.14" height="0.07" transform="translate(397.3 994.25) rotate(-45.18)"/><polygon class="cls-1" points="1383.34 29.64 1383.39 29.7 1383.39 29.7 1354.83 1.25 1344.7 1.25 1378.28 34.69 1383.34 29.64"/><polygon class="cls-1" points="1378.28 34.69 1378.33 34.74 1383.39 29.7 1383.34 29.64 1378.28 34.69"/><polygon class="cls-1" points="1370.82 42.12 1370.87 42.17 1370.87 42.17 1329.79 1.25 1319.66 1.25 1365.76 47.16 1370.82 42.12"/><polygon class="cls-1" points="1365.76 47.16 1365.81 47.21 1370.87 42.17 1370.82 42.12 1365.76 47.16"/><polygon class="cls-1" points="1358.3 54.59 1358.35 54.64 1358.35 54.64 1304.75 1.25 1294.62 1.25 1353.23 59.63 1358.3 54.59"/><polygon class="cls-1" points="1353.23 59.63 1353.29 59.68 1358.35 54.64 1358.3 54.59 1353.23 59.63"/><polygon class="cls-1" points="1345.78 67.06 1345.83 67.11 1345.83 67.11 1279.7 1.25 1269.58 1.25 1340.71 72.1 1345.78 67.06"/><polygon class="cls-1" points="1340.71 72.1 1340.77 72.15 1345.83 67.11 1345.78 67.06 1340.71 72.1"/><polygon class="cls-1" points="1333.25 79.53 1333.31 79.58 1333.31 79.58 1254.66 1.25 1244.53 1.25 1328.19 84.57 1333.25 79.53"/><rect class="cls-1" x="1327.18" y="82.03" width="7.14" height="0.07" transform="translate(334.59 968.24) rotate(-45.18)"/><polygon class="cls-1" points="1320.73 92 1320.78 92.05 1320.79 92.05 1229.62 1.25 1219.49 1.25 1315.67 97.04 1320.73 92"/><polygon class="cls-1" points="1315.67 97.04 1315.72 97.09 1320.78 92.05 1320.73 92 1315.67 97.04"/><polygon class="cls-1" points="1308.21 104.47 1308.26 104.52 1308.26 104.52 1204.57 1.25 1194.44 1.25 1303.15 109.51 1308.21 104.47"/><polygon class="cls-1" points="1303.15 109.51 1303.2 109.56 1308.26 104.52 1308.21 104.47 1303.15 109.51"/><polygon class="cls-1" points="161.53 8.66 168.97 1.25 158.84 1.25 156.47 3.62 161.53 8.66"/><polygon class="cls-1" points="174.05 21.13 194.01 1.25 183.88 1.25 168.99 16.09 174.05 21.13"/><polygon class="cls-1" points="186.57 33.6 219.06 1.25 208.93 1.25 181.51 28.56 186.57 33.6"/><polygon class="cls-1" points="199.09 46.07 244.1 1.25 233.97 1.25 194.03 41.03 199.09 46.07"/><polygon class="cls-1" points="211.62 58.54 269.14 1.25 259.01 1.25 206.55 53.5 211.62 58.54"/><polygon class="cls-1" points="224.14 71.01 294.19 1.25 284.06 1.25 219.07 65.97 224.14 71.01"/><polygon class="cls-1" points="236.66 83.48 319.23 1.25 309.1 1.25 231.6 78.44 236.66 83.48"/><polygon class="cls-1" points="249.18 95.95 344.27 1.25 334.14 1.25 244.12 90.91 249.18 95.95"/><polygon class="cls-1" points="261.7 108.42 369.32 1.25 359.19 1.25 256.64 103.38 261.7 108.42"/><polygon class="cls-1" points="274.23 120.89 394.36 1.25 384.23 1.25 269.16 115.85 274.23 120.89"/><polygon class="cls-1" points="286.75 133.36 419.4 1.25 409.28 1.25 281.68 128.32 286.75 133.36"/><polygon class="cls-1" points="299.27 145.83 444.45 1.25 434.32 1.25 294.2 140.79 299.27 145.83"/><polygon class="cls-1" points="311.79 158.3 469.49 1.25 459.36 1.25 306.73 153.26 311.79 158.3"/><polygon class="cls-1" points="324.31 170.77 494.53 1.25 484.4 1.25 319.25 165.73 324.31 170.77"/><polygon class="cls-1" points="336.83 183.24 519.58 1.25 509.45 1.25 331.77 178.2 336.83 183.24"/><polygon class="cls-1" points="349.36 195.71 544.62 1.25 534.49 1.25 344.29 190.67 349.36 195.71"/><polygon class="cls-1" points="361.88 208.18 569.66 1.25 559.53 1.25 356.81 203.14 361.88 208.18"/><polygon class="cls-1" points="374.4 220.65 594.71 1.25 584.58 1.25 369.33 215.61 374.4 220.65"/><polygon class="cls-1" points="386.92 233.12 619.75 1.25 609.62 1.25 381.86 228.08 386.92 233.12"/><polygon class="cls-1" points="399.44 245.59 644.79 1.25 634.66 1.25 394.38 240.55 399.44 245.59"/><polygon class="cls-1" points="411.96 258.06 669.84 1.25 659.71 1.25 406.9 253.02 411.96 258.06"/><polygon class="cls-1" points="424.49 270.53 694.88 1.25 684.75 1.25 419.42 265.49 424.49 270.53"/><polygon class="cls-1" points="431.94 277.96 432 277.91 437.06 282.95 719.92 1.25 709.79 1.25 431.94 277.96 431.94 277.96"/><polygon class="cls-1" points="444.46 290.43 444.52 290.38 449.58 295.42 744.97 1.25 734.84 1.25 444.46 290.43 444.46 290.43"/><polygon class="cls-1" points="456.99 302.9 457.04 302.85 462.1 307.89 770.01 1.25 759.88 1.25 456.99 302.9 456.99 302.9"/><polygon class="cls-1" points="469.51 315.37 469.56 315.32 474.63 320.36 795.05 1.25 784.92 1.25 469.51 315.37 469.51 315.37"/><polygon class="cls-1" points="482.03 327.84 482.08 327.79 487.15 332.83 820.1 1.25 809.97 1.25 482.03 327.84 482.03 327.84"/><polygon class="cls-1" points="494.55 340.31 494.61 340.26 499.67 345.3 845.14 1.25 835.01 1.25 494.55 340.31 494.55 340.31"/><polygon class="cls-1" points="507.07 352.78 507.13 352.73 512.19 357.77 870.18 1.25 860.05 1.25 507.07 352.78 507.07 352.78"/><polygon class="cls-1" points="519.6 365.25 519.65 365.2 524.71 370.24 895.23 1.25 885.1 1.25 519.59 365.25 519.6 365.25"/><polygon class="cls-1" points="532.12 377.72 532.17 377.67 537.23 382.71 920.27 1.25 910.14 1.25 532.12 377.72 532.12 377.72"/><polygon class="cls-1" points="544.64 390.19 544.69 390.14 549.75 395.18 945.31 1.25 935.18 1.25 544.64 390.19 544.64 390.19"/><polygon class="cls-1" points="557.16 402.66 557.21 402.61 562.28 407.65 970.36 1.25 960.23 1.25 557.16 402.66 557.16 402.66"/><polygon class="cls-1" points="569.68 415.13 569.74 415.08 574.8 420.12 995.4 1.25 985.27 1.25 569.68 415.13 569.68 415.13"/><polygon class="cls-1" points="582.2 427.6 582.26 427.55 587.32 432.59 1020.44 1.25 1010.32 1.25 582.2 427.6 582.2 427.6"/><polygon class="cls-1" points="594.73 440.07 594.78 440.02 599.84 445.06 1045.49 1.25 1035.36 1.25 594.72 440.07 594.73 440.07"/><polygon class="cls-1" points="607.25 452.54 607.3 452.49 612.36 457.53 1070.53 1.25 1060.4 1.25 607.25 452.54 607.25 452.54"/><polygon class="cls-1" points="619.77 465.01 619.82 464.96 624.88 470 1095.57 1.25 1085.44 1.25 619.77 465.01 619.77 465.01"/><polygon class="cls-1" points="632.29 477.48 632.34 477.43 637.4 482.47 1120.61 1.25 1110.49 1.25 632.29 477.48 632.29 477.48"/><polygon class="cls-1" points="644.81 489.95 644.87 489.9 649.93 494.94 1145.66 1.25 1135.53 1.25 644.81 489.95 644.81 489.95"/><polygon class="cls-1" points="657.33 502.42 657.39 502.37 662.45 507.41 1170.7 1.25 1160.57 1.25 657.33 502.42 657.33 502.42"/><polygon class="cls-1" points="674.97 519.88 1188.07 8.89 1183.01 3.85 669.86 514.89 669.86 514.89 669.91 514.84 674.97 519.88"/><polygon class="cls-1" points="687.49 532.35 1200.59 21.36 1195.53 16.32 682.38 527.36 682.38 527.36 682.43 527.3 687.49 532.35"/><polygon class="cls-1" points="700.01 544.82 1213.12 33.83 1208.05 28.79 694.9 539.83 694.9 539.83 694.95 539.77 700.01 544.82"/><polygon class="cls-1" points="712.54 557.29 1225.64 46.3 1220.57 41.26 707.42 552.3 707.42 552.3 707.47 552.25 712.54 557.29"/><polygon class="cls-1" points="725.06 569.76 1238.16 58.77 1233.09 53.73 719.94 564.77 719.94 564.77 720 564.72 725.06 569.76"/><polygon class="cls-1" points="737.58 582.23 1250.68 71.24 1245.62 66.2 732.46 577.24 732.46 577.24 732.52 577.19 737.58 582.23"/><polygon class="cls-1" points="750.1 594.7 1263.2 83.71 1258.14 78.67 744.98 589.71 744.99 589.71 745.04 589.66 750.1 594.7"/><polygon class="cls-1" points="762.62 607.17 1275.72 96.18 1270.66 91.14 757.5 602.18 757.51 602.18 757.56 602.13 762.62 607.17"/><polygon class="cls-1" points="775.14 619.64 1288.24 108.65 1283.18 103.61 770.03 614.65 770.03 614.65 770.08 614.6 775.14 619.64"/><polygon class="cls-1" points="437.06 282.95 437.01 283 431.94 277.96 85.8 622.68 95.92 622.68 437.06 282.95 437.06 282.95"/><polygon class="cls-1" points="431.94 277.96 437.01 283 437.06 282.95 432 277.91 431.94 277.96"/><polygon class="cls-1" points="449.58 295.42 449.53 295.47 444.46 290.43 110.84 622.68 120.97 622.68 449.58 295.42 449.58 295.42"/><rect class="cls-1" x="446.99" y="289.35" width="0.08" height="7.14" transform="translate(-75.97 402.97) rotate(-45.12)"/><polygon class="cls-1" points="462.1 307.89 462.05 307.94 456.99 302.9 135.88 622.68 146.01 622.68 462.1 307.89 462.1 307.89"/><polygon class="cls-1" points="456.99 302.9 462.05 307.94 462.1 307.89 457.04 302.85 456.99 302.9"/><polygon class="cls-1" points="474.63 320.36 474.57 320.41 469.51 315.37 160.93 622.68 171.05 622.68 474.63 320.36 474.63 320.36"/><polygon class="cls-1" points="469.51 315.37 474.57 320.41 474.63 320.36 469.56 315.32 469.51 315.37"/><polygon class="cls-1" points="487.15 332.83 487.09 332.88 482.03 327.84 185.97 622.68 196.1 622.68 487.15 332.83 487.15 332.83"/><polygon class="cls-1" points="482.03 327.84 487.09 332.88 487.15 332.83 482.08 327.79 482.03 327.84"/><polygon class="cls-1" points="499.67 345.3 499.61 345.35 494.55 340.31 211.01 622.68 221.14 622.68 499.67 345.3 499.67 345.3"/><polygon class="cls-1" points="494.55 340.31 499.61 345.35 499.67 345.3 494.61 340.26 494.55 340.31"/><polygon class="cls-1" points="512.19 357.77 512.14 357.82 507.07 352.78 236.06 622.68 246.18 622.68 512.19 357.77 512.19 357.77"/><polygon class="cls-1" points="507.07 352.78 512.14 357.82 512.19 357.77 507.13 352.73 507.07 352.78"/><polygon class="cls-1" points="524.71 370.24 524.66 370.29 519.6 365.25 261.1 622.68 271.23 622.68 524.71 370.24 524.71 370.24"/><polygon class="cls-1" points="519.6 365.25 524.66 370.29 524.71 370.24 519.65 365.2 519.6 365.25"/><polygon class="cls-1" points="537.23 382.71 537.18 382.76 532.12 377.72 286.14 622.68 296.27 622.68 537.23 382.71 537.23 382.71"/><polygon class="cls-1" points="532.12 377.72 537.18 382.76 537.23 382.71 532.17 377.67 532.12 377.72"/><polygon class="cls-1" points="549.75 395.18 549.7 395.23 544.64 390.19 311.19 622.68 321.31 622.68 549.76 395.18 549.75 395.18"/><polygon class="cls-1" points="544.64 390.19 549.7 395.23 549.75 395.18 544.69 390.14 544.64 390.19"/><polygon class="cls-1" points="562.28 407.65 562.22 407.7 557.16 402.66 336.23 622.68 346.36 622.68 562.28 407.65 562.28 407.65"/><polygon class="cls-1" points="557.16 402.66 562.22 407.7 562.28 407.65 557.21 402.61 557.16 402.66"/><polygon class="cls-1" points="574.8 420.12 574.75 420.17 569.68 415.13 361.27 622.68 371.4 622.68 574.8 420.12 574.8 420.12"/><polygon class="cls-1" points="569.68 415.13 574.75 420.17 574.8 420.12 569.74 415.08 569.68 415.13"/><polygon class="cls-1" points="587.32 432.59 587.27 432.64 582.2 427.6 386.32 622.68 396.44 622.68 587.32 432.59 587.32 432.59"/><polygon class="cls-1" points="582.2 427.6 587.27 432.64 587.32 432.59 582.26 427.55 582.2 427.6"/><polygon class="cls-1" points="599.84 445.06 599.79 445.11 594.73 440.07 411.36 622.68 421.49 622.68 599.84 445.06 599.84 445.06"/><polygon class="cls-1" points="594.73 440.07 599.79 445.11 599.84 445.06 594.78 440.02 594.73 440.07"/><polygon class="cls-1" points="612.36 457.53 612.31 457.58 607.25 452.54 436.4 622.68 446.53 622.68 612.36 457.53 612.36 457.53"/><polygon class="cls-1" points="607.25 452.54 612.31 457.58 612.36 457.53 607.3 452.49 607.25 452.54"/><polygon class="cls-1" points="624.88 470 624.83 470.05 619.77 465.01 461.45 622.68 471.57 622.68 624.88 470 624.88 470"/><polygon class="cls-1" points="619.77 465.01 624.83 470.05 624.88 470 619.82 464.96 619.77 465.01"/><polygon class="cls-1" points="637.4 482.47 637.35 482.52 632.29 477.48 486.49 622.68 496.62 622.68 637.41 482.47 637.4 482.47"/><polygon class="cls-1" points="632.29 477.48 637.35 482.52 637.4 482.47 632.34 477.43 632.29 477.48"/><polygon class="cls-1" points="649.93 494.94 649.88 494.99 644.81 489.95 511.53 622.68 521.66 622.68 649.93 494.94 649.93 494.94"/><polygon class="cls-1" points="644.81 489.95 649.88 494.99 649.93 494.94 644.87 489.9 644.81 489.95"/><polygon class="cls-1" points="662.45 507.41 662.4 507.46 657.33 502.42 536.58 622.68 546.7 622.68 662.45 507.41 662.45 507.41"/><rect class="cls-1" x="659.85" y="501.34" width="0.07" height="7.15" transform="translate(-163.52 616.18) rotate(-45.12)"/><polygon class="cls-1" points="674.97 519.88 674.92 519.93 669.86 514.89 561.62 622.68 571.75 622.68 674.97 519.88 674.97 519.88"/><polygon class="cls-1" points="674.97 519.88 669.91 514.84 669.86 514.89 674.92 519.93 674.97 519.88"/><polygon class="cls-1" points="687.49 532.35 687.44 532.4 682.38 527.36 586.66 622.68 596.79 622.68 687.49 532.35 687.49 532.35"/><polygon class="cls-1" points="687.49 532.35 682.43 527.3 682.38 527.36 687.44 532.4 687.49 532.35"/><polygon class="cls-1" points="700.01 544.82 699.96 544.87 694.9 539.83 611.71 622.68 621.83 622.68 700.01 544.82 700.01 544.82"/><polygon class="cls-1" points="700.01 544.82 694.95 539.77 694.9 539.83 699.96 544.87 700.01 544.82"/><polygon class="cls-1" points="712.54 557.29 712.48 557.34 707.42 552.3 636.75 622.68 646.88 622.68 712.54 557.29 712.54 557.29"/><polygon class="cls-1" points="712.54 557.29 707.47 552.25 707.42 552.3 712.48 557.34 712.54 557.29"/><polygon class="cls-1" points="725.06 569.76 725 569.81 719.94 564.77 661.79 622.68 671.92 622.68 725.06 569.76 725.06 569.76"/><polygon class="cls-1" points="725.06 569.76 720 564.72 719.94 564.77 725 569.81 725.06 569.76"/><polygon class="cls-1" points="737.58 582.23 737.53 582.28 732.46 577.24 686.84 622.68 696.96 622.68 737.58 582.23 737.58 582.23"/><polygon class="cls-1" points="737.58 582.23 732.52 577.19 732.46 577.24 737.53 582.28 737.58 582.23"/><polygon class="cls-1" points="750.1 594.7 750.05 594.75 744.99 589.71 711.88 622.68 722.01 622.68 750.1 594.7 750.1 594.7"/><polygon class="cls-1" points="750.1 594.7 745.04 589.66 744.99 589.71 750.05 594.75 750.1 594.7"/><polygon class="cls-1" points="762.62 607.17 762.57 607.22 757.51 602.18 736.92 622.68 747.05 622.68 762.62 607.17 762.62 607.17"/><polygon class="cls-1" points="762.62 607.17 757.56 602.13 757.51 602.18 762.57 607.22 762.62 607.17"/><polygon class="cls-1" points="775.14 619.64 775.09 619.69 770.03 614.65 761.97 622.68 772.09 622.68 775.15 619.64 775.14 619.64"/><rect class="cls-1" x="772.55" y="613.57" width="0.08" height="7.14" transform="translate(-209.87 729.09) rotate(-45.12)"/><path class="cls-3" d="M1400.56,68.16V0H0V629.6H1400.56V555.84h-.28V68.16Zm-68.44,487.68H68.16V68.16h1264Z"/><rect class="cls-2" x="582.51" y="199.76" width="235.53" height="230.08"/></g></g></svg>