<svg xmlns="http://www.w3.org/2000/svg" viewBox="0 0 1400 621.42"><defs><style>.cls-1{fill:#fff;}.cls-2{fill:#e8bf4f;}</style></defs><title>fondoamarok</title><g id="Capa_2" data-name="Capa 2"><g id="Capa_1-2" data-name="Capa 1"><polygon class="cls-1" points="1379.6 0 1395.64 15.97 1395.63 15.97 1400 20.32 1400 5.46 1394.51 0 1379.6 0"/><polygon class="cls-1" points="0 582.55 39.03 621.42 53.95 621.42 0 567.7 0 582.55"/><polygon class="cls-1" points="1378 33.43 1344.43 0 1329.51 0 1370.59 40.91 1370.59 40.91 1400 70.2 1400 55.35 1378 33.44 1378 33.43"/><polygon class="cls-1" points="1390.52 20.96 1369.47 0 1354.55 0 1383.12 28.44 1383.11 28.45 1400 45.26 1400 30.41 1390.52 20.96 1390.52 20.96"/><polygon class="cls-1" points="0 607.49 13.99 621.42 28.91 621.42 0 592.64 0 607.49"/><polygon class="cls-1" points="581.92 426.35 1010.04 0 995.12 0 574.52 418.87 574.52 418.87 371.12 621.42 386.04 621.42 581.93 426.35 581.92 426.35"/><polygon class="cls-1" points="1352.95 58.37 1294.34 0 1279.42 0 1345.55 65.85 1345.55 65.86 1400 120.08 1400 105.23 1352.95 58.38 1352.95 58.37"/><polygon class="cls-1" points="606.97 451.29 1060.12 0 1045.21 0 599.56 443.81 599.56 443.81 421.21 621.42 436.12 621.42 606.97 451.29 606.97 451.29"/><polygon class="cls-1" points="594.45 438.81 1035.08 0 1020.16 0 587.04 431.33 587.04 431.34 396.17 621.42 411.08 621.42 594.45 438.82 594.45 438.81"/><polygon class="cls-1" points="569.4 413.88 984.99 0 970.08 0 562 406.39 562 406.4 346.08 621.42 361 621.42 569.4 413.88 569.4 413.88"/><polygon class="cls-1" points="531.84 376.46 909.86 0 894.95 0 524.43 368.98 524.43 368.99 270.95 621.42 285.87 621.42 531.84 376.47 531.84 376.46"/><polygon class="cls-1" points="544.36 388.94 934.91 0 919.99 0 536.95 381.45 536.96 381.46 295.99 621.42 310.91 621.42 544.36 388.94 544.36 388.94"/><polygon class="cls-1" points="1365.48 45.9 1319.38 0 1304.47 0 1358.07 53.38 1358.07 53.38 1400 95.14 1400 80.29 1365.47 45.91 1365.48 45.9"/><polygon class="cls-1" points="556.88 401.4 959.95 0 945.03 0 549.48 393.93 549.48 393.93 321.04 621.42 335.95 621.42 556.88 401.41 556.88 401.4"/><polygon class="cls-1" points="1315.39 95.78 1219.21 0 1204.29 0 1307.99 103.26 1307.98 103.27 1400 194.9 1400 180.05 1315.39 95.78 1315.39 95.78"/><polygon class="cls-1" points="657.05 501.16 1160.3 0 1145.38 0 649.65 493.69 649.65 493.69 521.38 621.42 536.3 621.42 657.05 501.17 657.05 501.16"/><polygon class="cls-1" points="1302.87 108.25 1194.17 0 1170.42 0 662.17 506.15 662.17 506.16 546.42 621.42 561.34 621.42 669.58 513.64 669.58 513.63 1182.73 2.6 1187.79 7.64 674.69 518.63 674.69 518.63 571.47 621.42 586.38 621.42 682.1 526.11 682.1 526.11 1195.25 15.07 1200.31 20.11 687.21 531.1 687.22 531.1 596.51 621.42 611.43 621.42 694.62 538.58 694.62 538.58 1207.77 27.54 1212.84 32.58 699.74 543.57 699.74 543.57 621.55 621.42 636.47 621.42 707.14 551.04 707.14 551.04 1220.29 40.01 1225.36 45.05 712.26 556.03 712.26 556.04 646.6 621.42 661.51 621.42 719.66 563.51 719.66 563.51 1232.82 52.48 1237.88 57.52 724.78 568.5 724.78 568.51 671.64 621.42 686.56 621.42 732.18 575.99 732.18 575.99 1245.34 64.95 1250.4 69.99 737.3 580.98 737.3 580.98 696.68 621.42 711.6 621.42 744.71 588.46 744.71 588.46 1257.86 77.42 1262.92 82.46 749.82 593.44 749.82 593.45 721.73 621.42 736.64 621.42 757.23 600.93 757.23 600.92 1270.38 89.89 1275.44 94.93 762.34 605.91 762.35 605.91 746.77 621.42 761.69 621.42 769.75 613.4 769.75 613.39 1282.9 102.36 1287.97 107.4 774.87 618.38 774.87 618.38 771.82 621.42 791.39 621.42 789.48 619.52 794.54 614.48 801.51 621.42 816.43 621.42 802 607.05 807.07 602.01 826.56 621.42 841.48 621.42 814.52 594.58 819.59 589.54 851.6 621.42 866.52 621.42 827.04 582.12 832.11 577.07 876.64 621.42 891.56 621.42 839.57 569.64 844.63 564.6 901.69 621.42 916.6 621.42 852.09 557.17 857.15 552.13 926.73 621.42 941.65 621.42 864.61 544.71 869.67 539.66 951.77 621.42 966.69 621.42 877.13 532.24 882.2 527.19 976.82 621.42 991.73 621.42 889.65 519.76 894.72 514.72 1001.86 621.42 1016.78 621.42 902.17 507.3 907.24 502.25 1026.9 621.42 1041.82 621.42 914.7 494.82 919.76 489.78 1051.95 621.42 1066.86 621.42 927.22 482.36 932.28 477.31 1076.99 621.42 1091.91 621.42 939.74 469.88 944.8 464.84 1102.03 621.42 1116.95 621.42 952.26 457.42 957.32 452.37 1127.08 621.42 1141.99 621.42 964.78 444.94 969.85 439.9 1152.12 621.42 1167.04 621.42 977.3 432.48 982.37 427.43 1177.16 621.42 1192.08 621.42 989.83 420 994.89 414.96 1202.21 621.42 1217.12 621.42 1002.35 407.54 1007.41 402.49 1227.25 621.42 1242.17 621.42 1014.87 395.06 1019.93 390.02 1252.29 621.42 1267.21 621.42 1027.39 382.6 1032.45 377.55 1277.34 621.42 1292.25 621.42 1039.91 370.13 1044.98 365.08 1302.38 621.42 1317.3 621.42 1052.43 357.65 1057.5 352.61 1327.42 621.42 1342.34 621.42 1064.96 345.19 1070.02 340.14 1352.47 621.42 1367.38 621.42 1077.48 332.71 1082.54 327.67 1377.51 621.42 1392.43 621.42 1090 320.25 1095.06 315.2 1400 618.88 1400 604.03 1102.52 307.77 1107.58 302.73 1400 593.94 1400 579.09 1115.04 295.31 1120.11 290.26 1400 569 1400 554.15 1127.56 282.83 1132.63 277.79 1400 544.06 1400 529.21 1140.09 270.37 1145.15 265.32 1400 519.12 1400 504.27 1152.61 257.9 1157.67 252.85 1400 494.18 1400 479.33 1165.13 245.43 1170.19 240.38 1400 469.24 1400 454.39 1177.65 232.96 1182.71 227.91 1400 444.3 1400 429.45 1190.17 220.49 1195.24 215.44 1400 419.36 1400 404.51 1202.69 208.02 1207.76 202.97 1400 394.42 1400 379.57 1215.22 195.55 1220.28 190.5 1400 369.48 1400 354.63 1227.74 183.08 1232.8 178.03 1400 344.54 1400 329.69 1240.26 170.61 1245.32 165.56 1400 319.6 1400 304.75 1252.78 158.14 1257.84 153.09 1400 294.66 1400 279.81 1265.3 145.67 1270.37 140.62 1400 269.72 1400 254.87 1277.82 133.2 1282.89 128.15 1400 244.78 1400 229.93 1290.35 120.73 1295.41 115.68 1400 219.84 1400 204.99 1302.87 108.26 1302.87 108.25"/><polygon class="cls-1" points="632.01 476.22 1110.21 0 1095.29 0 624.61 468.75 624.61 468.75 471.3 621.42 486.21 621.42 632.01 476.23 632.01 476.22"/><polygon class="cls-1" points="644.53 488.69 1135.25 0 1120.34 0 637.13 481.21 637.13 481.22 496.34 621.42 511.25 621.42 644.53 488.7 644.53 488.69"/><polygon class="cls-1" points="1327.91 83.31 1244.25 0 1229.34 0 1320.51 90.79 1320.51 90.8 1400 169.96 1400 155.11 1327.91 83.31 1327.91 83.31"/><polygon class="cls-1" points="619.49 463.75 1085.16 0 1070.25 0 612.08 456.27 612.09 456.28 446.25 621.42 461.17 621.42 619.49 463.76 619.49 463.75"/><polygon class="cls-1" points="1340.43 70.84 1269.3 0 1254.38 0 1333.03 78.32 1333.03 78.33 1400 145.02 1400 130.17 1340.43 70.84 1340.43 70.84"/><polygon class="cls-1" points="519.32 364 884.82 0 869.9 0 511.91 356.51 511.91 356.52 245.91 621.42 260.82 621.42 519.32 364 519.32 364"/><polygon class="cls-1" points="444.19 289.18 734.56 0 719.64 0 436.78 281.69 436.78 281.7 95.64 621.42 110.56 621.42 444.19 289.18 444.19 289.18"/><polygon class="cls-1" points="456.71 301.64 759.6 0 744.69 0 449.3 294.17 449.3 294.17 120.69 621.42 135.6 621.42 456.71 301.65 456.71 301.64"/><polygon class="cls-1" points="431.66 276.7 709.52 0 694.6 0 424.21 269.28 419.14 264.24 684.47 0 669.56 0 411.69 256.81 406.62 251.76 659.43 0 644.51 0 399.16 244.34 394.1 239.29 634.39 0 619.47 0 386.64 231.87 381.58 226.82 609.34 0 594.43 0 374.12 219.4 369.06 214.35 584.3 0 569.38 0 361.6 206.93 356.54 201.88 559.26 0 544.34 0 349.08 194.46 344.01 189.41 534.21 0 519.3 0 336.56 181.99 331.49 176.94 509.17 0 494.25 0 324.03 169.52 318.97 164.47 484.13 0 469.21 0 311.51 157.05 306.45 152.01 459.08 0 444.17 0 298.99 144.58 293.93 139.54 434.04 0 419.12 0 286.47 132.11 281.4 127.07 409 0 394.08 0 273.95 119.64 268.88 114.59 383.95 0 369.04 0 261.43 107.17 256.36 102.13 358.91 0 343.99 0 248.9 94.7 243.84 89.66 333.87 0 318.95 0 236.38 82.23 231.32 77.19 308.82 0 293.91 0 223.86 69.76 218.8 64.72 283.78 0 268.86 0 211.34 57.29 206.27 52.24 258.74 0 243.82 0 198.82 44.82 193.75 39.77 233.69 0 218.78 0 186.29 32.35 181.23 27.3 208.65 0 193.73 0 173.77 19.88 168.71 14.84 183.61 0 168.69 0 161.25 7.41 156.19 2.37 158.56 0 141.29 0 417.94 275.5 412.87 280.55 131.16 0 116.25 0 405.41 287.97 400.35 293.02 106.12 0 91.2 0 392.89 300.44 387.83 305.49 81.08 0 66.16 0 380.37 312.91 375.31 317.96 56.03 0 41.12 0 367.85 325.38 362.79 330.43 30.99 0 16.07 0 355.33 337.85 350.26 342.9 5.95 0 0 0 0 8.93 342.81 350.32 337.74 355.37 0 19.02 0 33.87 330.28 362.8 325.22 367.84 0 43.96 0 58.81 317.76 375.26 312.7 380.31 0 68.9 0 83.75 305.24 387.73 300.18 392.78 0 93.84 0 108.69 292.72 400.2 287.65 405.25 0 118.78 0 133.63 280.2 412.67 275.13 417.72 0 143.72 0 158.57 267.68 425.14 262.61 430.19 0 168.66 0 183.51 255.15 437.61 250.09 442.66 0 193.6 0 208.45 242.63 450.08 237.57 455.13 0 218.54 0 233.39 230.11 462.55 225.05 467.6 0 243.48 0 258.33 217.59 475.02 212.53 480.07 0 268.42 0 283.27 205.07 487.49 200 492.54 0 293.36 0 308.21 192.55 499.96 187.48 505.01 0 318.3 0 333.15 180.02 512.43 174.96 517.48 0 343.24 0 358.09 167.5 524.9 162.44 529.95 0 368.18 0 383.03 154.98 537.37 149.92 542.42 0 393.12 0 407.97 142.46 549.84 137.4 554.89 0 418.06 0 432.91 129.94 562.31 124.87 567.36 0 443 0 457.85 117.42 574.78 112.35 579.83 0 467.94 0 482.79 104.89 587.25 99.83 592.3 0 492.88 0 507.73 92.37 599.72 87.31 604.77 0 517.82 0 532.67 79.85 612.19 74.79 617.24 0 542.76 0 557.61 64.08 621.42 85.52 621.42 431.67 276.71 431.66 276.7"/><polygon class="cls-1" points="469.23 314.12 784.65 0 769.73 0 461.82 306.63 461.82 306.64 145.73 621.42 160.65 621.42 469.23 314.12 469.23 314.12"/><polygon class="cls-1" points="506.79 351.52 859.78 0 844.86 0 499.39 344.05 499.39 344.05 220.86 621.42 235.78 621.42 506.8 351.53 506.79 351.52"/><polygon class="cls-1" points="494.27 339.06 834.73 0 819.82 0 486.87 331.57 486.87 331.58 195.82 621.42 210.74 621.42 494.27 339.06 494.27 339.06"/><polygon class="cls-1" points="481.75 326.58 809.69 0 794.77 0 474.35 319.1 474.35 319.11 170.78 621.42 185.69 621.42 481.75 326.59 481.75 326.58"/><polygon class="cls-2" points="417.94 275.5 141.29 0 131.16 0 412.87 280.55 417.94 275.5"/><polygon class="cls-2" points="405.41 287.97 116.25 0 106.12 0 400.35 293.02 405.41 287.97"/><polygon class="cls-2" points="392.89 300.44 91.2 0 81.08 0 387.83 305.49 392.89 300.44"/><polygon class="cls-2" points="380.37 312.91 66.16 0 56.03 0 375.31 317.96 380.37 312.91"/><polygon class="cls-2" points="367.85 325.38 41.12 0 30.99 0 362.79 330.43 367.85 325.38"/><polygon class="cls-2" points="355.33 337.85 16.07 0 5.95 0 350.26 342.9 355.33 337.85"/><polygon class="cls-2" points="342.81 350.32 0 8.93 0 19.02 337.74 355.37 342.81 350.32"/><polygon class="cls-2" points="330.28 362.8 0 33.87 0 43.96 325.22 367.84 330.28 362.8"/><polygon class="cls-2" points="317.76 375.26 0 58.81 0 68.9 312.7 380.31 317.76 375.26"/><polygon class="cls-2" points="305.24 387.73 0 83.75 0 93.84 300.18 392.78 305.24 387.73"/><polygon class="cls-2" points="292.72 400.2 0 108.69 0 118.78 287.65 405.25 292.72 400.2"/><polygon class="cls-2" points="280.2 412.67 0 133.63 0 143.72 275.13 417.72 280.2 412.67"/><polygon class="cls-2" points="267.68 425.14 0 158.57 0 168.66 262.61 430.19 267.68 425.14"/><polygon class="cls-2" points="255.15 437.61 0 183.51 0 193.6 250.09 442.66 255.15 437.61"/><polygon class="cls-2" points="242.63 450.08 0 208.45 0 218.54 237.57 455.13 242.63 450.08"/><polygon class="cls-2" points="230.11 462.55 0 233.39 0 243.48 225.05 467.6 230.11 462.55"/><polygon class="cls-2" points="217.59 475.02 0 258.33 0 268.42 212.53 480.07 217.59 475.02"/><polygon class="cls-2" points="205.07 487.49 0 283.27 0 293.36 200 492.54 205.07 487.49"/><polygon class="cls-2" points="192.55 499.96 0 308.21 0 318.3 187.48 505.01 192.55 499.96"/><polygon class="cls-2" points="180.02 512.43 0 333.15 0 343.24 174.96 517.48 180.02 512.43"/><polygon class="cls-2" points="167.5 524.9 0 358.09 0 368.18 162.44 529.95 167.5 524.9"/><polygon class="cls-2" points="154.98 537.37 0 383.03 0 393.12 149.92 542.42 154.98 537.37"/><polygon class="cls-2" points="142.46 549.84 0 407.97 0 418.06 137.4 554.89 142.46 549.84"/><polygon class="cls-2" points="129.94 562.31 0 432.91 0 443 124.87 567.36 129.94 562.31"/><polygon class="cls-2" points="117.42 574.78 0 457.85 0 467.94 112.35 579.83 117.42 574.78"/><polygon class="cls-2" points="104.89 587.25 0 482.79 0 492.88 99.83 592.3 104.89 587.25"/><polygon class="cls-2" points="92.37 599.72 0 507.73 0 517.82 87.31 604.77 92.37 599.72"/><polygon class="cls-2" points="79.85 612.19 0 532.67 0 542.76 74.79 617.24 79.85 612.19"/><polygon class="cls-2" points="0 567.7 53.95 621.42 64.08 621.42 0 557.61 0 567.7"/><polygon class="cls-2" points="0 592.64 28.91 621.42 39.03 621.42 0 582.55 0 592.64"/><polygon class="cls-2" points="1390.57 21.02 1390.52 20.96 1390.52 20.96 1400 30.41 1400 20.32 1395.63 15.97 1390.57 21.02"/><polygon class="cls-2" points="1378.05 33.49 1378 33.43 1378 33.44 1400 55.35 1400 45.26 1383.11 28.45 1378.05 33.49"/><polygon class="cls-2" points="1365.53 45.96 1365.48 45.9 1365.47 45.91 1400 80.29 1400 70.2 1370.59 40.91 1365.53 45.96"/><polygon class="cls-2" points="1353.01 58.43 1352.95 58.37 1352.95 58.38 1400 105.23 1400 95.14 1358.07 53.38 1353.01 58.43"/><polygon class="cls-2" points="1340.49 70.9 1340.43 70.84 1340.43 70.84 1400 130.17 1400 120.08 1345.55 65.86 1340.49 70.9"/><polygon class="cls-2" points="1327.96 83.37 1327.91 83.31 1327.91 83.31 1400 155.11 1400 145.02 1333.03 78.33 1327.96 83.37"/><polygon class="cls-2" points="1315.44 95.84 1315.39 95.78 1315.39 95.78 1400 180.05 1400 169.96 1320.51 90.8 1315.44 95.84"/><polygon class="cls-2" points="1302.92 108.31 1302.87 108.25 1302.87 108.26 1400 204.99 1400 194.9 1307.98 103.27 1302.92 108.31"/><polygon class="cls-2" points="1290.35 120.73 1400 229.93 1400 219.84 1295.41 115.68 1290.35 120.73"/><polygon class="cls-2" points="1277.82 133.2 1400 254.87 1400 244.78 1282.89 128.15 1277.82 133.2"/><polygon class="cls-2" points="1265.3 145.67 1400 279.81 1400 269.72 1270.37 140.62 1265.3 145.67"/><polygon class="cls-2" points="1252.78 158.14 1400 304.75 1400 294.66 1257.84 153.09 1252.78 158.14"/><polygon class="cls-2" points="1240.26 170.61 1400 329.69 1400 319.6 1245.32 165.56 1240.26 170.61"/><polygon class="cls-2" points="1227.74 183.08 1400 354.63 1400 344.54 1232.8 178.03 1227.74 183.08"/><polygon class="cls-2" points="1215.22 195.55 1400 379.57 1400 369.48 1220.28 190.5 1215.22 195.55"/><polygon class="cls-2" points="1202.69 208.02 1400 404.51 1400 394.42 1207.76 202.97 1202.69 208.02"/><polygon class="cls-2" points="1190.17 220.49 1400 429.45 1400 419.36 1195.24 215.44 1190.17 220.49"/><polygon class="cls-2" points="1177.65 232.96 1400 454.39 1400 444.3 1182.71 227.91 1177.65 232.96"/><polygon class="cls-2" points="1165.13 245.43 1400 479.33 1400 469.24 1170.19 240.38 1165.13 245.43"/><polygon class="cls-2" points="1152.61 257.9 1400 504.27 1400 494.18 1157.67 252.85 1152.61 257.9"/><polygon class="cls-2" points="1140.09 270.37 1400 529.21 1400 519.12 1145.15 265.32 1140.09 270.37"/><polygon class="cls-2" points="1127.56 282.83 1400 554.15 1400 544.06 1132.63 277.79 1127.56 282.83"/><polygon class="cls-2" points="1115.04 295.31 1400 579.09 1400 569 1120.11 290.26 1115.04 295.31"/><polygon class="cls-2" points="1102.52 307.77 1400 604.03 1400 593.94 1107.58 302.73 1102.52 307.77"/><polygon class="cls-2" points="1090 320.25 1392.43 621.42 1400 621.42 1400 618.88 1095.06 315.2 1090 320.25"/><polygon class="cls-2" points="1077.48 332.71 1367.38 621.42 1377.51 621.42 1082.54 327.67 1077.48 332.71"/><polygon class="cls-2" points="1064.96 345.19 1342.34 621.42 1352.47 621.42 1070.02 340.14 1064.96 345.19"/><polygon class="cls-2" points="1052.43 357.65 1317.3 621.42 1327.42 621.42 1057.5 352.61 1052.43 357.65"/><polygon class="cls-2" points="1039.91 370.13 1292.25 621.42 1302.38 621.42 1044.98 365.08 1039.91 370.13"/><polygon class="cls-2" points="1027.39 382.6 1267.21 621.42 1277.34 621.42 1032.45 377.55 1027.39 382.6"/><polygon class="cls-2" points="1014.87 395.06 1242.17 621.42 1252.29 621.42 1019.93 390.02 1014.87 395.06"/><polygon class="cls-2" points="1002.35 407.54 1217.12 621.42 1227.25 621.42 1007.41 402.49 1002.35 407.54"/><polygon class="cls-2" points="989.83 420 1192.08 621.42 1202.21 621.42 994.89 414.96 989.83 420"/><polygon class="cls-2" points="977.3 432.48 1167.04 621.42 1177.16 621.42 982.37 427.43 977.3 432.48"/><polygon class="cls-2" points="964.78 444.94 1141.99 621.42 1152.12 621.42 969.85 439.9 964.78 444.94"/><polygon class="cls-2" points="952.26 457.42 1116.95 621.42 1127.08 621.42 957.32 452.37 952.26 457.42"/><polygon class="cls-2" points="939.74 469.88 1091.91 621.42 1102.03 621.42 944.8 464.84 939.74 469.88"/><polygon class="cls-2" points="927.22 482.36 1066.86 621.42 1076.99 621.42 932.28 477.31 927.22 482.36"/><polygon class="cls-2" points="914.7 494.82 1041.82 621.42 1051.95 621.42 919.76 489.78 914.7 494.82"/><polygon class="cls-2" points="902.17 507.3 1016.78 621.42 1026.9 621.42 907.24 502.25 902.17 507.3"/><polygon class="cls-2" points="889.65 519.76 991.73 621.42 1001.86 621.42 894.72 514.72 889.65 519.76"/><polygon class="cls-2" points="877.13 532.24 966.69 621.42 976.82 621.42 882.2 527.19 877.13 532.24"/><polygon class="cls-2" points="864.61 544.71 941.65 621.42 951.77 621.42 869.67 539.66 864.61 544.71"/><polygon class="cls-2" points="852.09 557.17 916.6 621.42 926.73 621.42 857.15 552.13 852.09 557.17"/><polygon class="cls-2" points="839.57 569.64 891.56 621.42 901.69 621.42 844.63 564.6 839.57 569.64"/><polygon class="cls-2" points="827.04 582.12 866.52 621.42 876.64 621.42 832.11 577.07 827.04 582.12"/><polygon class="cls-2" points="814.52 594.58 841.48 621.42 851.6 621.42 819.59 589.54 814.52 594.58"/><polygon class="cls-2" points="1394.51 0 1400 5.46 1400 0 1394.51 0"/><polygon class="cls-2" points="1395.58 15.92 1395.63 15.97 1395.64 15.97 1379.6 0 1369.47 0 1390.52 20.96 1395.58 15.92"/><rect class="cls-2" x="1389.51" y="18.43" width="7.14" height="0.07" transform="translate(398.1 993.68) rotate(-45.18)"/><polygon class="cls-2" points="1383.06 28.39 1383.11 28.45 1383.12 28.44 1354.55 0 1344.43 0 1378 33.43 1383.06 28.39"/><polygon class="cls-2" points="1378 33.43 1378.05 33.49 1383.11 28.45 1383.06 28.39 1378 33.43"/><polygon class="cls-2" points="1370.54 40.86 1370.59 40.91 1370.59 40.91 1329.51 0 1319.38 0 1365.48 45.9 1370.54 40.86"/><polygon class="cls-2" points="1365.48 45.9 1365.53 45.96 1370.59 40.91 1370.54 40.86 1365.48 45.9"/><polygon class="cls-2" points="1358.02 53.33 1358.07 53.38 1358.07 53.38 1304.47 0 1294.34 0 1352.95 58.37 1358.02 53.33"/><polygon class="cls-2" points="1352.95 58.37 1353.01 58.43 1358.07 53.38 1358.02 53.33 1352.95 58.37"/><polygon class="cls-2" points="1345.5 65.8 1345.55 65.86 1345.55 65.85 1279.42 0 1269.3 0 1340.43 70.84 1345.5 65.8"/><polygon class="cls-2" points="1340.43 70.84 1340.49 70.9 1345.55 65.86 1345.5 65.8 1340.43 70.84"/><polygon class="cls-2" points="1332.97 78.27 1333.03 78.33 1333.03 78.32 1254.38 0 1244.25 0 1327.91 83.31 1332.97 78.27"/><rect class="cls-2" x="1326.9" y="80.78" width="7.14" height="0.07" transform="translate(335.39 967.67) rotate(-45.18)"/><polygon class="cls-2" points="1320.45 90.74 1320.51 90.8 1320.51 90.79 1229.34 0 1219.21 0 1315.39 95.78 1320.45 90.74"/><polygon class="cls-2" points="1315.39 95.78 1315.44 95.84 1320.51 90.8 1320.45 90.74 1315.39 95.78"/><polygon class="cls-2" points="1307.93 103.21 1307.98 103.27 1307.99 103.26 1204.29 0 1194.17 0 1302.87 108.25 1307.93 103.21"/><polygon class="cls-2" points="1302.87 108.25 1302.92 108.31 1307.98 103.27 1307.93 103.21 1302.87 108.25"/><polygon class="cls-2" points="161.25 7.41 168.69 0 158.56 0 156.19 2.37 161.25 7.41"/><polygon class="cls-2" points="173.77 19.88 193.73 0 183.61 0 168.71 14.84 173.77 19.88"/><polygon class="cls-2" points="186.29 32.35 218.78 0 208.65 0 181.23 27.3 186.29 32.35"/><polygon class="cls-2" points="198.82 44.82 243.82 0 233.69 0 193.75 39.77 198.82 44.82"/><polygon class="cls-2" points="211.34 57.29 268.86 0 258.74 0 206.27 52.24 211.34 57.29"/><polygon class="cls-2" points="223.86 69.76 293.91 0 283.78 0 218.8 64.72 223.86 69.76"/><polygon class="cls-2" points="236.38 82.23 318.95 0 308.82 0 231.32 77.19 236.38 82.23"/><polygon class="cls-2" points="248.9 94.7 343.99 0 333.87 0 243.84 89.66 248.9 94.7"/><polygon class="cls-2" points="261.43 107.17 369.04 0 358.91 0 256.36 102.13 261.43 107.17"/><polygon class="cls-2" points="273.95 119.64 394.08 0 383.95 0 268.88 114.59 273.95 119.64"/><polygon class="cls-2" points="286.47 132.11 419.12 0 409 0 281.4 127.07 286.47 132.11"/><polygon class="cls-2" points="298.99 144.58 444.17 0 434.04 0 293.93 139.54 298.99 144.58"/><polygon class="cls-2" points="311.51 157.05 469.21 0 459.08 0 306.45 152.01 311.51 157.05"/><polygon class="cls-2" points="324.03 169.52 494.25 0 484.13 0 318.97 164.47 324.03 169.52"/><polygon class="cls-2" points="336.56 181.99 519.3 0 509.17 0 331.49 176.94 336.56 181.99"/><polygon class="cls-2" points="349.08 194.46 544.34 0 534.21 0 344.01 189.41 349.08 194.46"/><polygon class="cls-2" points="361.6 206.93 569.38 0 559.26 0 356.54 201.88 361.6 206.93"/><polygon class="cls-2" points="374.12 219.4 594.43 0 584.3 0 369.06 214.35 374.12 219.4"/><polygon class="cls-2" points="386.64 231.87 619.47 0 609.34 0 381.58 226.82 386.64 231.87"/><polygon class="cls-2" points="399.16 244.34 644.51 0 634.39 0 394.1 239.29 399.16 244.34"/><polygon class="cls-2" points="411.69 256.81 669.56 0 659.43 0 406.62 251.76 411.69 256.81"/><polygon class="cls-2" points="424.21 269.28 694.6 0 684.47 0 419.14 264.24 424.21 269.28"/><polygon class="cls-2" points="431.67 276.71 431.72 276.65 436.78 281.69 719.64 0 709.52 0 431.66 276.7 431.67 276.71"/><polygon class="cls-2" points="444.19 289.18 444.24 289.12 449.3 294.17 744.69 0 734.56 0 444.19 289.18 444.19 289.18"/><polygon class="cls-2" points="456.71 301.65 456.76 301.59 461.82 306.63 769.73 0 759.6 0 456.71 301.64 456.71 301.65"/><polygon class="cls-2" points="469.23 314.12 469.28 314.06 474.35 319.1 794.77 0 784.65 0 469.23 314.12 469.23 314.12"/><polygon class="cls-2" points="481.75 326.59 481.81 326.53 486.87 331.57 819.82 0 809.69 0 481.75 326.58 481.75 326.59"/><polygon class="cls-2" points="494.27 339.06 494.33 339 499.39 344.05 844.86 0 834.73 0 494.27 339.06 494.27 339.06"/><polygon class="cls-2" points="506.8 351.53 506.85 351.47 511.91 356.51 869.9 0 859.78 0 506.79 351.52 506.8 351.53"/><polygon class="cls-2" points="519.32 364 519.37 363.94 524.43 368.98 894.95 0 884.82 0 519.32 364 519.32 364"/><polygon class="cls-2" points="531.84 376.47 531.89 376.41 536.95 381.45 919.99 0 909.86 0 531.84 376.46 531.84 376.47"/><polygon class="cls-2" points="544.36 388.94 544.41 388.88 549.48 393.93 945.03 0 934.91 0 544.36 388.94 544.36 388.94"/><polygon class="cls-2" points="556.88 401.41 556.93 401.35 562 406.39 970.08 0 959.95 0 556.88 401.4 556.88 401.41"/><polygon class="cls-2" points="569.4 413.88 569.46 413.82 574.52 418.87 995.12 0 984.99 0 569.4 413.88 569.4 413.88"/><polygon class="cls-2" points="581.93 426.35 581.98 426.29 587.04 431.33 1020.16 0 1010.04 0 581.92 426.35 581.93 426.35"/><polygon class="cls-2" points="594.45 438.82 594.5 438.76 599.56 443.81 1045.21 0 1035.08 0 594.45 438.81 594.45 438.82"/><polygon class="cls-2" points="606.97 451.29 607.02 451.23 612.08 456.27 1070.25 0 1060.12 0 606.97 451.29 606.97 451.29"/><polygon class="cls-2" points="619.49 463.76 619.54 463.7 624.61 468.75 1095.29 0 1085.16 0 619.49 463.75 619.49 463.76"/><polygon class="cls-2" points="632.01 476.23 632.06 476.17 637.13 481.21 1120.34 0 1110.21 0 632.01 476.22 632.01 476.23"/><polygon class="cls-2" points="644.53 488.7 644.59 488.64 649.65 493.69 1145.38 0 1135.25 0 644.53 488.69 644.53 488.7"/><polygon class="cls-2" points="657.05 501.17 657.11 501.11 662.17 506.15 1170.42 0 1160.3 0 657.05 501.16 657.05 501.17"/><polygon class="cls-2" points="674.69 518.63 1187.79 7.64 1182.73 2.6 669.58 513.63 669.58 513.64 669.63 513.58 674.69 518.63"/><polygon class="cls-2" points="687.21 531.1 1200.31 20.11 1195.25 15.07 682.1 526.11 682.1 526.11 682.15 526.05 687.21 531.1"/><polygon class="cls-2" points="699.74 543.57 1212.84 32.58 1207.77 27.54 694.62 538.58 694.62 538.58 694.67 538.52 699.74 543.57"/><polygon class="cls-2" points="712.26 556.03 1225.36 45.05 1220.29 40.01 707.14 551.04 707.14 551.04 707.2 550.99 712.26 556.03"/><polygon class="cls-2" points="725.96 568.5 1239.06 57.52 1234 52.48 720.84 563.51 720.84 563.51 720.9 563.46 725.96 568.5"/><polygon class="cls-2" points="737.3 580.98 1250.4 69.99 1245.34 64.95 732.18 575.99 732.18 575.99 732.24 575.93 737.3 580.98"/><polygon class="cls-2" points="749.82 593.44 1262.92 82.46 1257.86 77.42 744.71 588.46 744.71 588.46 744.76 588.4 749.82 593.44"/><polygon class="cls-2" points="762.34 605.91 1275.44 94.93 1270.38 89.89 757.23 600.92 757.23 600.93 757.28 600.87 762.34 605.91"/><polygon class="cls-2" points="774.87 618.38 1287.97 107.4 1282.9 102.36 769.75 613.39 769.75 613.4 769.8 613.34 774.87 618.38"/><polygon class="cls-2" points="436.78 281.69 436.73 281.75 431.67 276.71 85.52 621.42 95.64 621.42 436.78 281.7 436.78 281.69"/><polygon class="cls-2" points="431.67 276.71 436.73 281.75 436.78 281.69 431.72 276.65 431.67 276.71"/><polygon class="cls-2" points="449.3 294.17 449.25 294.22 444.19 289.18 110.56 621.42 120.69 621.42 449.3 294.17 449.3 294.17"/><rect class="cls-2" x="446.71" y="288.1" width="0.08" height="7.14" transform="translate(-75.17 402.4) rotate(-45.12)"/><polygon class="cls-2" points="461.82 306.63 461.77 306.69 456.71 301.65 135.6 621.42 145.73 621.42 461.82 306.64 461.82 306.63"/><polygon class="cls-2" points="456.71 301.65 461.77 306.69 461.82 306.63 456.76 301.59 456.71 301.65"/><polygon class="cls-2" points="474.35 319.1 474.29 319.16 469.23 314.12 160.65 621.42 170.78 621.42 474.35 319.11 474.35 319.1"/><polygon class="cls-2" points="469.23 314.12 474.29 319.16 474.35 319.1 469.28 314.06 469.23 314.12"/><polygon class="cls-2" points="486.87 331.57 486.81 331.63 481.75 326.59 185.69 621.42 195.82 621.42 486.87 331.58 486.87 331.57"/><polygon class="cls-2" points="481.75 326.59 486.81 331.63 486.87 331.57 481.81 326.53 481.75 326.59"/><polygon class="cls-2" points="499.39 344.05 499.34 344.1 494.27 339.06 210.74 621.42 220.86 621.42 499.39 344.05 499.39 344.05"/><polygon class="cls-2" points="494.27 339.06 499.34 344.1 499.39 344.05 494.33 339 494.27 339.06"/><polygon class="cls-2" points="511.91 356.51 511.86 356.57 506.8 351.53 235.78 621.42 245.91 621.42 511.91 356.52 511.91 356.51"/><polygon class="cls-2" points="506.8 351.53 511.86 356.57 511.91 356.51 506.85 351.47 506.8 351.53"/><polygon class="cls-2" points="524.43 368.98 524.38 369.04 519.32 364 260.82 621.42 270.95 621.42 524.43 368.99 524.43 368.98"/><polygon class="cls-2" points="519.32 364 524.38 369.04 524.43 368.98 519.37 363.94 519.32 364"/><polygon class="cls-2" points="536.95 381.45 536.9 381.51 531.84 376.47 285.87 621.42 295.99 621.42 536.96 381.46 536.95 381.45"/><polygon class="cls-2" points="531.84 376.47 536.9 381.51 536.95 381.45 531.89 376.41 531.84 376.47"/><polygon class="cls-2" points="549.48 393.93 549.42 393.98 544.36 388.94 310.91 621.42 321.04 621.42 549.48 393.93 549.48 393.93"/><polygon class="cls-2" points="544.36 388.94 549.42 393.98 549.48 393.93 544.41 388.88 544.36 388.94"/><polygon class="cls-2" points="562 406.39 561.95 406.45 556.88 401.41 335.95 621.42 346.08 621.42 562 406.4 562 406.39"/><polygon class="cls-2" points="556.88 401.41 561.95 406.45 562 406.39 556.93 401.35 556.88 401.41"/><polygon class="cls-2" points="574.52 418.87 574.47 418.92 569.4 413.88 361 621.42 371.12 621.42 574.52 418.87 574.52 418.87"/><polygon class="cls-2" points="569.4 413.88 574.47 418.92 574.52 418.87 569.46 413.82 569.4 413.88"/><polygon class="cls-2" points="587.04 431.33 586.99 431.39 581.93 426.35 386.04 621.42 396.17 621.42 587.04 431.34 587.04 431.33"/><polygon class="cls-2" points="581.93 426.35 586.99 431.39 587.04 431.33 581.98 426.29 581.93 426.35"/><polygon class="cls-2" points="599.56 443.81 599.51 443.86 594.45 438.82 411.08 621.42 421.21 621.42 599.56 443.81 599.56 443.81"/><polygon class="cls-2" points="594.45 438.82 599.51 443.86 599.56 443.81 594.5 438.76 594.45 438.82"/><polygon class="cls-2" points="612.08 456.27 612.03 456.33 606.97 451.29 436.12 621.42 446.25 621.42 612.09 456.28 612.08 456.27"/><polygon class="cls-2" points="606.97 451.29 612.03 456.33 612.08 456.27 607.02 451.23 606.97 451.29"/><polygon class="cls-2" points="624.61 468.75 624.55 468.8 619.49 463.76 461.17 621.42 471.3 621.42 624.61 468.75 624.61 468.75"/><polygon class="cls-2" points="619.49 463.76 624.55 468.8 624.61 468.75 619.54 463.7 619.49 463.76"/><polygon class="cls-2" points="637.13 481.21 637.07 481.27 632.01 476.23 486.21 621.42 496.34 621.42 637.13 481.22 637.13 481.21"/><polygon class="cls-2" points="632.01 476.23 637.07 481.27 637.13 481.21 632.06 476.17 632.01 476.23"/><polygon class="cls-2" points="649.65 493.69 649.6 493.74 644.53 488.7 511.25 621.42 521.38 621.42 649.65 493.69 649.65 493.69"/><polygon class="cls-2" points="644.53 488.7 649.6 493.74 649.65 493.69 644.59 488.64 644.53 488.7"/><polygon class="cls-2" points="662.17 506.15 662.12 506.21 657.05 501.17 536.3 621.42 546.42 621.42 662.17 506.16 662.17 506.15"/><rect class="cls-2" x="659.58" y="500.09" width="0.07" height="7.15" transform="translate(-162.72 615.62) rotate(-45.12)"/><polygon class="cls-2" points="674.69 518.63 674.64 518.68 669.58 513.64 561.34 621.42 571.47 621.42 674.69 518.63 674.69 518.63"/><polygon class="cls-2" points="674.69 518.63 669.63 513.58 669.58 513.64 674.64 518.68 674.69 518.63"/><polygon class="cls-2" points="687.21 531.1 687.16 531.15 682.1 526.11 586.38 621.42 596.51 621.42 687.22 531.1 687.21 531.1"/><polygon class="cls-2" points="687.21 531.1 682.15 526.05 682.1 526.11 687.16 531.15 687.21 531.1"/><polygon class="cls-2" points="699.74 543.57 699.68 543.62 694.62 538.58 611.43 621.42 621.55 621.42 699.74 543.57 699.74 543.57"/><polygon class="cls-2" points="699.74 543.57 694.67 538.52 694.62 538.58 699.68 543.62 699.74 543.57"/><polygon class="cls-2" points="712.26 556.03 712.21 556.09 707.14 551.04 636.47 621.42 646.6 621.42 712.26 556.04 712.26 556.03"/><polygon class="cls-2" points="712.26 556.03 707.2 550.99 707.14 551.04 712.21 556.09 712.26 556.03"/><polygon class="cls-2" points="724.78 568.5 724.73 568.56 719.66 563.51 661.51 621.42 671.64 621.42 724.78 568.51 724.78 568.5"/><polygon class="cls-2" points="724.78 568.5 719.72 563.46 719.66 563.51 724.73 568.56 724.78 568.5"/><polygon class="cls-2" points="737.3 580.98 737.25 581.03 732.18 575.99 686.56 621.42 696.68 621.42 737.3 580.98 737.3 580.98"/><polygon class="cls-2" points="737.3 580.98 732.24 575.93 732.18 575.99 737.25 581.03 737.3 580.98"/><polygon class="cls-2" points="749.82 593.44 749.77 593.5 744.71 588.46 711.6 621.42 721.73 621.42 749.82 593.45 749.82 593.44"/><polygon class="cls-2" points="749.82 593.44 744.76 588.4 744.71 588.46 749.77 593.5 749.82 593.44"/></g></g></svg>