<svg xmlns="http://www.w3.org/2000/svg" viewBox="0 0 1400 581.31"><defs><style>.cls-1{fill:#ffcb64;}.cls-2{fill:#fcc;}.cls-2,.cls-3,.cls-4,.cls-5,.cls-6,.cls-7,.cls-8{opacity:0.2;}.cls-3,.cls-9{fill:#fff;}.cls-4{fill:#bae8df;}.cls-5{fill:#ff1f1f;}.cls-6{fill:#ffac1a;}.cls-10,.cls-7{fill:#ff681d;}</style></defs><title>fondofrutas</title><g id="Capa_2" data-name="Capa 2"><g id="Capa_1-2" data-name="Capa 1"><rect class="cls-1" width="1400" height="581.31"/><path class="cls-2" d="M366.53,183.4c1.17-4.18,2.11-8.73,1.6-13.09-.55-4.7-2.65-9.15-4.86-13.28-2.46-4.61-4.93-9.23-7.59-13.73a71.15,71.15,0,0,0-8.5-12,63.81,63.81,0,0,0-10.64-9.18,69.22,69.22,0,0,0-11.79-6.61,71.08,71.08,0,0,0-12.42-4.32c-4.12-.94-8.05-.52-12.19,0-2,.25-4,.52-6.06.65-.5,1.17-1,2.34-1.52,3.48q-10.41,23-20.84,46L261.46,184c-1.78,3.93-3.57,7.85-5.34,11.78-1.05,2.32-3.52,6.18-1.14,8.46a4.5,4.5,0,0,0,3.49.95c2-.15,3.95-.56,5.9-.84l6.33-1a686.7,686.7,0,0,0,81.73-11.84q5.7-1.17,11.38-2.46l.94-.21c.65-1.81,1.26-3.63,1.78-5.48"/><path class="cls-3" d="M297.76,184.3a34.77,34.77,0,0,1,6.63-4.51,18.27,18.27,0,0,1,7.53-2.28c2.19-.08,4.45.73,5.17,3a6.12,6.12,0,0,1-1.95,6.28,18.69,18.69,0,0,1-6.88,3.67c-.83.28-1.67.5-2.51.7a22.13,22.13,0,0,1-4.55,1c-2.11.23-5.06.4-6.23-1.82s1.27-4.68,2.79-6"/><path class="cls-3" d="M309,156.68c3.37-2.83,8.47-6.72,13.07-4.36a5.06,5.06,0,0,1,2.8,5.14c-.25,2.44-2,4.43-3.73,6a20.06,20.06,0,0,1-9.81,4.67,8.42,8.42,0,0,1-6.3-.19c-5.34-2.85,1.41-9.1,4-11.25"/><path class="cls-3" d="M285.9,191.71a23.47,23.47,0,0,1-7.62,3.15,31.51,31.51,0,0,1-3.87,1.43c-1.8.46-5,.91-5.53-1.57a4.63,4.63,0,0,1,.88-3.21,15.53,15.53,0,0,1,2.54-2.95,36.78,36.78,0,0,1,6.88-5.28c2-1.18,4.34-2.22,6.71-1.68a4.55,4.55,0,0,1,3.74,4.44c0,2.47-1.77,4.39-3.73,5.67"/><path class="cls-3" d="M291.7,152.22c2.15-1,4.74-1,6.37.94s1.54,4.89.39,7.12a12.18,12.18,0,0,1-1.48,2.21c-2.3,3.45-6.5,6-9.87,7.89a38.61,38.61,0,0,1-4.29,2.21,3,3,0,0,1-3,0c-1-.76-1-2.36-.91-3.49a11.84,11.84,0,0,1,1.25-3.88,32,32,0,0,1,5.09-7.69,21.3,21.3,0,0,1,6.47-5.29"/><path class="cls-4" d="M296.37,106.78c2-.24,4.05-.55,6-.78a34.3,34.3,0,0,1,7.51-.18,39.14,39.14,0,0,1,7.91,1.9,81,81,0,0,1,25.29,13.2,65.37,65.37,0,0,1,10.42,10.28,98.93,98.93,0,0,1,8.66,13.65c2.61,4.66,5.34,9.33,7.57,14.18a32.81,32.81,0,0,1,3.39,14.2,49.75,49.75,0,0,1-2.67,14.34,16.17,16.17,0,0,0,4.21-1.27c3-1.57,3.58-5.42,4-8.48a41.58,41.58,0,0,0,.31-9.26c-1-13.48-7.85-25.79-16.4-36a201.28,201.28,0,0,0-17.1-17.46q-4.35-4.06-8.67-8.17c-2.48-2.35-5.12-4.69-8.36-6s-6.91-1.35-10.42-1.36q-5.91,0-11.81.43A15.82,15.82,0,0,0,301,101a7.23,7.23,0,0,0-3.33,3.23c-.48.83-.91,1.68-1.34,2.55"/><path class="cls-5" d="M285.52,182.11c.71,1.34,1.44,3.13.94,4.65s-2.28,2.32-3.8,2.9a29.59,29.59,0,0,1-2.79,1.6,21.61,21.61,0,0,1-6,2.23c-1.55.25-3.28-.38-3.34-2.18s1.32-3.57,2.35-4.88a25.11,25.11,0,0,1,4.15-4.22,10.37,10.37,0,0,1,4.45-2.49c1.84-.29,3.21.85,4,2.39"/><path class="cls-5" d="M289.25,151.23c2.06-.47,3.64,1.31,4.8,2.75s2.26,3.27,1.16,5.09a9.27,9.27,0,0,1-2.14,2.19l-2.72,2.32L287.51,166a25.76,25.76,0,0,1-2.31,2l-.27.19-.31.27a1.86,1.86,0,0,1-.19.11,7.53,7.53,0,0,1-2.44,1.28,1.74,1.74,0,0,1-2.16-1,5.34,5.34,0,0,1,.2-2.74A29,29,0,0,1,285,155c1.07-1.47,2.38-3.32,4.26-3.74"/><path class="cls-5" d="M305.45,177.72c1.38-1.06,3-2.56,4.85-1.56a6.12,6.12,0,0,1,1.84,1.88,15.24,15.24,0,0,1,1.41,2.35,5,5,0,0,1-.29,5.06c-1.2,1.52-3.33,2.12-5.11,2.65a30.61,30.61,0,0,1-3.64.88,10.45,10.45,0,0,1-5.87,1.09,2.64,2.64,0,0,1-2.24-3.67c.59-1.82,2.25-3.21,3.67-4.41,1.75-1.46,3.55-2.89,5.38-4.27"/><path class="cls-5" d="M312.79,150.53a4.09,4.09,0,0,1,2.72-1.68,4.76,4.76,0,0,1,2.94,1,11.45,11.45,0,0,1,4.12,6.23,2.75,2.75,0,0,1-.7,3,22.35,22.35,0,0,1-3.12,2.46,27.8,27.8,0,0,1-7.18,3.45,20.82,20.82,0,0,1-3.9.9,3.66,3.66,0,0,1-1.74-.2,2,2,0,0,1-1.61-2,5.5,5.5,0,0,1,.81-3.23,10.36,10.36,0,0,1,1.17-2,1.18,1.18,0,0,1,.35-.29c.23-.31.47-.63.69-.91,1.7-2.33,3.53-4.57,5.45-6.72"/><path class="cls-6" d="M356.12,185.07a1.48,1.48,0,0,0,2.37-1.78,1.48,1.48,0,0,0-2.37,1.78"/><path class="cls-6" d="M345.26,187.05a1.48,1.48,0,0,0,2.37-1.78,1.48,1.48,0,0,0-2.37,1.78"/><path class="cls-6" d="M336.17,187a1.48,1.48,0,0,0,2.36-1.78,1.48,1.48,0,0,0-2.36,1.78"/><path class="cls-6" d="M348.66,177.6a1.48,1.48,0,0,0,2.36-1.78,1.48,1.48,0,0,0-2.36,1.78"/><path class="cls-6" d="M293.67,129.08A1.48,1.48,0,0,0,296,127.3a1.48,1.48,0,0,0-2.37,1.78"/><path class="cls-6" d="M297.8,120.26a1.48,1.48,0,0,0,2.36-1.78,1.48,1.48,0,0,0-2.36,1.78"/><path class="cls-6" d="M307.3,117.69a1.48,1.48,0,0,0,2.37-1.78,1.48,1.48,0,0,0-2.37,1.78"/><path class="cls-6" d="M304,125.45a1.48,1.48,0,0,0,2.37-1.78,1.48,1.48,0,0,0-2.37,1.78"/><path class="cls-3" d="M154.65,308.54c-2.18,4.3-5.79,7.72-9.57,10.62A56.08,56.08,0,0,1,134,325.81,58.81,58.81,0,0,1,108.63,331a55.77,55.77,0,0,1-13-1.8c-2.63-.69-5.21-1.52-7.89-2-2.43-.4-4.92-.43-6.66-2.47a20.39,20.39,0,0,1-2-3.1c-.67-1.19-1.33-2.37-2-3.56-1.32-2.37-2.59-4.77-3.84-7.18a123.56,123.56,0,0,1-6.17-13.26,48,48,0,0,1-3.26-13.48,30.46,30.46,0,0,1,2.12-13.91c3.64-8.9,11-16.12,19.08-21.1s18.08-7.62,27.44-4.82c8.09,2.41,14.78,9.22,15.81,17.77a28.77,28.77,0,0,1,4.3.88,33.62,33.62,0,0,1,20.61,17.87c4,8.32,5.84,19.07,1.49,27.63"/><path class="cls-7" d="M129.35,262.48a51.86,51.86,0,0,0-34.45,9.88,50,50,0,0,0-7.67,6.94c-.52.58.32,1.45.84.87a50.81,50.81,0,0,1,31.17-16.25,48.81,48.81,0,0,1,10.11-.22c.77.06.78-1.15,0-1.22"/><path class="cls-7" d="M94,254.4a1.21,1.21,0,0,0-.66,2.33A1.21,1.21,0,0,0,94,254.4"/><path class="cls-7" d="M101.59,252.35a1.22,1.22,0,0,0-.65,2.34,1.22,1.22,0,0,0,.65-2.34"/><path class="cls-7" d="M108.7,245.78a1.21,1.21,0,0,0-.66,2.33,1.21,1.21,0,0,0,.66-2.33"/><path class="cls-7" d="M92.32,315a1.21,1.21,0,0,0-.66,2.33,1.21,1.21,0,0,0,.66-2.33"/><path class="cls-7" d="M104.14,314.68a1.21,1.21,0,0,0-.65,2.33,1.21,1.21,0,0,0,.65-2.33"/><path class="cls-7" d="M106.7,324.85a1.21,1.21,0,0,0-.66,2.33,1.21,1.21,0,0,0,.66-2.33"/><path class="cls-7" d="M117.38,320.51a1.21,1.21,0,0,0-.66,2.33,1.21,1.21,0,0,0,.66-2.33"/><path class="cls-7" d="M99.24,322.75a1.21,1.21,0,0,0-.65,2.33,1.21,1.21,0,0,0,.65-2.33"/><path class="cls-7" d="M96.57,245.34a1.21,1.21,0,0,0-.66,2.33,1.21,1.21,0,0,0,.66-2.33"/><path class="cls-4" d="M169,252.57c-1.69,1.74-4.38,2.16-6.64,2.64-2.92.64-5.87,1.14-8.83,1.61-6.12.94-12.26,1.74-18.39,2.58a.64.64,0,0,1-.65-1,.73.73,0,0,1,.15-.39,48.12,48.12,0,0,1,13.61-10.49,46.11,46.11,0,0,1,7.08-3,20.52,20.52,0,0,1,7.91-1.19c2.36.2,5.16,1,6.46,3.17a5,5,0,0,1-.7,6"/><path class="cls-4" d="M139.58,235.92c-1.21,8.76-3.31,17.76-9.32,24.57a.49.49,0,0,1-.66.1.47.47,0,0,1-.39-.55c1.18-9.66-.73-19.31-3.41-28.57-1.18-4.09-2.59-8.13-3.56-12.28-.88-3.76-1.62-8.05-.76-11.88a5.66,5.66,0,0,1,3.08-4.08,7.82,7.82,0,0,1,5.08-.17,14.41,14.41,0,0,1,8.74,7.28A24.5,24.5,0,0,1,140.93,222a102,102,0,0,1-1.35,13.95"/><path class="cls-7" d="M157,251.45a72.4,72.4,0,0,0-26.31,8.05,68,68,0,0,0,1.79-31.1,66.75,66.75,0,0,0-2.43-9.57c-.25-.74-1.42-.44-1.18.3a66.4,66.4,0,0,1-.34,43.13c-.26.73.9,1.06,1.16.33.17-.48.33-1,.49-1.45A70.85,70.85,0,0,1,157,252.66c.77-.08.79-1.29,0-1.21"/><g class="cls-8"><path class="cls-9" d="M186.17,85c-.54,6.68-4.38,11.81-7.88,17.25-3.33,5.2-6.22,10.67-10.17,15.45-8.06,9.74-20.79,15.09-32.54,18.92a78.07,78.07,0,0,1-19.79,3.87c-3.52.2-7.07.2-10.62.05A44.82,44.82,0,0,1,96.46,147c-5,2.7-10-.78-14-3.71a49.54,49.54,0,0,1-6.08-5.22c-1.72-1.75-3.44-3.73-3.7-6.27-.44-4.17,3.09-7,4.55-10.6-.66-2.39-1.23-4.79-1.81-7.13a152.92,152.92,0,0,1-3.88-20.49c-.7-6.59-.48-13.36,1.71-19.67,4-11.37,12.86-20.17,21.37-28.31,4.53-4.34,9.3-8.57,14.88-11.5a48.55,48.55,0,0,1,17.72-5c10.84-1.13,21.63.54,32.43,1.62,3.47-.11,7-.47,10.5-.3A6.14,6.14,0,0,1,176,34.51a85,85,0,0,1,2.8,9.37c1.89,6.87,3.55,13.81,4.91,20.82.68,3.45,1.27,6.93,1.78,10.41a43.93,43.93,0,0,1,.67,9.91"/><path class="cls-10" d="M77.69,98.17a1.82,1.82,0,0,0,0,3.63,1.82,1.82,0,0,0,0-3.63"/><path class="cls-10" d="M85.1,95.14a1.82,1.82,0,0,0,0,3.63,1.82,1.82,0,0,0,0-3.63"/><path class="cls-10" d="M95.21,81.66a1.82,1.82,0,0,0,0,3.64,1.82,1.82,0,0,0,0-3.64"/><path class="cls-10" d="M81.06,74.92a1.82,1.82,0,0,0,0,3.64,1.82,1.82,0,0,0,0-3.64"/><path class="cls-10" d="M95.21,94.8a1.82,1.82,0,0,0,0,3.64,1.82,1.82,0,0,0,0-3.64"/><path class="cls-10" d="M87.46,109.29a1.82,1.82,0,0,0,0,3.63,1.82,1.82,0,0,0,0-3.63"/><path class="cls-10" d="M172.36,56.73a1.82,1.82,0,0,0,0,3.64,1.82,1.82,0,0,0,0-3.64"/><path class="cls-10" d="M177.74,70.88a1.82,1.82,0,0,0,0,3.64,1.82,1.82,0,0,0,0-3.64"/><path class="cls-10" d="M168.31,87.05a1.82,1.82,0,0,0,0,3.64,1.82,1.82,0,0,0,0-3.64"/><path class="cls-10" d="M167.64,68.52a1.82,1.82,0,0,0,0,3.64,1.82,1.82,0,0,0,0-3.64"/><path class="cls-10" d="M155.51,82.67a1.82,1.82,0,0,0,0,3.64,1.82,1.82,0,0,0,0-3.64"/><path class="cls-10" d="M159.55,100.53a1.82,1.82,0,0,0,0,3.63,1.82,1.82,0,0,0,0-3.63"/><path class="cls-10" d="M156.18,59.09a1.82,1.82,0,0,0,0,3.63,1.82,1.82,0,0,0,0-3.63"/><path class="cls-10" d="M91.74,141.55c-1.76-5.08-6.56-7.84-11.12-10.1a1.92,1.92,0,0,0-2.29.37,1.88,1.88,0,0,0-1.54.9,1.91,1.91,0,0,0,.28,2.21,33.67,33.67,0,0,0,12,8.68,1.87,1.87,0,0,0,2-.15,1.8,1.8,0,0,0,.65-1.91"/></g><path class="cls-2" d="M858.53,183.4c1.17-4.18,2.11-8.73,1.6-13.09-.55-4.7-2.65-9.15-4.86-13.28-2.46-4.61-4.93-9.23-7.59-13.73a71.15,71.15,0,0,0-8.5-12,63.81,63.81,0,0,0-10.64-9.18,69.22,69.22,0,0,0-11.79-6.61,71.08,71.08,0,0,0-12.42-4.32c-4.12-.94-8.05-.52-12.19,0-2,.25-4,.52-6.06.65-.5,1.17-1,2.34-1.52,3.48q-10.41,23-20.84,46L753.46,184c-1.78,3.93-3.57,7.85-5.34,11.78-1,2.32-3.52,6.18-1.14,8.46a4.5,4.5,0,0,0,3.49.95c2-.15,3.95-.56,5.9-.84l6.33-1a686.7,686.7,0,0,0,81.73-11.84q5.7-1.17,11.38-2.46l.94-.21c.65-1.81,1.26-3.63,1.78-5.48"/><path class="cls-3" d="M789.76,184.3a34.77,34.77,0,0,1,6.63-4.51,18.27,18.27,0,0,1,7.53-2.28c2.19-.08,4.45.73,5.17,3a6.12,6.12,0,0,1-2,6.28,18.69,18.69,0,0,1-6.88,3.67c-.83.28-1.67.5-2.51.7a22.13,22.13,0,0,1-4.55,1c-2.11.23-5.06.4-6.23-1.82s1.27-4.68,2.79-6"/><path class="cls-3" d="M801,156.68c3.37-2.83,8.47-6.72,13.07-4.36a5.06,5.06,0,0,1,2.8,5.14c-.25,2.44-2,4.43-3.73,6a20.06,20.06,0,0,1-9.81,4.67,8.42,8.42,0,0,1-6.3-.19c-5.34-2.85,1.41-9.1,4-11.25"/><path class="cls-3" d="M777.9,191.71a23.47,23.47,0,0,1-7.62,3.15,31.51,31.51,0,0,1-3.87,1.43c-1.8.46-5,.91-5.53-1.57a4.63,4.63,0,0,1,.88-3.21,15.53,15.53,0,0,1,2.54-2.95,36.78,36.78,0,0,1,6.88-5.28c2-1.18,4.34-2.22,6.71-1.68a4.55,4.55,0,0,1,3.74,4.44c0,2.47-1.77,4.39-3.73,5.67"/><path class="cls-3" d="M783.7,152.22c2.15-1,4.74-1,6.37.94s1.54,4.89.39,7.12a12.18,12.18,0,0,1-1.48,2.21c-2.3,3.45-6.5,6-9.87,7.89a38.61,38.61,0,0,1-4.29,2.21,3,3,0,0,1-3,0c-1-.76-1-2.36-.91-3.49a11.84,11.84,0,0,1,1.25-3.88,32,32,0,0,1,5.09-7.69,21.3,21.3,0,0,1,6.47-5.29"/><path class="cls-4" d="M788.37,106.78c2-.24,4-.55,6-.78a34.3,34.3,0,0,1,7.51-.18,39.14,39.14,0,0,1,7.91,1.9,81,81,0,0,1,25.29,13.2,65.37,65.37,0,0,1,10.42,10.28,98.93,98.93,0,0,1,8.66,13.65c2.61,4.66,5.34,9.33,7.57,14.18a32.81,32.81,0,0,1,3.39,14.2,49.75,49.75,0,0,1-2.67,14.34,16.17,16.17,0,0,0,4.21-1.27c3-1.57,3.58-5.42,4-8.48a41.58,41.58,0,0,0,.31-9.26c-1-13.48-7.85-25.79-16.4-36a201.28,201.28,0,0,0-17.1-17.46q-4.35-4.06-8.67-8.17c-2.48-2.35-5.12-4.69-8.36-6s-6.91-1.35-10.42-1.36q-5.91,0-11.81.43A15.82,15.82,0,0,0,793,101a7.23,7.23,0,0,0-3.33,3.23c-.48.83-.91,1.68-1.34,2.55"/><path class="cls-5" d="M777.52,182.11c.71,1.34,1.44,3.13.94,4.65s-2.28,2.32-3.8,2.9a29.59,29.59,0,0,1-2.79,1.6,21.61,21.61,0,0,1-6,2.23c-1.55.25-3.28-.38-3.34-2.18s1.32-3.57,2.35-4.88a25.11,25.11,0,0,1,4.15-4.22,10.37,10.37,0,0,1,4.45-2.49c1.84-.29,3.21.85,4,2.39"/><path class="cls-5" d="M781.25,151.23c2.06-.47,3.64,1.31,4.8,2.75s2.26,3.27,1.16,5.09a9.27,9.27,0,0,1-2.14,2.19l-2.72,2.32L779.51,166a25.76,25.76,0,0,1-2.31,2l-.27.19-.31.27a1.86,1.86,0,0,1-.19.11,7.53,7.53,0,0,1-2.44,1.28,1.74,1.74,0,0,1-2.16-1,5.34,5.34,0,0,1,.2-2.74A29,29,0,0,1,777,155c1.07-1.47,2.38-3.32,4.26-3.74"/><path class="cls-5" d="M797.45,177.72c1.38-1.06,3-2.56,4.85-1.56a6.12,6.12,0,0,1,1.84,1.88,15.24,15.24,0,0,1,1.41,2.35,5,5,0,0,1-.29,5.06c-1.2,1.52-3.33,2.12-5.11,2.65a30.61,30.61,0,0,1-3.64.88,10.45,10.45,0,0,1-5.87,1.09,2.64,2.64,0,0,1-2.24-3.67c.59-1.82,2.25-3.21,3.67-4.41,1.75-1.46,3.55-2.89,5.38-4.27"/><path class="cls-5" d="M804.79,150.53a4.09,4.09,0,0,1,2.72-1.68,4.76,4.76,0,0,1,2.94,1,11.45,11.45,0,0,1,4.12,6.23,2.75,2.75,0,0,1-.7,3,22.35,22.35,0,0,1-3.12,2.46,27.8,27.8,0,0,1-7.18,3.45,20.82,20.82,0,0,1-3.9.9,3.66,3.66,0,0,1-1.74-.2,2,2,0,0,1-1.61-2,5.5,5.5,0,0,1,.81-3.23,10.36,10.36,0,0,1,1.17-2,1.18,1.18,0,0,1,.35-.29c.23-.31.47-.63.69-.91,1.7-2.33,3.53-4.57,5.45-6.72"/><path class="cls-6" d="M848.12,185.07a1.48,1.48,0,0,0,2.37-1.78,1.48,1.48,0,0,0-2.37,1.78"/><path class="cls-6" d="M837.26,187.05a1.48,1.48,0,0,0,2.37-1.78,1.48,1.48,0,0,0-2.37,1.78"/><path class="cls-6" d="M828.17,187a1.48,1.48,0,0,0,2.36-1.78,1.48,1.48,0,0,0-2.36,1.78"/><path class="cls-6" d="M840.66,177.6a1.48,1.48,0,0,0,2.36-1.78,1.48,1.48,0,0,0-2.36,1.78"/><path class="cls-6" d="M785.67,129.08A1.48,1.48,0,0,0,788,127.3a1.48,1.48,0,0,0-2.37,1.78"/><path class="cls-6" d="M789.8,120.26a1.48,1.48,0,0,0,2.36-1.78,1.48,1.48,0,0,0-2.36,1.78"/><path class="cls-6" d="M799.3,117.69a1.48,1.48,0,0,0,2.37-1.78,1.48,1.48,0,0,0-2.37,1.78"/><path class="cls-6" d="M796,125.45a1.48,1.48,0,0,0,2.37-1.78,1.48,1.48,0,0,0-2.37,1.78"/><path class="cls-3" d="M646.65,308.54c-2.18,4.3-5.79,7.72-9.57,10.62A56.08,56.08,0,0,1,626,325.81,58.81,58.81,0,0,1,600.63,331a55.77,55.77,0,0,1-13-1.8c-2.63-.69-5.21-1.52-7.89-2-2.43-.4-4.92-.43-6.66-2.47a20.39,20.39,0,0,1-2-3.1c-.67-1.19-1.33-2.37-2-3.56-1.32-2.37-2.59-4.77-3.84-7.18a123.56,123.56,0,0,1-6.17-13.26,48,48,0,0,1-3.26-13.48,30.46,30.46,0,0,1,2.12-13.91c3.64-8.9,11-16.12,19.08-21.1s18.08-7.62,27.44-4.82c8.09,2.41,14.78,9.22,15.81,17.77a28.77,28.77,0,0,1,4.3.88,33.62,33.62,0,0,1,20.61,17.87c4,8.32,5.84,19.07,1.49,27.63"/><path class="cls-7" d="M621.35,262.48a51.86,51.86,0,0,0-34.45,9.88,50,50,0,0,0-7.67,6.94c-.52.58.32,1.45.84.87a50.81,50.81,0,0,1,31.17-16.25,48.81,48.81,0,0,1,10.11-.22c.77.06.78-1.15,0-1.22"/><path class="cls-7" d="M586,254.4a1.21,1.21,0,0,0-.66,2.33,1.21,1.21,0,0,0,.66-2.33"/><path class="cls-7" d="M593.59,252.35a1.22,1.22,0,0,0-.65,2.34,1.22,1.22,0,0,0,.65-2.34"/><path class="cls-7" d="M600.7,245.78a1.21,1.21,0,0,0-.66,2.33,1.21,1.21,0,0,0,.66-2.33"/><path class="cls-7" d="M584.32,315a1.21,1.21,0,0,0-.66,2.33,1.21,1.21,0,0,0,.66-2.33"/><path class="cls-7" d="M596.14,314.68a1.21,1.21,0,0,0-.65,2.33,1.21,1.21,0,0,0,.65-2.33"/><path class="cls-7" d="M598.7,324.85a1.21,1.21,0,0,0-.66,2.33,1.21,1.21,0,0,0,.66-2.33"/><path class="cls-7" d="M609.38,320.51a1.21,1.21,0,0,0-.66,2.33,1.21,1.21,0,0,0,.66-2.33"/><path class="cls-7" d="M591.24,322.75a1.21,1.21,0,0,0-.65,2.33,1.21,1.21,0,0,0,.65-2.33"/><path class="cls-7" d="M588.57,245.34a1.21,1.21,0,0,0-.66,2.33,1.21,1.21,0,0,0,.66-2.33"/><path class="cls-4" d="M661,252.57c-1.69,1.74-4.38,2.16-6.64,2.64-2.92.64-5.87,1.14-8.83,1.61-6.12.94-12.26,1.74-18.39,2.58a.64.64,0,0,1-.65-1,.73.73,0,0,1,.15-.39,48.12,48.12,0,0,1,13.61-10.49,46.11,46.11,0,0,1,7.08-3,20.52,20.52,0,0,1,7.91-1.19c2.36.2,5.16,1,6.46,3.17a5,5,0,0,1-.7,6"/><path class="cls-4" d="M631.58,235.92c-1.21,8.76-3.31,17.76-9.32,24.57a.49.49,0,0,1-.66.1.47.47,0,0,1-.39-.55c1.18-9.66-.73-19.31-3.41-28.57-1.18-4.09-2.59-8.13-3.56-12.28-.88-3.76-1.62-8.05-.76-11.88a5.66,5.66,0,0,1,3.08-4.08,7.82,7.82,0,0,1,5.08-.17,14.41,14.41,0,0,1,8.74,7.28A24.5,24.5,0,0,1,632.93,222a102,102,0,0,1-1.35,13.95"/><path class="cls-7" d="M649,251.45a72.4,72.4,0,0,0-26.31,8.05,68,68,0,0,0,1.79-31.1,66.75,66.75,0,0,0-2.43-9.57c-.25-.74-1.42-.44-1.18.3a66.4,66.4,0,0,1-.34,43.13c-.26.73.9,1.06,1.16.33.17-.48.33-1,.49-1.45A70.85,70.85,0,0,1,649,252.66c.77-.08.79-1.29,0-1.21"/><g class="cls-8"><path class="cls-9" d="M678.17,85c-.54,6.68-4.38,11.81-7.88,17.25-3.33,5.2-6.22,10.67-10.17,15.45-8.06,9.74-20.79,15.09-32.54,18.92a78.07,78.07,0,0,1-19.79,3.87c-3.52.2-7.07.2-10.62.05a44.82,44.82,0,0,1-8.71,6.45c-5,2.7-10-.78-14-3.71a49.54,49.54,0,0,1-6.08-5.22c-1.72-1.75-3.44-3.73-3.7-6.27-.44-4.17,3.09-7,4.55-10.6-.66-2.39-1.23-4.79-1.81-7.13a152.92,152.92,0,0,1-3.88-20.49c-.7-6.59-.48-13.36,1.71-19.67,4-11.37,12.86-20.17,21.37-28.31,4.53-4.34,9.3-8.57,14.88-11.5a48.55,48.55,0,0,1,17.72-5c10.84-1.13,21.63.54,32.43,1.62,3.47-.11,7-.47,10.5-.3A6.14,6.14,0,0,1,668,34.51a85,85,0,0,1,2.8,9.37c1.89,6.87,3.55,13.81,4.91,20.82.68,3.45,1.27,6.93,1.78,10.41a43.93,43.93,0,0,1,.67,9.91"/><path class="cls-10" d="M569.69,98.17a1.82,1.82,0,0,0,0,3.63,1.82,1.82,0,0,0,0-3.63"/><path class="cls-10" d="M577.1,95.14a1.82,1.82,0,0,0,0,3.63,1.82,1.82,0,0,0,0-3.63"/><path class="cls-10" d="M587.21,81.66a1.82,1.82,0,0,0,0,3.64,1.82,1.82,0,0,0,0-3.64"/><path class="cls-10" d="M573.06,74.92a1.82,1.82,0,0,0,0,3.64,1.82,1.82,0,0,0,0-3.64"/><path class="cls-10" d="M587.21,94.8a1.82,1.82,0,0,0,0,3.64,1.82,1.82,0,0,0,0-3.64"/><path class="cls-10" d="M579.46,109.29a1.82,1.82,0,0,0,0,3.63,1.82,1.82,0,0,0,0-3.63"/><path class="cls-10" d="M664.36,56.73a1.82,1.82,0,0,0,0,3.64,1.82,1.82,0,0,0,0-3.64"/><path class="cls-10" d="M669.74,70.88a1.82,1.82,0,0,0,0,3.64,1.82,1.82,0,0,0,0-3.64"/><path class="cls-10" d="M660.31,87.05a1.82,1.82,0,0,0,0,3.64,1.82,1.82,0,0,0,0-3.64"/><path class="cls-10" d="M659.64,68.52a1.82,1.82,0,0,0,0,3.64,1.82,1.82,0,0,0,0-3.64"/><path class="cls-10" d="M647.51,82.67a1.82,1.82,0,0,0,0,3.64,1.82,1.82,0,0,0,0-3.64"/><path class="cls-10" d="M651.55,100.53a1.82,1.82,0,0,0,0,3.63,1.82,1.82,0,0,0,0-3.63"/><path class="cls-10" d="M648.18,59.09a1.82,1.82,0,0,0,0,3.63,1.82,1.82,0,0,0,0-3.63"/><path class="cls-10" d="M583.74,141.55c-1.76-5.08-6.56-7.84-11.12-10.1a1.92,1.92,0,0,0-2.29.37,1.88,1.88,0,0,0-1.54.9,1.91,1.91,0,0,0,.28,2.21,33.67,33.67,0,0,0,12,8.68,1.87,1.87,0,0,0,2-.15,1.8,1.8,0,0,0,.65-1.91"/></g><path class="cls-2" d="M1309.53,183.4c1.17-4.18,2.11-8.73,1.6-13.09-.55-4.7-2.65-9.15-4.86-13.28-2.46-4.61-4.93-9.23-7.59-13.73a71.15,71.15,0,0,0-8.5-12,63.81,63.81,0,0,0-10.64-9.18,69.22,69.22,0,0,0-11.79-6.61,71.08,71.08,0,0,0-12.42-4.32c-4.12-.94-8-.52-12.19,0-2,.25-4,.52-6.06.65-.5,1.17-1,2.34-1.52,3.48q-10.41,23-20.84,46L1204.46,184c-1.78,3.93-3.57,7.85-5.34,11.78-1,2.32-3.52,6.18-1.14,8.46a4.5,4.5,0,0,0,3.49.95c2-.15,4-.56,5.9-.84l6.33-1a686.7,686.7,0,0,0,81.73-11.84q5.7-1.17,11.38-2.46l.94-.21c.65-1.81,1.26-3.63,1.78-5.48"/><path class="cls-3" d="M1240.76,184.3a34.77,34.77,0,0,1,6.63-4.51,18.27,18.27,0,0,1,7.53-2.28c2.19-.08,4.45.73,5.17,3a6.12,6.12,0,0,1-1.95,6.28,18.69,18.69,0,0,1-6.88,3.67c-.83.28-1.67.5-2.51.7a22.13,22.13,0,0,1-4.55,1c-2.11.23-5.06.4-6.23-1.82s1.27-4.68,2.79-6"/><path class="cls-3" d="M1252,156.68c3.37-2.83,8.47-6.72,13.07-4.36a5.06,5.06,0,0,1,2.8,5.14c-.25,2.44-2,4.43-3.73,6a20.06,20.06,0,0,1-9.81,4.67,8.42,8.42,0,0,1-6.3-.19c-5.34-2.85,1.41-9.1,4-11.25"/><path class="cls-3" d="M1228.9,191.71a23.47,23.47,0,0,1-7.62,3.15,31.51,31.51,0,0,1-3.87,1.43c-1.8.46-5,.91-5.53-1.57a4.63,4.63,0,0,1,.88-3.21,15.53,15.53,0,0,1,2.54-2.95,36.78,36.78,0,0,1,6.88-5.28c2-1.18,4.34-2.22,6.71-1.68a4.55,4.55,0,0,1,3.74,4.44c0,2.47-1.77,4.39-3.73,5.67"/><path class="cls-3" d="M1234.7,152.22c2.15-1,4.74-1,6.37.94s1.54,4.89.39,7.12a12.18,12.18,0,0,1-1.48,2.21c-2.3,3.45-6.5,6-9.87,7.89a38.61,38.61,0,0,1-4.29,2.21,3,3,0,0,1-3,0c-1-.76-1-2.36-.91-3.49a11.84,11.84,0,0,1,1.25-3.88,32,32,0,0,1,5.09-7.69,21.3,21.3,0,0,1,6.47-5.29"/><path class="cls-4" d="M1239.37,106.78c2-.24,4.05-.55,6-.78a34.3,34.3,0,0,1,7.51-.18,39.14,39.14,0,0,1,7.91,1.9,81,81,0,0,1,25.29,13.2,65.37,65.37,0,0,1,10.42,10.28,98.93,98.93,0,0,1,8.66,13.65c2.61,4.66,5.34,9.33,7.57,14.18a32.81,32.81,0,0,1,3.39,14.2,49.75,49.75,0,0,1-2.67,14.34,16.17,16.17,0,0,0,4.21-1.27c3-1.57,3.58-5.42,4-8.48a41.58,41.58,0,0,0,.31-9.26c-1-13.48-7.85-25.79-16.4-36a201.28,201.28,0,0,0-17.1-17.46q-4.35-4.06-8.67-8.17c-2.48-2.35-5.12-4.69-8.36-6s-6.91-1.35-10.42-1.36q-5.91,0-11.81.43a15.82,15.82,0,0,0-5.24.91,7.23,7.23,0,0,0-3.33,3.23c-.48.83-.91,1.68-1.34,2.55"/><path class="cls-5" d="M1228.52,182.11c.71,1.34,1.44,3.13.94,4.65s-2.28,2.32-3.8,2.9a29.59,29.59,0,0,1-2.79,1.6,21.61,21.61,0,0,1-6,2.23c-1.55.25-3.28-.38-3.34-2.18s1.32-3.57,2.35-4.88a25.11,25.11,0,0,1,4.15-4.22,10.37,10.37,0,0,1,4.45-2.49c1.84-.29,3.21.85,4,2.39"/><path class="cls-5" d="M1232.25,151.23c2.06-.47,3.64,1.31,4.8,2.75s2.26,3.27,1.16,5.09a9.27,9.27,0,0,1-2.14,2.19l-2.72,2.32-2.84,2.41a25.76,25.76,0,0,1-2.31,2l-.27.19-.31.27a1.86,1.86,0,0,1-.19.11,7.53,7.53,0,0,1-2.44,1.28,1.74,1.74,0,0,1-2.16-1,5.34,5.34,0,0,1,.2-2.74,29,29,0,0,1,5-11.17c1.07-1.47,2.38-3.32,4.26-3.74"/><path class="cls-5" d="M1248.45,177.72c1.38-1.06,3-2.56,4.85-1.56a6.12,6.12,0,0,1,1.84,1.88,15.24,15.24,0,0,1,1.41,2.35,5,5,0,0,1-.29,5.06c-1.2,1.52-3.33,2.12-5.11,2.65a30.61,30.61,0,0,1-3.64.88,10.45,10.45,0,0,1-5.87,1.09,2.64,2.64,0,0,1-2.24-3.67c.59-1.82,2.25-3.21,3.67-4.41,1.75-1.46,3.55-2.89,5.38-4.27"/><path class="cls-5" d="M1255.79,150.53a4.09,4.09,0,0,1,2.72-1.68,4.76,4.76,0,0,1,2.94,1,11.45,11.45,0,0,1,4.12,6.23,2.75,2.75,0,0,1-.7,3,22.35,22.35,0,0,1-3.12,2.46,27.8,27.8,0,0,1-7.18,3.45,20.82,20.82,0,0,1-3.9.9,3.66,3.66,0,0,1-1.74-.2,2,2,0,0,1-1.61-2,5.5,5.5,0,0,1,.81-3.23,10.36,10.36,0,0,1,1.17-2,1.18,1.18,0,0,1,.35-.29c.23-.31.47-.63.69-.91,1.7-2.33,3.53-4.57,5.45-6.72"/><path class="cls-6" d="M1299.12,185.07a1.48,1.48,0,0,0,2.37-1.78,1.48,1.48,0,0,0-2.37,1.78"/><path class="cls-6" d="M1288.26,187.05a1.48,1.48,0,0,0,2.37-1.78,1.48,1.48,0,0,0-2.37,1.78"/><path class="cls-6" d="M1279.17,187a1.48,1.48,0,0,0,2.36-1.78,1.48,1.48,0,0,0-2.36,1.78"/><path class="cls-6" d="M1291.66,177.6a1.48,1.48,0,0,0,2.36-1.78,1.48,1.48,0,0,0-2.36,1.78"/><path class="cls-6" d="M1236.67,129.08a1.48,1.48,0,0,0,2.37-1.78,1.48,1.48,0,0,0-2.37,1.78"/><path class="cls-6" d="M1240.8,120.26a1.48,1.48,0,0,0,2.36-1.78,1.48,1.48,0,0,0-2.36,1.78"/><path class="cls-6" d="M1250.3,117.69a1.48,1.48,0,0,0,2.37-1.78,1.48,1.48,0,0,0-2.37,1.78"/><path class="cls-6" d="M1247,125.45a1.48,1.48,0,0,0,2.37-1.78,1.48,1.48,0,0,0-2.37,1.78"/><path class="cls-3" d="M1097.65,308.54c-2.18,4.3-5.79,7.72-9.57,10.62a56.08,56.08,0,0,1-11.11,6.65,58.81,58.81,0,0,1-25.34,5.21,55.77,55.77,0,0,1-13.05-1.8c-2.63-.69-5.21-1.52-7.89-2-2.43-.4-4.92-.43-6.66-2.47a20.39,20.39,0,0,1-2-3.1c-.67-1.19-1.33-2.37-2-3.56-1.32-2.37-2.59-4.77-3.84-7.18a123.56,123.56,0,0,1-6.17-13.26,48,48,0,0,1-3.26-13.48,30.46,30.46,0,0,1,2.12-13.91c3.64-8.9,11-16.12,19.08-21.1s18.08-7.62,27.44-4.82c8.09,2.41,14.78,9.22,15.81,17.77a28.77,28.77,0,0,1,4.3.88,33.62,33.62,0,0,1,20.61,17.87c4,8.32,5.84,19.07,1.49,27.63"/><path class="cls-7" d="M1072.35,262.48a51.86,51.86,0,0,0-34.45,9.88,50,50,0,0,0-7.67,6.94c-.52.58.32,1.45.84.87a50.81,50.81,0,0,1,31.17-16.25,48.81,48.81,0,0,1,10.11-.22c.77.06.78-1.15,0-1.22"/><path class="cls-7" d="M1037,254.4a1.21,1.21,0,0,0-.66,2.33,1.21,1.21,0,0,0,.66-2.33"/><path class="cls-7" d="M1044.59,252.35a1.22,1.22,0,0,0-.65,2.34,1.22,1.22,0,0,0,.65-2.34"/><path class="cls-7" d="M1051.7,245.78a1.21,1.21,0,0,0-.66,2.33,1.21,1.21,0,0,0,.66-2.33"/><path class="cls-7" d="M1035.32,315a1.21,1.21,0,0,0-.66,2.33,1.21,1.21,0,0,0,.66-2.33"/><path class="cls-7" d="M1047.14,314.68a1.21,1.21,0,0,0-.65,2.33,1.21,1.21,0,0,0,.65-2.33"/><path class="cls-7" d="M1049.7,324.85a1.21,1.21,0,0,0-.66,2.33,1.21,1.21,0,0,0,.66-2.33"/><path class="cls-7" d="M1060.38,320.51a1.21,1.21,0,0,0-.66,2.33,1.21,1.21,0,0,0,.66-2.33"/><path class="cls-7" d="M1042.24,322.75a1.21,1.21,0,0,0-.65,2.33,1.21,1.21,0,0,0,.65-2.33"/><path class="cls-7" d="M1039.57,245.34a1.21,1.21,0,0,0-.66,2.33,1.21,1.21,0,0,0,.66-2.33"/><path class="cls-4" d="M1112,252.57c-1.69,1.74-4.38,2.16-6.64,2.64-2.92.64-5.87,1.14-8.83,1.61-6.12.94-12.26,1.74-18.39,2.58a.64.64,0,0,1-.65-1,.73.73,0,0,1,.15-.39,48.12,48.12,0,0,1,13.61-10.49,46.11,46.11,0,0,1,7.08-3,20.52,20.52,0,0,1,7.91-1.19c2.36.2,5.16,1,6.46,3.17a5,5,0,0,1-.7,6"/><path class="cls-4" d="M1082.58,235.92c-1.21,8.76-3.31,17.76-9.32,24.57a.49.49,0,0,1-.66.1.47.47,0,0,1-.39-.55c1.18-9.66-.73-19.31-3.41-28.57-1.18-4.09-2.59-8.13-3.56-12.28-.88-3.76-1.62-8.05-.76-11.88a5.66,5.66,0,0,1,3.08-4.08,7.82,7.82,0,0,1,5.08-.17,14.41,14.41,0,0,1,8.74,7.28,24.5,24.5,0,0,1,2.55,11.63,102,102,0,0,1-1.35,13.95"/><path class="cls-7" d="M1100,251.45a72.4,72.4,0,0,0-26.31,8.05,68,68,0,0,0,1.79-31.1,66.75,66.75,0,0,0-2.43-9.57c-.25-.74-1.42-.44-1.18.3a66.4,66.4,0,0,1-.34,43.13c-.26.73.9,1.06,1.16.33.17-.48.33-1,.49-1.45a70.85,70.85,0,0,1,26.81-8.48c.77-.08.79-1.29,0-1.21"/><g class="cls-8"><path class="cls-9" d="M1129.17,85c-.54,6.68-4.38,11.81-7.88,17.25-3.33,5.2-6.22,10.67-10.17,15.45-8.06,9.74-20.79,15.09-32.54,18.92a78.07,78.07,0,0,1-19.79,3.87c-3.52.2-7.07.2-10.62.05a44.82,44.82,0,0,1-8.71,6.45c-5,2.7-10-.78-14-3.71a49.54,49.54,0,0,1-6.08-5.22c-1.72-1.75-3.44-3.73-3.7-6.27-.44-4.17,3.09-7,4.55-10.6-.66-2.39-1.23-4.79-1.81-7.13a152.92,152.92,0,0,1-3.88-20.49c-.7-6.59-.48-13.36,1.71-19.67,4-11.37,12.86-20.17,21.37-28.31,4.53-4.34,9.3-8.57,14.88-11.5a48.55,48.55,0,0,1,17.72-5c10.84-1.13,21.63.54,32.43,1.62,3.47-.11,7-.47,10.5-.3a6.14,6.14,0,0,1,5.83,4.12,85,85,0,0,1,2.8,9.37c1.89,6.87,3.55,13.81,4.91,20.82.68,3.45,1.27,6.93,1.78,10.41a43.93,43.93,0,0,1,.67,9.91"/><path class="cls-10" d="M1020.69,98.17a1.82,1.82,0,0,0,0,3.63,1.82,1.82,0,0,0,0-3.63"/><path class="cls-10" d="M1028.1,95.14a1.82,1.82,0,0,0,0,3.63,1.82,1.82,0,0,0,0-3.63"/><path class="cls-10" d="M1038.21,81.66a1.82,1.82,0,0,0,0,3.64,1.82,1.82,0,0,0,0-3.64"/><path class="cls-10" d="M1024.06,74.92a1.82,1.82,0,0,0,0,3.64,1.82,1.82,0,0,0,0-3.64"/><path class="cls-10" d="M1038.21,94.8a1.82,1.82,0,0,0,0,3.64,1.82,1.82,0,0,0,0-3.64"/><path class="cls-10" d="M1030.46,109.29a1.82,1.82,0,0,0,0,3.63,1.82,1.82,0,0,0,0-3.63"/><path class="cls-10" d="M1115.36,56.73a1.82,1.82,0,0,0,0,3.64,1.82,1.82,0,0,0,0-3.64"/><path class="cls-10" d="M1120.74,70.88a1.82,1.82,0,0,0,0,3.64,1.82,1.82,0,0,0,0-3.64"/><path class="cls-10" d="M1111.31,87.05a1.82,1.82,0,0,0,0,3.64,1.82,1.82,0,0,0,0-3.64"/><path class="cls-10" d="M1110.64,68.52a1.82,1.82,0,0,0,0,3.64,1.82,1.82,0,0,0,0-3.64"/><path class="cls-10" d="M1098.51,82.67a1.82,1.82,0,0,0,0,3.64,1.82,1.82,0,0,0,0-3.64"/><path class="cls-10" d="M1102.55,100.53a1.82,1.82,0,0,0,0,3.63,1.82,1.82,0,0,0,0-3.63"/><path class="cls-10" d="M1099.18,59.09a1.82,1.82,0,0,0,0,3.63,1.82,1.82,0,0,0,0-3.63"/><path class="cls-10" d="M1034.74,141.55c-1.76-5.08-6.56-7.84-11.12-10.1a1.92,1.92,0,0,0-2.29.37,1.88,1.88,0,0,0-1.54.9,1.91,1.91,0,0,0,.28,2.21,33.67,33.67,0,0,0,12,8.68,1.87,1.87,0,0,0,2-.15,1.8,1.8,0,0,0,.65-1.91"/></g><path class="cls-2" d="M1019.34,410.63c-1.17,4.18-2.12,8.73-1.61,13.09.56,4.7,2.66,9.15,4.86,13.28,2.46,4.61,4.94,9.23,7.6,13.73a71.17,71.17,0,0,0,8.49,12,63.82,63.82,0,0,0,10.65,9.17,69.13,69.13,0,0,0,11.78,6.61,71.08,71.08,0,0,0,12.42,4.32c4.12.94,8,.52,12.2,0,2-.26,4-.53,6.06-.66.5-1.17,1-2.34,1.52-3.48q10.41-23,20.84-46,5.11-11.31,10.26-22.63c1.77-3.93,3.56-7.85,5.34-11.78,1-2.31,3.52-6.18,1.13-8.46a4.48,4.48,0,0,0-3.49-1c-2,.15-3.94.56-5.89.84l-6.33,1a686.11,686.11,0,0,0-81.73,11.84q-5.71,1.17-11.38,2.46l-.94.22c-.65,1.8-1.26,3.62-1.78,5.47"/><path class="cls-3" d="M1088.11,409.73a33.64,33.64,0,0,1-6.64,4.51,18.35,18.35,0,0,1-7.52,2.29c-2.19.07-4.46-.74-5.18-3a6.14,6.14,0,0,1,2-6.28,18.61,18.61,0,0,1,6.88-3.67c.83-.28,1.66-.5,2.51-.7a22.5,22.5,0,0,1,4.55-1c2.11-.23,5.06-.4,6.22,1.83s-1.27,4.68-2.78,6"/><path class="cls-3" d="M1076.9,437.35c-3.36,2.83-8.46,6.72-13.06,4.36a5,5,0,0,1-2.8-5.14c.25-2.44,2-4.43,3.72-6a20.14,20.14,0,0,1,9.81-4.67,8.44,8.44,0,0,1,6.31.19c5.34,2.85-1.42,9.1-4,11.25"/><path class="cls-3" d="M1100,402.32a23.14,23.14,0,0,1,7.62-3.14,30,30,0,0,1,3.87-1.44c1.8-.46,5-.91,5.53,1.58a4.62,4.62,0,0,1-.88,3.2,15.91,15.91,0,0,1-2.54,3,37.49,37.49,0,0,1-6.88,5.27c-2,1.18-4.34,2.23-6.72,1.68a4.56,4.56,0,0,1-3.74-4.44c0-2.46,1.77-4.39,3.74-5.67"/><path class="cls-3" d="M1094.17,441.81c-2.16,1-4.74,1-6.37-.94s-1.54-4.89-.4-7.12a12.23,12.23,0,0,1,1.49-2.21c2.3-3.45,6.5-6,9.87-7.89a40.25,40.25,0,0,1,4.28-2.21,3,3,0,0,1,3,0c1,.76,1,2.36.91,3.49a12.47,12.47,0,0,1-1.25,3.89,31.89,31.89,0,0,1-5.1,7.68,21.26,21.26,0,0,1-6.46,5.29"/><path class="cls-4" d="M1089.49,487.26c-2,.23-4,.54-6,.77a34.3,34.3,0,0,1-7.51.18,39.21,39.21,0,0,1-7.9-1.9,81,81,0,0,1-25.3-13.2,64.48,64.48,0,0,1-10.41-10.28,99.94,99.94,0,0,1-8.67-13.65c-2.61-4.66-5.33-9.33-7.56-14.18a32.53,32.53,0,0,1-3.39-14.2,49.08,49.08,0,0,1,2.67-14.34,16.36,16.36,0,0,0-4.22,1.27c-3,1.57-3.58,5.43-4,8.48a41,41,0,0,0-.31,9.26c1,13.48,7.84,25.8,16.4,36a201.16,201.16,0,0,0,17.09,17.46q4.35,4.08,8.67,8.17c2.48,2.35,5.12,4.69,8.36,5.95s6.91,1.35,10.42,1.36q5.93,0,11.82-.43a15.82,15.82,0,0,0,5.24-.91,7.28,7.28,0,0,0,3.33-3.23c.47-.83.91-1.68,1.33-2.54"/><path class="cls-5" d="M1100.35,411.92c-.71-1.34-1.44-3.12-.95-4.65s2.28-2.32,3.81-2.9a29.43,29.43,0,0,1,2.78-1.6,22.17,22.17,0,0,1,6-2.23c1.55-.25,3.28.39,3.35,2.18s-1.33,3.57-2.35,4.89a25.83,25.83,0,0,1-4.15,4.21,10.35,10.35,0,0,1-4.46,2.49c-1.83.29-3.21-.85-4-2.39"/><path class="cls-5" d="M1096.62,442.81c-2.06.46-3.64-1.32-4.8-2.76s-2.26-3.27-1.16-5.09a9,9,0,0,1,2.13-2.19c.91-.76,1.82-1.54,2.73-2.32l2.84-2.41a27.35,27.35,0,0,1,2.3-2l.28-.19.3-.27.19-.1a7.87,7.87,0,0,1,2.44-1.29,1.74,1.74,0,0,1,2.16.95,5.13,5.13,0,0,1-.2,2.74,29,29,0,0,1-4.95,11.17c-1.07,1.47-2.38,3.32-4.26,3.75"/><path class="cls-5" d="M1080.42,416.32c-1.38,1.05-3,2.55-4.85,1.56a6,6,0,0,1-1.84-1.89,14.84,14.84,0,0,1-1.42-2.35,5,5,0,0,1,.3-5.05c1.19-1.53,3.33-2.13,5.11-2.66a32.52,32.52,0,0,1,3.63-.88,10.57,10.57,0,0,1,5.88-1.09,2.64,2.64,0,0,1,2.24,3.67c-.6,1.82-2.25,3.22-3.68,4.41-1.75,1.46-3.55,2.89-5.37,4.28"/><path class="cls-5" d="M1073.07,443.5a4,4,0,0,1-2.71,1.68,4.74,4.74,0,0,1-2.94-1,11.41,11.41,0,0,1-4.12-6.22,2.74,2.74,0,0,1,.69-3,22.44,22.44,0,0,1,3.13-2.46,27.8,27.8,0,0,1,7.18-3.45,21.53,21.53,0,0,1,3.89-.9,3.58,3.58,0,0,1,1.75.21,2,2,0,0,1,1.6,2,5.5,5.5,0,0,1-.81,3.23,9.4,9.4,0,0,1-1.17,1.95,1.14,1.14,0,0,1-.34.29l-.69.91q-2.57,3.5-5.46,6.72"/><path class="cls-6" d="M1029.74,409a1.48,1.48,0,0,0-2.36,1.78,1.48,1.48,0,0,0,2.36-1.78"/><path class="cls-6" d="M1040.6,407a1.48,1.48,0,0,0-2.36,1.78,1.48,1.48,0,0,0,2.36-1.78"/><path class="cls-6" d="M1049.7,407a1.48,1.48,0,0,0-2.37,1.78,1.48,1.48,0,0,0,2.37-1.78"/><path class="cls-6" d="M1037.21,416.43a1.48,1.48,0,0,0-2.37,1.78,1.48,1.48,0,0,0,2.37-1.78"/><path class="cls-6" d="M1092.19,465a1.48,1.48,0,0,0-2.36,1.78,1.48,1.48,0,0,0,2.36-1.78"/><path class="cls-6" d="M1088.07,473.77a1.48,1.48,0,0,0-2.37,1.78,1.48,1.48,0,0,0,2.37-1.78"/><path class="cls-6" d="M1078.57,476.34a1.48,1.48,0,0,0-2.37,1.78,1.48,1.48,0,0,0,2.37-1.78"/><path class="cls-6" d="M1081.88,468.59a1.48,1.48,0,0,0-2.36,1.78,1.48,1.48,0,0,0,2.36-1.78"/><path class="cls-3" d="M1231.22,285.49c2.18-4.29,5.79-7.72,9.57-10.62a55.72,55.72,0,0,1,11.1-6.65,59.11,59.11,0,0,1,25.34-5.21,55.86,55.86,0,0,1,13.06,1.8,80.19,80.19,0,0,0,7.88,1.95c2.44.4,4.93.44,6.66,2.47a19,19,0,0,1,2,3.1c.68,1.19,1.34,2.37,2,3.56,1.32,2.37,2.59,4.77,3.84,7.18a127.56,127.56,0,0,1,6.17,13.26,48.31,48.31,0,0,1,3.26,13.48,30.73,30.73,0,0,1-2.12,13.91c-3.64,8.9-11,16.12-19.08,21.1s-18.08,7.62-27.44,4.82c-8.1-2.41-14.79-9.22-15.81-17.77a27.3,27.3,0,0,1-4.3-.87,33.64,33.64,0,0,1-20.61-17.88c-4-8.31-5.84-19.07-1.49-27.63"/><path class="cls-7" d="M1256.51,331.55a51.89,51.89,0,0,0,34.46-9.88,50.47,50.47,0,0,0,7.67-6.93c.52-.58-.32-1.46-.84-.88a50.76,50.76,0,0,1-31.18,16.25,48.73,48.73,0,0,1-10.1.23c-.78-.07-.78,1.14,0,1.21"/><path class="cls-7" d="M1291.85,339.63a1.21,1.21,0,0,0,.66-2.33,1.21,1.21,0,0,0-.66,2.33"/><path class="cls-7" d="M1284.27,341.68a1.21,1.21,0,0,0,.66-2.33,1.21,1.21,0,0,0-.66,2.33"/><path class="cls-7" d="M1277.17,348.25a1.21,1.21,0,0,0,.66-2.33,1.21,1.21,0,0,0-.66,2.33"/><path class="cls-7" d="M1293.54,279a1.21,1.21,0,0,0,.66-2.33,1.21,1.21,0,0,0-.66,2.33"/><path class="cls-7" d="M1281.72,279.35a1.21,1.21,0,0,0,.66-2.33,1.21,1.21,0,0,0-.66,2.33"/><path class="cls-7" d="M1279.16,269.18a1.21,1.21,0,0,0,.66-2.33,1.21,1.21,0,0,0-.66,2.33"/><path class="cls-7" d="M1268.49,273.52a1.21,1.21,0,0,0,.66-2.33,1.21,1.21,0,0,0-.66,2.33"/><path class="cls-7" d="M1286.62,271.28a1.21,1.21,0,0,0,.66-2.33,1.21,1.21,0,0,0-.66,2.33"/><path class="cls-7" d="M1289.29,348.7a1.22,1.22,0,0,0,.66-2.34,1.22,1.22,0,0,0-.66,2.34"/><path class="cls-4" d="M1216.86,341.47c1.68-1.75,4.37-2.17,6.64-2.65,2.92-.64,5.87-1.14,8.82-1.61,6.12-.94,12.27-1.74,18.4-2.58a.64.64,0,0,1,.64,1,.71.71,0,0,1-.14.38,48.08,48.08,0,0,1-13.61,10.49,46.22,46.22,0,0,1-7.09,3,20.26,20.26,0,0,1-7.9,1.19c-2.36-.2-5.16-1-6.46-3.17a5,5,0,0,1,.7-6"/><path class="cls-4" d="M1246.29,358.11c1.21-8.76,3.3-17.76,9.32-24.57a.49.49,0,0,1,.66-.1.47.47,0,0,1,.38.55c-1.18,9.66.74,19.31,3.41,28.57,1.18,4.09,2.6,8.13,3.57,12.28.88,3.76,1.62,8.05.75,11.88a5.61,5.61,0,0,1-3.08,4.08,7.82,7.82,0,0,1-5.08.17,14.4,14.4,0,0,1-8.74-7.27,24.78,24.78,0,0,1-2.55-11.64,102.15,102.15,0,0,1,1.36-13.95"/><path class="cls-7" d="M1228.85,342.58a72.46,72.46,0,0,0,26.31-8.05,67.9,67.9,0,0,0-1.79,31.1,65.9,65.9,0,0,0,2.43,9.58c.24.73,1.42.43,1.17-.31a66.21,66.21,0,0,1,.35-43.13c.26-.73-.91-1.06-1.17-.32-.17.48-.32,1-.48,1.44a71,71,0,0,1-26.82,8.48c-.76.08-.78,1.29,0,1.21"/><g class="cls-8"><path class="cls-9" d="M1199.7,509c.53-6.68,4.37-11.8,7.88-17.25,3.33-5.19,6.21-10.67,10.16-15.45,8.06-9.74,20.8-15.09,32.54-18.91a78.08,78.08,0,0,1,19.79-3.88c3.53-.2,7.08-.2,10.63,0a45.06,45.06,0,0,1,8.7-6.45c5-2.7,10,.78,14,3.71a50.3,50.3,0,0,1,6.08,5.22c1.72,1.75,3.44,3.74,3.7,6.27.43,4.17-3.1,7-4.55,10.6.65,2.39,1.22,4.79,1.81,7.13a152.89,152.89,0,0,1,3.87,20.49c.71,6.59.49,13.36-1.7,19.67-4,11.37-12.86,20.17-21.37,28.31-4.53,4.34-9.31,8.57-14.88,11.5a48.61,48.61,0,0,1-17.72,5c-10.85,1.13-21.63-.54-32.43-1.62-3.48.11-7,.47-10.51.3a6.15,6.15,0,0,1-5.83-4.12,87.2,87.2,0,0,1-2.8-9.37c-1.89-6.87-3.55-13.81-4.9-20.82-.68-3.45-1.28-6.93-1.78-10.41a43.36,43.36,0,0,1-.67-9.91"/><path class="cls-10" d="M1308.18,495.86a1.82,1.82,0,0,0,0-3.63,1.82,1.82,0,0,0,0,3.63"/><path class="cls-10" d="M1300.77,498.89a1.82,1.82,0,0,0,0-3.63,1.82,1.82,0,0,0,0,3.63"/><path class="cls-10" d="M1290.66,512.37a1.82,1.82,0,0,0,0-3.63,1.82,1.82,0,0,0,0,3.63"/><path class="cls-10" d="M1304.81,519.11a1.82,1.82,0,0,0,0-3.64,1.82,1.82,0,0,0,0,3.64"/><path class="cls-10" d="M1290.66,499.23a1.82,1.82,0,0,0,0-3.63,1.82,1.82,0,0,0,0,3.63"/><path class="cls-10" d="M1298.41,484.75a1.82,1.82,0,0,0,0-3.64,1.82,1.82,0,0,0,0,3.64"/><path class="cls-10" d="M1213.51,537.3a1.82,1.82,0,0,0,0-3.63,1.82,1.82,0,0,0,0,3.63"/><path class="cls-10" d="M1208.12,523.15a1.82,1.82,0,0,0,0-3.63,1.82,1.82,0,0,0,0,3.63"/><path class="cls-10" d="M1217.55,507a1.82,1.82,0,0,0,0-3.64,1.82,1.82,0,0,0,0,3.64"/><path class="cls-10" d="M1218.23,525.51a1.82,1.82,0,0,0,0-3.64,1.82,1.82,0,0,0,0,3.64"/><path class="cls-10" d="M1230.36,511.36a1.82,1.82,0,0,0,0-3.64,1.82,1.82,0,0,0,0,3.64"/><path class="cls-10" d="M1226.31,493.5a1.82,1.82,0,0,0,0-3.63,1.82,1.82,0,0,0,0,3.63"/><path class="cls-10" d="M1229.68,534.94a1.82,1.82,0,0,0,0-3.63,1.82,1.82,0,0,0,0,3.63"/><path class="cls-10" d="M1294.13,452.48c1.76,5.09,6.55,7.84,11.12,10.1a1.92,1.92,0,0,0,2.29-.37,1.86,1.86,0,0,0,1.53-.9,1.89,1.89,0,0,0-.28-2.21,33.7,33.7,0,0,0-12-8.67,1.85,1.85,0,0,0-2,.14,1.8,1.8,0,0,0-.65,1.91"/></g><path class="cls-2" d="M527.34,410.63c-1.17,4.18-2.12,8.73-1.61,13.09.56,4.7,2.66,9.15,4.86,13.28,2.46,4.61,4.94,9.23,7.6,13.73a71.17,71.17,0,0,0,8.49,12,63.82,63.82,0,0,0,10.65,9.17,69.13,69.13,0,0,0,11.78,6.61,71.08,71.08,0,0,0,12.42,4.32c4.12.94,8.05.52,12.2,0,2-.26,4-.53,6.06-.66.5-1.17,1-2.34,1.52-3.48q10.41-23,20.84-46,5.11-11.31,10.26-22.63c1.77-3.93,3.56-7.85,5.34-11.78,1-2.31,3.52-6.18,1.13-8.46a4.48,4.48,0,0,0-3.49-1c-2,.15-3.94.56-5.89.84l-6.33,1a686.11,686.11,0,0,0-81.73,11.84q-5.72,1.17-11.38,2.46l-.94.22c-.65,1.8-1.26,3.62-1.78,5.47"/><path class="cls-3" d="M596.11,409.73a33.64,33.64,0,0,1-6.64,4.51,18.35,18.35,0,0,1-7.52,2.29c-2.19.07-4.46-.74-5.18-3a6.14,6.14,0,0,1,2-6.28,18.61,18.61,0,0,1,6.88-3.67c.83-.28,1.66-.5,2.51-.7a22.5,22.5,0,0,1,4.55-1c2.11-.23,5.06-.4,6.22,1.83s-1.27,4.68-2.78,6"/><path class="cls-3" d="M584.9,437.35c-3.36,2.83-8.46,6.72-13.06,4.36a5,5,0,0,1-2.8-5.14c.25-2.44,2-4.43,3.72-6a20.14,20.14,0,0,1,9.81-4.67,8.44,8.44,0,0,1,6.31.19c5.34,2.85-1.42,9.1-4,11.25"/><path class="cls-3" d="M608,402.32a23.14,23.14,0,0,1,7.62-3.14,30,30,0,0,1,3.87-1.44c1.8-.46,5-.91,5.53,1.58a4.62,4.62,0,0,1-.88,3.2,15.91,15.91,0,0,1-2.54,3,37.49,37.49,0,0,1-6.88,5.27c-2,1.18-4.34,2.23-6.72,1.68a4.56,4.56,0,0,1-3.74-4.44c0-2.46,1.77-4.39,3.74-5.67"/><path class="cls-3" d="M602.17,441.81c-2.16,1-4.74,1-6.37-.94s-1.54-4.89-.4-7.12a12.23,12.23,0,0,1,1.49-2.21c2.3-3.45,6.5-6,9.87-7.89a40.25,40.25,0,0,1,4.28-2.21,3,3,0,0,1,3,0c1,.76,1,2.36.91,3.49a12.47,12.47,0,0,1-1.25,3.89,31.89,31.89,0,0,1-5.1,7.68,21.26,21.26,0,0,1-6.46,5.29"/><path class="cls-4" d="M597.49,487.26c-2,.23-4,.54-6,.77a34.3,34.3,0,0,1-7.51.18,39.21,39.21,0,0,1-7.9-1.9,81,81,0,0,1-25.3-13.2,64.48,64.48,0,0,1-10.41-10.28,99.94,99.94,0,0,1-8.67-13.65c-2.61-4.66-5.33-9.33-7.56-14.18a32.53,32.53,0,0,1-3.39-14.2,49.08,49.08,0,0,1,2.67-14.34,16.36,16.36,0,0,0-4.22,1.27c-3,1.57-3.58,5.43-4,8.48a41,41,0,0,0-.31,9.26c1,13.48,7.84,25.8,16.4,36a201.16,201.16,0,0,0,17.09,17.46q4.35,4.08,8.67,8.17c2.48,2.35,5.12,4.69,8.36,5.95s6.91,1.35,10.42,1.36q5.93,0,11.82-.43a15.82,15.82,0,0,0,5.24-.91,7.28,7.28,0,0,0,3.33-3.23c.47-.83.91-1.68,1.33-2.54"/><path class="cls-5" d="M608.35,411.92c-.71-1.34-1.44-3.12-1-4.65s2.28-2.32,3.81-2.9a29.43,29.43,0,0,1,2.78-1.6,22.17,22.17,0,0,1,6-2.23c1.55-.25,3.28.39,3.35,2.18s-1.33,3.57-2.35,4.89a25.83,25.83,0,0,1-4.15,4.21,10.35,10.35,0,0,1-4.46,2.49c-1.83.29-3.21-.85-4-2.39"/><path class="cls-5" d="M604.62,442.81c-2.06.46-3.64-1.32-4.8-2.76s-2.26-3.27-1.16-5.09a9,9,0,0,1,2.13-2.19c.91-.76,1.82-1.54,2.73-2.32l2.84-2.41a27.35,27.35,0,0,1,2.3-2l.28-.19.3-.27.19-.1a7.87,7.87,0,0,1,2.44-1.29,1.74,1.74,0,0,1,2.16.95,5.13,5.13,0,0,1-.2,2.74,29,29,0,0,1-5,11.17c-1.07,1.47-2.38,3.32-4.26,3.75"/><path class="cls-5" d="M588.42,416.32c-1.38,1.05-3,2.55-4.85,1.56a6,6,0,0,1-1.84-1.89,14.84,14.84,0,0,1-1.42-2.35,5,5,0,0,1,.3-5.05c1.19-1.53,3.33-2.13,5.11-2.66a32.52,32.52,0,0,1,3.63-.88,10.57,10.57,0,0,1,5.88-1.09,2.64,2.64,0,0,1,2.24,3.67c-.6,1.82-2.25,3.22-3.68,4.41-1.75,1.46-3.55,2.89-5.37,4.28"/><path class="cls-5" d="M581.07,443.5a4,4,0,0,1-2.71,1.68,4.74,4.74,0,0,1-2.94-1A11.41,11.41,0,0,1,571.3,438a2.74,2.74,0,0,1,.69-3,22.44,22.44,0,0,1,3.13-2.46,27.8,27.8,0,0,1,7.18-3.45,21.53,21.53,0,0,1,3.89-.9,3.58,3.58,0,0,1,1.75.21,2,2,0,0,1,1.6,2,5.5,5.5,0,0,1-.81,3.23,9.4,9.4,0,0,1-1.17,1.95,1.14,1.14,0,0,1-.34.29l-.69.91q-2.56,3.5-5.46,6.72"/><path class="cls-6" d="M537.74,409a1.48,1.48,0,0,0-2.36,1.78,1.48,1.48,0,0,0,2.36-1.78"/><path class="cls-6" d="M548.6,407a1.48,1.48,0,0,0-2.36,1.78A1.48,1.48,0,0,0,548.6,407"/><path class="cls-6" d="M557.7,407a1.48,1.48,0,0,0-2.37,1.78A1.48,1.48,0,0,0,557.7,407"/><path class="cls-6" d="M545.21,416.43a1.48,1.48,0,0,0-2.37,1.78,1.48,1.48,0,0,0,2.37-1.78"/><path class="cls-6" d="M600.19,465a1.48,1.48,0,0,0-2.36,1.78,1.48,1.48,0,0,0,2.36-1.78"/><path class="cls-6" d="M596.07,473.77a1.48,1.48,0,0,0-2.37,1.78,1.48,1.48,0,0,0,2.37-1.78"/><path class="cls-6" d="M586.57,476.34a1.48,1.48,0,0,0-2.37,1.78,1.48,1.48,0,0,0,2.37-1.78"/><path class="cls-6" d="M589.88,468.59a1.48,1.48,0,0,0-2.36,1.78,1.48,1.48,0,0,0,2.36-1.78"/><path class="cls-3" d="M739.22,285.49c2.18-4.29,5.79-7.72,9.57-10.62a55.72,55.72,0,0,1,11.1-6.65A59.11,59.11,0,0,1,785.23,263a55.86,55.86,0,0,1,13.06,1.8,80.19,80.19,0,0,0,7.88,1.95c2.44.4,4.93.44,6.66,2.47a19,19,0,0,1,2,3.1c.68,1.19,1.34,2.37,2,3.56,1.32,2.37,2.59,4.77,3.84,7.18a127.56,127.56,0,0,1,6.17,13.26,48.31,48.31,0,0,1,3.26,13.48A30.73,30.73,0,0,1,828,323.72c-3.64,8.9-11,16.12-19.08,21.1s-18.08,7.62-27.44,4.82c-8.1-2.41-14.79-9.22-15.81-17.77a27.3,27.3,0,0,1-4.3-.87,33.64,33.64,0,0,1-20.61-17.88c-4-8.31-5.84-19.07-1.49-27.63"/><path class="cls-7" d="M764.51,331.55A51.89,51.89,0,0,0,799,321.67a50.47,50.47,0,0,0,7.67-6.93c.52-.58-.32-1.46-.84-.88a50.76,50.76,0,0,1-31.18,16.25,48.73,48.73,0,0,1-10.1.23c-.78-.07-.78,1.14,0,1.21"/><path class="cls-7" d="M799.85,339.63a1.21,1.21,0,0,0,.66-2.33,1.21,1.21,0,0,0-.66,2.33"/><path class="cls-7" d="M792.27,341.68a1.21,1.21,0,0,0,.66-2.33,1.21,1.21,0,0,0-.66,2.33"/><path class="cls-7" d="M785.17,348.25a1.21,1.21,0,0,0,.66-2.33,1.21,1.21,0,0,0-.66,2.33"/><path class="cls-7" d="M801.54,279a1.21,1.21,0,0,0,.66-2.33,1.21,1.21,0,0,0-.66,2.33"/><path class="cls-7" d="M789.72,279.35a1.21,1.21,0,0,0,.66-2.33,1.21,1.21,0,0,0-.66,2.33"/><path class="cls-7" d="M787.16,269.18a1.21,1.21,0,0,0,.66-2.33,1.21,1.21,0,0,0-.66,2.33"/><path class="cls-7" d="M776.49,273.52a1.21,1.21,0,0,0,.66-2.33,1.21,1.21,0,0,0-.66,2.33"/><path class="cls-7" d="M794.62,271.28a1.21,1.21,0,0,0,.66-2.33,1.21,1.21,0,0,0-.66,2.33"/><path class="cls-7" d="M797.29,348.7a1.22,1.22,0,0,0,.66-2.34,1.22,1.22,0,0,0-.66,2.34"/><path class="cls-4" d="M724.86,341.47c1.68-1.75,4.37-2.17,6.64-2.65,2.92-.64,5.87-1.14,8.82-1.61,6.12-.94,12.27-1.74,18.4-2.58a.64.64,0,0,1,.64,1,.71.71,0,0,1-.14.38,48.08,48.08,0,0,1-13.61,10.49,46.22,46.22,0,0,1-7.09,3,20.26,20.26,0,0,1-7.9,1.19c-2.36-.2-5.16-1-6.46-3.17a5,5,0,0,1,.7-6"/><path class="cls-4" d="M754.29,358.11c1.21-8.76,3.3-17.76,9.32-24.57a.49.49,0,0,1,.66-.1.47.47,0,0,1,.38.55c-1.18,9.66.74,19.31,3.41,28.57,1.18,4.09,2.6,8.13,3.57,12.28.88,3.76,1.62,8.05.75,11.88a5.61,5.61,0,0,1-3.08,4.08,7.82,7.82,0,0,1-5.08.17,14.4,14.4,0,0,1-8.74-7.27,24.78,24.78,0,0,1-2.55-11.64,102.15,102.15,0,0,1,1.36-13.95"/><path class="cls-7" d="M736.85,342.58a72.46,72.46,0,0,0,26.31-8.05,67.9,67.9,0,0,0-1.79,31.1,65.9,65.9,0,0,0,2.43,9.58c.24.73,1.42.43,1.17-.31a66.21,66.21,0,0,1,.35-43.13c.26-.73-.91-1.06-1.17-.32-.17.48-.32,1-.48,1.44a71,71,0,0,1-26.82,8.48c-.76.08-.78,1.29,0,1.21"/><g class="cls-8"><path class="cls-9" d="M707.7,509c.53-6.68,4.37-11.8,7.88-17.25,3.33-5.19,6.21-10.67,10.16-15.45,8.06-9.74,20.8-15.09,32.54-18.91a78.08,78.08,0,0,1,19.79-3.88c3.53-.2,7.08-.2,10.63,0a45.06,45.06,0,0,1,8.7-6.45c5-2.7,10,.78,14,3.71a50.3,50.3,0,0,1,6.08,5.22c1.72,1.75,3.44,3.74,3.7,6.27.43,4.17-3.1,7-4.55,10.6.65,2.39,1.22,4.79,1.81,7.13a152.89,152.89,0,0,1,3.87,20.49c.71,6.59.49,13.36-1.7,19.67-4,11.37-12.86,20.17-21.37,28.31-4.53,4.34-9.31,8.57-14.88,11.5a48.61,48.61,0,0,1-17.72,5c-10.85,1.13-21.63-.54-32.43-1.62-3.48.11-7,.47-10.51.3a6.15,6.15,0,0,1-5.83-4.12,87.2,87.2,0,0,1-2.8-9.37c-1.89-6.87-3.55-13.81-4.9-20.82-.68-3.45-1.28-6.93-1.78-10.41a43.36,43.36,0,0,1-.67-9.91"/><path class="cls-10" d="M816.18,495.86a1.82,1.82,0,0,0,0-3.63,1.82,1.82,0,0,0,0,3.63"/><path class="cls-10" d="M808.77,498.89a1.82,1.82,0,0,0,0-3.63,1.82,1.82,0,0,0,0,3.63"/><path class="cls-10" d="M798.66,512.37a1.82,1.82,0,0,0,0-3.63,1.82,1.82,0,0,0,0,3.63"/><path class="cls-10" d="M812.81,519.11a1.82,1.82,0,0,0,0-3.64,1.82,1.82,0,0,0,0,3.64"/><path class="cls-10" d="M798.66,499.23a1.82,1.82,0,0,0,0-3.63,1.82,1.82,0,0,0,0,3.63"/><path class="cls-10" d="M806.41,484.75a1.82,1.82,0,0,0,0-3.64,1.82,1.82,0,0,0,0,3.64"/><path class="cls-10" d="M721.51,537.3a1.82,1.82,0,0,0,0-3.63,1.82,1.82,0,0,0,0,3.63"/><path class="cls-10" d="M716.12,523.15a1.82,1.82,0,0,0,0-3.63,1.82,1.82,0,0,0,0,3.63"/><path class="cls-10" d="M725.55,507a1.82,1.82,0,0,0,0-3.64,1.82,1.82,0,0,0,0,3.64"/><path class="cls-10" d="M726.23,525.51a1.82,1.82,0,0,0,0-3.64,1.82,1.82,0,0,0,0,3.64"/><path class="cls-10" d="M738.36,511.36a1.82,1.82,0,0,0,0-3.64,1.82,1.82,0,0,0,0,3.64"/><path class="cls-10" d="M734.31,493.5a1.82,1.82,0,0,0,0-3.63,1.82,1.82,0,0,0,0,3.63"/><path class="cls-10" d="M737.68,534.94a1.82,1.82,0,0,0,0-3.63,1.82,1.82,0,0,0,0,3.63"/><path class="cls-10" d="M802.13,452.48c1.76,5.09,6.55,7.84,11.12,10.1a1.92,1.92,0,0,0,2.29-.37,1.86,1.86,0,0,0,1.53-.9,1.89,1.89,0,0,0-.28-2.21,33.7,33.7,0,0,0-12-8.67,1.85,1.85,0,0,0-2,.14,1.8,1.8,0,0,0-.65,1.91"/></g><path class="cls-2" d="M76.34,410.63c-1.17,4.18-2.12,8.73-1.61,13.09.56,4.7,2.66,9.15,4.86,13.28,2.46,4.61,4.94,9.23,7.6,13.73a71.17,71.17,0,0,0,8.49,12,63.82,63.82,0,0,0,10.65,9.17,69.13,69.13,0,0,0,11.78,6.61,71.08,71.08,0,0,0,12.42,4.32c4.12.94,8.05.52,12.2,0,2-.26,4-.53,6.06-.66.5-1.17,1-2.34,1.52-3.48q10.41-23,20.84-46,5.11-11.31,10.26-22.63c1.77-3.93,3.56-7.85,5.34-11.78,1.05-2.31,3.52-6.18,1.13-8.46a4.48,4.48,0,0,0-3.49-1c-2,.15-3.94.56-5.89.84l-6.33,1a686.11,686.11,0,0,0-81.73,11.84q-5.72,1.17-11.38,2.46l-.94.22c-.65,1.8-1.26,3.62-1.78,5.47"/><path class="cls-3" d="M145.11,409.73a33.64,33.64,0,0,1-6.64,4.51,18.35,18.35,0,0,1-7.52,2.29c-2.19.07-4.46-.74-5.18-3a6.14,6.14,0,0,1,2-6.28,18.61,18.61,0,0,1,6.88-3.67c.83-.28,1.66-.5,2.51-.7a22.5,22.5,0,0,1,4.55-1c2.11-.23,5.06-.4,6.22,1.83s-1.27,4.68-2.78,6"/><path class="cls-3" d="M133.9,437.35c-3.36,2.83-8.46,6.72-13.06,4.36a5,5,0,0,1-2.8-5.14c.25-2.44,1.95-4.43,3.72-6a20.14,20.14,0,0,1,9.81-4.67,8.44,8.44,0,0,1,6.31.19c5.34,2.85-1.42,9.1-4,11.25"/><path class="cls-3" d="M157,402.32a23.14,23.14,0,0,1,7.62-3.14,30,30,0,0,1,3.87-1.44c1.8-.46,5-.91,5.53,1.58a4.62,4.62,0,0,1-.88,3.2,15.91,15.91,0,0,1-2.54,3,37.49,37.49,0,0,1-6.88,5.27c-2,1.18-4.34,2.23-6.72,1.68a4.56,4.56,0,0,1-3.74-4.44c0-2.46,1.77-4.39,3.74-5.67"/><path class="cls-3" d="M151.17,441.81c-2.16,1-4.74,1-6.37-.94s-1.54-4.89-.4-7.12a12.23,12.23,0,0,1,1.49-2.21c2.3-3.45,6.5-6,9.87-7.89a40.25,40.25,0,0,1,4.28-2.21,3,3,0,0,1,3,0c1,.76,1,2.36.91,3.49a12.47,12.47,0,0,1-1.25,3.89,31.89,31.89,0,0,1-5.1,7.68,21.26,21.26,0,0,1-6.46,5.29"/><path class="cls-4" d="M146.49,487.26c-2,.23-4,.54-6,.77a34.3,34.3,0,0,1-7.51.18,39.21,39.21,0,0,1-7.9-1.9,81,81,0,0,1-25.3-13.2,64.48,64.48,0,0,1-10.41-10.28,99.94,99.94,0,0,1-8.67-13.65c-2.61-4.66-5.33-9.33-7.56-14.18a32.53,32.53,0,0,1-3.39-14.2,49.08,49.08,0,0,1,2.67-14.34,16.36,16.36,0,0,0-4.22,1.27c-3,1.57-3.58,5.43-4,8.48a41,41,0,0,0-.31,9.26c1,13.48,7.84,25.8,16.4,36a201.16,201.16,0,0,0,17.09,17.46q4.35,4.08,8.67,8.17c2.48,2.35,5.12,4.69,8.36,5.95s6.91,1.35,10.42,1.36q5.92,0,11.82-.43a15.82,15.82,0,0,0,5.24-.91,7.28,7.28,0,0,0,3.33-3.23c.47-.83.91-1.68,1.33-2.54"/><path class="cls-5" d="M157.35,411.92c-.71-1.34-1.44-3.12-.95-4.65s2.28-2.32,3.81-2.9a29.43,29.43,0,0,1,2.78-1.6,22.17,22.17,0,0,1,6-2.23c1.55-.25,3.28.39,3.35,2.18s-1.33,3.57-2.35,4.89a25.83,25.83,0,0,1-4.15,4.21,10.35,10.35,0,0,1-4.46,2.49c-1.83.29-3.21-.85-4-2.39"/><path class="cls-5" d="M153.62,442.81c-2.06.46-3.64-1.32-4.8-2.76s-2.26-3.27-1.16-5.09a9,9,0,0,1,2.13-2.19c.91-.76,1.82-1.54,2.73-2.32l2.84-2.41a27.35,27.35,0,0,1,2.3-2l.28-.19.3-.27.19-.1a7.87,7.87,0,0,1,2.44-1.29,1.74,1.74,0,0,1,2.16.95,5.13,5.13,0,0,1-.2,2.74,29,29,0,0,1-5,11.17c-1.07,1.47-2.38,3.32-4.26,3.75"/><path class="cls-5" d="M137.42,416.32c-1.38,1.05-3,2.55-4.85,1.56a6,6,0,0,1-1.84-1.89,14.84,14.84,0,0,1-1.42-2.35,5,5,0,0,1,.3-5.05c1.19-1.53,3.33-2.13,5.11-2.66a32.52,32.52,0,0,1,3.63-.88,10.57,10.57,0,0,1,5.88-1.09,2.64,2.64,0,0,1,2.24,3.67c-.6,1.82-2.25,3.22-3.68,4.41-1.75,1.46-3.55,2.89-5.37,4.28"/><path class="cls-5" d="M130.07,443.5a4,4,0,0,1-2.71,1.68,4.74,4.74,0,0,1-2.94-1A11.41,11.41,0,0,1,120.3,438a2.74,2.74,0,0,1,.69-3,22.44,22.44,0,0,1,3.13-2.46,27.8,27.8,0,0,1,7.18-3.45,21.53,21.53,0,0,1,3.89-.9,3.58,3.58,0,0,1,1.75.21,2,2,0,0,1,1.6,2,5.5,5.5,0,0,1-.81,3.23,9.4,9.4,0,0,1-1.17,1.95,1.14,1.14,0,0,1-.34.29l-.69.91q-2.57,3.5-5.46,6.72"/><path class="cls-6" d="M86.74,409a1.48,1.48,0,0,0-2.36,1.78A1.48,1.48,0,0,0,86.74,409"/><path class="cls-6" d="M97.6,407a1.48,1.48,0,0,0-2.36,1.78A1.48,1.48,0,0,0,97.6,407"/><path class="cls-6" d="M106.7,407a1.48,1.48,0,0,0-2.37,1.78A1.48,1.48,0,0,0,106.7,407"/><path class="cls-6" d="M94.21,416.43a1.48,1.48,0,0,0-2.37,1.78,1.48,1.48,0,0,0,2.37-1.78"/><path class="cls-6" d="M149.19,465a1.48,1.48,0,0,0-2.36,1.78,1.48,1.48,0,0,0,2.36-1.78"/><path class="cls-6" d="M145.07,473.77a1.48,1.48,0,0,0-2.37,1.78,1.48,1.48,0,0,0,2.37-1.78"/><path class="cls-6" d="M135.57,476.34a1.48,1.48,0,0,0-2.37,1.78,1.48,1.48,0,0,0,2.37-1.78"/><path class="cls-6" d="M138.88,468.59a1.48,1.48,0,0,0-2.36,1.78,1.48,1.48,0,0,0,2.36-1.78"/><path class="cls-3" d="M288.22,285.49c2.18-4.29,5.79-7.72,9.57-10.62a55.72,55.72,0,0,1,11.1-6.65A59.11,59.11,0,0,1,334.23,263a55.86,55.86,0,0,1,13.06,1.8,80.19,80.19,0,0,0,7.88,1.95c2.44.4,4.93.44,6.66,2.47a19,19,0,0,1,2,3.1c.68,1.19,1.34,2.37,2,3.56,1.32,2.37,2.59,4.77,3.84,7.18a127.56,127.56,0,0,1,6.17,13.26,48.31,48.31,0,0,1,3.26,13.48A30.73,30.73,0,0,1,377,323.72c-3.64,8.9-11,16.12-19.08,21.1s-18.08,7.62-27.44,4.82c-8.1-2.41-14.79-9.22-15.81-17.77a27.3,27.3,0,0,1-4.3-.87,33.64,33.64,0,0,1-20.61-17.88c-4-8.31-5.84-19.07-1.49-27.63"/><path class="cls-7" d="M313.51,331.55A51.89,51.89,0,0,0,348,321.67a50.47,50.47,0,0,0,7.67-6.93c.52-.58-.32-1.46-.84-.88a50.76,50.76,0,0,1-31.18,16.25,48.73,48.73,0,0,1-10.1.23c-.78-.07-.78,1.14,0,1.21"/><path class="cls-7" d="M348.85,339.63a1.21,1.21,0,0,0,.66-2.33,1.21,1.21,0,0,0-.66,2.33"/><path class="cls-7" d="M341.27,341.68a1.21,1.21,0,0,0,.66-2.33,1.21,1.21,0,0,0-.66,2.33"/><path class="cls-7" d="M334.17,348.25a1.21,1.21,0,0,0,.66-2.33,1.21,1.21,0,0,0-.66,2.33"/><path class="cls-7" d="M350.54,279a1.21,1.21,0,0,0,.66-2.33,1.21,1.21,0,0,0-.66,2.33"/><path class="cls-7" d="M338.72,279.35a1.21,1.21,0,0,0,.66-2.33,1.21,1.21,0,0,0-.66,2.33"/><path class="cls-7" d="M336.16,269.18a1.21,1.21,0,0,0,.66-2.33,1.21,1.21,0,0,0-.66,2.33"/><path class="cls-7" d="M325.49,273.52a1.21,1.21,0,0,0,.66-2.33,1.21,1.21,0,0,0-.66,2.33"/><path class="cls-7" d="M343.62,271.28a1.21,1.21,0,0,0,.66-2.33,1.21,1.21,0,0,0-.66,2.33"/><path class="cls-7" d="M346.29,348.7a1.22,1.22,0,0,0,.66-2.34,1.22,1.22,0,0,0-.66,2.34"/><path class="cls-4" d="M273.86,341.47c1.68-1.75,4.37-2.17,6.64-2.65,2.92-.64,5.87-1.14,8.82-1.61,6.12-.94,12.27-1.74,18.4-2.58a.64.64,0,0,1,.64,1,.71.71,0,0,1-.14.38,48.08,48.08,0,0,1-13.61,10.49,46.22,46.22,0,0,1-7.09,3,20.26,20.26,0,0,1-7.9,1.19c-2.36-.2-5.16-1-6.46-3.17a5,5,0,0,1,.7-6"/><path class="cls-4" d="M303.29,358.11c1.21-8.76,3.3-17.76,9.32-24.57a.49.49,0,0,1,.66-.1.47.47,0,0,1,.38.55c-1.18,9.66.74,19.31,3.41,28.57,1.18,4.09,2.6,8.13,3.57,12.28.88,3.76,1.62,8.05.75,11.88a5.61,5.61,0,0,1-3.08,4.08,7.82,7.82,0,0,1-5.08.17,14.4,14.4,0,0,1-8.74-7.27,24.78,24.78,0,0,1-2.55-11.64,102.15,102.15,0,0,1,1.36-13.95"/><path class="cls-7" d="M285.85,342.58a72.46,72.46,0,0,0,26.31-8.05,67.9,67.9,0,0,0-1.79,31.1,65.9,65.9,0,0,0,2.43,9.58c.24.73,1.42.43,1.17-.31a66.21,66.21,0,0,1,.35-43.13c.26-.73-.91-1.06-1.17-.32-.17.48-.32,1-.48,1.44a71,71,0,0,1-26.82,8.48c-.76.08-.78,1.29,0,1.21"/><g class="cls-8"><path class="cls-9" d="M256.7,509c.53-6.68,4.37-11.8,7.88-17.25,3.33-5.19,6.21-10.67,10.16-15.45,8.06-9.74,20.8-15.09,32.54-18.91a78.08,78.08,0,0,1,19.79-3.88c3.53-.2,7.08-.2,10.63,0a45.06,45.06,0,0,1,8.7-6.45c5-2.7,10,.78,14,3.71a50.3,50.3,0,0,1,6.08,5.22c1.72,1.75,3.44,3.74,3.7,6.27.43,4.17-3.1,7-4.55,10.6.65,2.39,1.22,4.79,1.81,7.13a152.89,152.89,0,0,1,3.87,20.49c.71,6.59.49,13.36-1.7,19.67-4,11.37-12.86,20.17-21.37,28.31-4.53,4.34-9.31,8.57-14.88,11.5a48.61,48.61,0,0,1-17.72,5c-10.85,1.13-21.63-.54-32.43-1.62-3.48.11-7,.47-10.51.3a6.15,6.15,0,0,1-5.83-4.12,87.2,87.2,0,0,1-2.8-9.37c-1.89-6.87-3.55-13.81-4.9-20.82-.68-3.45-1.28-6.93-1.78-10.41a43.36,43.36,0,0,1-.67-9.91"/><path class="cls-10" d="M365.18,495.86a1.82,1.82,0,0,0,0-3.63,1.82,1.82,0,0,0,0,3.63"/><path class="cls-10" d="M357.77,498.89a1.82,1.82,0,0,0,0-3.63,1.82,1.82,0,0,0,0,3.63"/><path class="cls-10" d="M347.66,512.37a1.82,1.82,0,0,0,0-3.63,1.82,1.82,0,0,0,0,3.63"/><path class="cls-10" d="M361.81,519.11a1.82,1.82,0,0,0,0-3.64,1.82,1.82,0,0,0,0,3.64"/><path class="cls-10" d="M347.66,499.23a1.82,1.82,0,0,0,0-3.63,1.82,1.82,0,0,0,0,3.63"/><path class="cls-10" d="M355.41,484.75a1.82,1.82,0,0,0,0-3.64,1.82,1.82,0,0,0,0,3.64"/><path class="cls-10" d="M270.51,537.3a1.82,1.82,0,0,0,0-3.63,1.82,1.82,0,0,0,0,3.63"/><path class="cls-10" d="M265.12,523.15a1.82,1.82,0,0,0,0-3.63,1.82,1.82,0,0,0,0,3.63"/><path class="cls-10" d="M274.55,507a1.82,1.82,0,0,0,0-3.64,1.82,1.82,0,0,0,0,3.64"/><path class="cls-10" d="M275.23,525.51a1.82,1.82,0,0,0,0-3.64,1.82,1.82,0,0,0,0,3.64"/><path class="cls-10" d="M287.36,511.36a1.82,1.82,0,0,0,0-3.64,1.82,1.82,0,0,0,0,3.64"/><path class="cls-10" d="M283.31,493.5a1.82,1.82,0,0,0,0-3.63,1.82,1.82,0,0,0,0,3.63"/><path class="cls-10" d="M286.68,534.94a1.82,1.82,0,0,0,0-3.63,1.82,1.82,0,0,0,0,3.63"/><path class="cls-10" d="M351.13,452.48c1.76,5.09,6.55,7.84,11.12,10.1a1.92,1.92,0,0,0,2.29-.37,1.86,1.86,0,0,0,1.53-.9,1.89,1.89,0,0,0-.28-2.21,33.7,33.7,0,0,0-12-8.67,1.85,1.85,0,0,0-2,.14,1.8,1.8,0,0,0-.65,1.91"/></g></g></g></svg>