<svg xmlns="http://www.w3.org/2000/svg" viewBox="0 0 548.7 413.07"><defs><style>.cls-1{fill:#fff;}.cls-2{fill:#e9c04f;}.cls-3{font-size:50.64px;}.cls-21,.cls-22,.cls-3,.cls-7{fill:#211915;font-family:SlimeYogurtDemo, Slime Yogurt Demo;}.cls-4{letter-spacing:-0.01em;}.cls-5{letter-spacing:-0.03em;}.cls-6{letter-spacing:0em;}.cls-7{font-size:43.41px;}.cls-8{letter-spacing:-0.03em;}.cls-9{letter-spacing:-0.02em;}.cls-10{letter-spacing:-0.02em;}.cls-11{letter-spacing:-0.09em;}.cls-12{letter-spacing:0em;}.cls-13{letter-spacing:-0.02em;}.cls-14{letter-spacing:-0.09em;}.cls-15{letter-spacing:-0.02em;}.cls-16{letter-spacing:-0.08em;}.cls-17{letter-spacing:-0.03em;}.cls-18{letter-spacing:-0.02em;}.cls-19{letter-spacing:-0.08em;}.cls-20{letter-spacing:-0.01em;}.cls-21{font-size:10.52px;}.cls-22{font-size:7.52px;}</style></defs><title>glovo</title><g id="Capa_2" data-name="Capa 2"><g id="Capa_1-2" data-name="Capa 1"><path class="cls-1" d="M212.34,409.4a.53.53,0,0,1-.5-.23,243.44,243.44,0,0,1-14.67-19.55,3.49,3.49,0,0,0-.62-.7c0-.11-.25-.51-.27-.63v0a8.1,8.1,0,0,0,.7-1.75c6.7-18.95,14.12-38.32,22.68-59.25a3.8,3.8,0,0,0-.27-3.41,3.51,3.51,0,0,0-2.86-1.69L201,321.7c-39.76-1.13-80.88-2.3-120.64-7.85-28.95-4.05-48-25.32-58.18-65l0-.51a3.76,3.76,0,0,0-.42-1.9C6.64,217.55,4.33,183.55,3.91,160.48l-.11-5.59c-.62-30.75-1.25-62.54,9.67-90.83,11.81-30.58,40.73-49.53,86-56.34,18.41-2.77,39.07-4.06,65-4.06,13,0,26.15.31,38.89.61,11.21.25,22.36.51,33.38.57,58.56.32,116,.79,174.31,2.94,3.88.14,7.88.24,12,.33,27.46.62,58.57,1.32,77.66,18.64a3.82,3.82,0,0,0,1,.65c27.51,18.46,40.22,38.89,41.56,66.45,2.14,44,3.62,87-1.7,128.89-3.84,30.31-8.78,56.94-30.33,75.83-20.21,17.7-43,25.7-74,25.93q-33.33.24-66.66.7l-14.95.17c-3.45,0-6.81-.14-10.08-.28s-6.3-.27-9.33-.27c-8.46,0-18.29.95-27.1,8q-15,12-30.08,23.92c-21.36,16.95-43.44,34.48-65,52A3,3,0,0,1,212.34,409.4Z"/><path class="cls-2" d="M546.76,93.67C545.21,61.91,528.83,41.25,504,24.51a5.31,5.31,0,0,0-1-.53C480,3.15,441.51,5.24,411.16,4.12,353.05,2,294.88,1.5,236.74,1.18,191.39.93,144-2.67,98.94,4.1,62.59,9.57,25,24.43,10.21,62.69-1.65,93.43-.21,128,.39,160.55c.56,30.06,4.33,61,18.29,87.61a5.25,5.25,0,0,0,.1,1.61c8.63,33.61,25.59,62.75,61.1,67.71,45.08,6.3,91.09,7,136.55,8.34-8,19.61-15.67,39.41-22.74,59.41a4,4,0,0,0-.92,3.37c0,.08,0,.16,0,.25v0a4.09,4.09,0,0,0,1.48,2.84c4.67,6.88,9.57,13.47,14.89,19.85,1.92,2.31,5,1.63,7,0,31.49-25.55,63.36-50.6,95-75.87,13-10.34,28.27-6.48,45.8-6.69,26.74-.31,53.48-.66,80.22-.86,29-.22,53.78-7.13,76.22-26.79,23-20.12,27.8-48.49,31.56-78.15C550.44,180.64,548.84,136.45,546.76,93.67Zm-11.23-3c.81,5,1.37,10.13,1.74,15.46-1.1-1.13-2.21-2.18-3.09-3.1a68.38,68.38,0,0,0-6.74-6.29c-.49-5.79-1.15-11.54-2-17.21,1,1,2,1.95,2.91,3C530.65,85.1,532.78,88.44,535.53,90.68Zm2.7,47q.12,7.34.18,14.71c-1-1.27-1.93-2.37-2.4-3-1.85-2.49-4.49-6.23-7.54-8.78.15-5.44.22-10.9.18-16.38,1.64,2.12,3.31,4.21,4.9,6.37C535,132.55,536.44,135.43,538.23,137.7Zm-15.76,76.11c2,3.12,4.3,6.08,6,8.59,1.37,2,3.34,5.47,5.62,8.25Q533,238.36,531.41,246c-1.54-2.28-3.21-4.43-4.48-6.2-2.18-3.06-4.71-7.06-7.8-9.72C520.49,224.78,521.59,219.36,522.47,213.81Zm8.5,4.83c-2.32-3.14-4.69-7.72-7.59-11.14.85-6.32,1.5-12.77,2.08-19.26,2.15,2.65,4.27,5.34,6.29,8.1,1.82,2.5,3.53,5.09,5.22,7.68q-.74,10-2,19.84Q532.92,221.3,531,218.64Zm3.53-24.52c-2.13-2.85-5.13-7.8-8.64-10.33,0-.1,0-.19,0-.28.54-6.28,1-12.71,1.46-19.23,1.27,1.81,2.71,3.51,3.89,5.08,1.84,2.48,4,4.73,5.93,7.13.38.47.72.94,1.05,1.38-.15,6.62-.38,13.23-.77,19.84C536.29,196.31,535.19,195,534.5,194.12Zm1.06-24.83c-2-2.36-4-4.62-6-7-.71-.84-1.32-1.7-2-2.53q.38-6.39.63-12.86c1.71,2.15,3.37,4.35,4.93,6.63.53.79,2.93,5.16,5.22,7.44,0,3.78,0,7.55-.09,11.34C537.32,171.23,536.32,170.2,535.56,169.29Zm1.14-41.21a76.34,76.34,0,0,0-8.13-9.06c-.11-5.56-.34-11.12-.71-16.65.84.88,1.69,1.74,2.52,2.59q2.94,3,5.61,6.28c.59.73,1.12,1.43,1.67,2.09.23,5.3.35,10.76.45,16.39C537.59,129.15,537.1,128.59,536.7,128.08ZM534,82.9c-1-1.09-2-2.14-2.94-3.19a53.31,53.31,0,0,0-6.66-6.84,199.54,199.54,0,0,0-4.8-20.65A76.76,76.76,0,0,1,534,82.9Zm-523,23C13.86,40.45,62.19,17,118,12.42c48.23-4,97.69-1.09,146-.73,57.21.43,114.46,1.18,171.63,3.77,31.89,1.44,63.54,3.81,74.75,40.54,6.79,22.24,6.83,47.48,7.32,70.6,1,48.28,4.42,114.54-37.56,145.22-25.58,18.71-57.45,20.1-87.46,20.17q-47.74.12-95.48-.29c-8.46-.09-23.22,20.82-28.61,26C249.19,336.34,229.37,354.52,209,372q9.14-24.74,19.24-49.07a.36.36,0,0,0,0-.09q5.1-12.25,10.37-24.41c1.54-3.53-.25-7.68-4.27-7.78-36.42-.89-72.83-2.13-109.17-4.78C94.3,283.65,61.57,282.3,38,258.59,2.51,222.78,9,152.58,11,105.88ZM511.05,252c1.46,1.92,2.8,4,4.15,6,3.1,4.6,5.78,9.5,8.65,14.25a69.17,69.17,0,0,1-7.66,13.08c-1.63-2.8-3.75-5.45-5.19-7.67-2.51-3.87-5.22-8.62-8.5-12.26A77.06,77.06,0,0,0,511.05,252Zm-63.73,44.76A58.27,58.27,0,0,0,452.54,308c1.29,2.35,2.5,5.28,3.95,8-3,.47-6.06.88-9.14,1.21-1.15-4.07-4.52-8.41-6.24-11.4-1.1-1.91-2.38-4.42-3.88-6.74C440.62,298.36,444,297.58,447.32,296.72Zm9.39,11.17c-2.26-3.85-4.33-8-6.76-11.82q5-1.4,9.94-3.11a69.42,69.42,0,0,0,5.3,10.79c1.41,2.57,3,6.52,5.11,9.47-3,.76-6.07,1.4-9.17,2C459.82,312.6,458,310.15,456.71,307.89Zm12.75-4.37c-2.3-3.68-4.23-7.9-6.47-11.78q5.4-2,10.64-4.54a61.9,61.9,0,0,0,5,9.05,84.23,84.23,0,0,0,8.22,11.42A103.66,103.66,0,0,1,474.72,312C473.51,309,471,306,469.46,303.52Zm13.86-7.6c-2-3.19-3.93-7-6.14-10.43.52-.27,1.05-.48,1.57-.75a80.26,80.26,0,0,0,8.75-5.45c2.09,4.07,5.14,8,7.29,11.72,1.59,2.79,3.28,6.48,5.52,9.36a77.88,77.88,0,0,1-10.85,6.13A90.31,90.31,0,0,0,483.32,295.92Zm-94.48,7.72a91.69,91.69,0,0,0,3.7,9.16c.75,1.71,1.57,3.79,2.56,5.8-3.78-.05-7.49-.1-11.1-.12-.6-3.08-3.44-6.46-4.76-8.65-1.17-1.93-2.22-4.05-3.3-6.17C380.24,303.7,384.54,303.71,388.84,303.64Zm7.84,8.86c-1.57-2.87-2.86-5.94-4.24-9,3.63-.09,7.25-.24,10.87-.43a89.1,89.1,0,0,0,4.74,11.28c.61,1.28,1.21,2.82,1.9,4.34q-4.83,0-9.56-.07C399.22,316.5,397.72,314.42,396.68,312.5Zm14.34.08c-1.64-3.26-3.22-6.54-5.08-9.63,4-.25,8.06-.57,12.07-1,1.57,3.4,3.6,6.64,5.45,9.8,1.12,1.91,2.31,4.5,3.76,6.74-4.21.14-8.41.21-12.57.23C413.47,316.55,412,314.44,411,312.58ZM296.75,333.41c-2.41-6.28-5.3-14.18-9.68-19.55,2.24-2.18,4.51-4.33,6.74-6.52a39.58,39.58,0,0,1,3.14-2.77c1.74,3.15,3.72,6.21,5.18,9.2s2.25,7.85,4.1,11.25C303,327.56,299.79,330.53,296.75,333.41Zm-54.12,22.34c1.1,1.95,2.42,3.81,3.37,5.5,1.54,2.74,2.87,7,5.2,9.44l-6.84,5.46c-1.25-2.37-3.33-4.7-4.47-6.48-1.31-2-2.77-5-4.55-7.3C237.78,360.18,240.2,358,242.63,355.75Zm6.64,3.5c-1.07-1.83-2.27-4.16-3.72-6.18,2.77-2.53,5.55-5,8.3-7.59,1.13,2.11,2.65,4.13,3.64,5.81,1.4,2.37,2.7,4.83,3.92,7.31.55,1.13.84,2.08,1.26,2.94l-8.43,6.73C253.34,365,250.73,361.76,249.27,359.25Zm13-7.56c-1.36-2.08-2.85-4.08-4.33-6.07-.56-.75-1.1-1.57-1.67-2.37q3.66-3.4,7.3-6.85c1.35,2.66,3.12,5.19,4.36,7.35,1.44,2.51,2.75,5.08,4,7.7.36.76.63,1.41.91,2L266,358.92C265.29,356.28,263.47,353.59,262.23,351.69Zm10-8.56c-1.84-3-3.83-5.86-5.79-8.76l-.3-.46c1.58-1.48,3.16-2.94,4.73-4.43,1-.92,1.91-1.86,2.88-2.78,1.14,2.18,2.47,4.28,3.61,6.32a70.1,70.1,0,0,1,4.15,8.54,13.21,13.21,0,0,0,1.62,3.62l-6.68,5.33C275.53,347.77,273.37,344.92,272.27,343.13Zm-47.85,37c1.33,2.47,2.87,4.81,4.35,7.19.18.3.36.57.54.85l-7.21,5.76a74.65,74.65,0,0,0-5.13-8.05c-1-1.29-2-3.05-3.16-4.63,2.53-2.17,5.07-4.34,7.59-6.53C222.41,376.8,223.72,378.8,224.42,380.13Zm-32.09-65.52c-1.28-2.07-2.58-4.12-3.78-6.24-1.32-2.32-2.58-5.64-4.15-8.58l10.44.3c1.73,3.05,4.16,5.93,5.92,8.58,1.25,1.89,2.46,4.33,3.94,6.38ZM59.7,292.55c-2.14-3.27-4.11-7-6.29-10.4a101.47,101.47,0,0,0,14.24,5.6c1.76,3.78,3.64,7.51,5.66,11.13,1.37,2.46,2.81,5.16,4.39,7.75A77.72,77.72,0,0,1,65.83,303C64.52,299.22,61.87,295.85,59.7,292.55Zm16.19,4.75c-1.64-2.7-3-5.74-4.69-8.5,3.7,1,7.46,1.89,11.25,2.61a81.89,81.89,0,0,0,6,10.86c1.2,2,2.39,4.35,3.7,6.64q-4.93-.51-9.8-1.36C80.62,303.9,77.87,300.55,75.89,297.3ZM93,302c-1.94-3.19-4-6.65-6.26-9.8l2.38.38c3.52.51,7.06.92,10.6,1.36,1.21,3,2.84,5.89,4.24,8.75,1.08,2.18,2.13,4.89,3.36,7.49-3.17-.21-6.37-.44-9.57-.7C96.29,306.81,94.41,304.34,93,302Zm15.45.5c-1.35-2.55-2.74-5.36-4.34-8,4.42.53,8.85,1,13.29,1.4a50.82,50.82,0,0,0,5,8.8c1.38,2.16,2.76,4.52,4.31,6.73-4.63-.29-9.25-.55-13.87-.88C111.53,307.64,109.7,304.89,108.41,302.45Zm18,1.51c-1.73-2.56-3.58-5.22-5.54-7.75q5.3.48,10.58.88c1.13,3.49,3.49,6.81,5.28,9.72,1,1.58,1.93,3.52,3,5.4-2.89-.16-5.78-.37-8.67-.55A41.69,41.69,0,0,0,126.45,304Zm14.78,2.25c-1.67-2.68-3.28-5.9-5.16-8.78,4.1.29,8.2.57,12.31.81A109.85,109.85,0,0,0,154,308.52c.78,1.39,1.53,3,2.29,4.52-3.67-.18-7.34-.35-11-.55C144.09,310.27,142.46,308.18,141.23,306.21Zm16.19.19c-1.7-2.67-3.45-5.4-5.36-8q7.08.39,14.16.7a73,73,0,0,0,4.82,9.33c.87,1.58,1.77,3.51,2.8,5.41l-12.13-.55C160.44,310.84,158.75,308.49,157.42,306.4Zm16.85.09c-1.33-2.23-2.6-4.82-4.06-7.21,3.12.13,6.25.26,9.38.37,1.3,3.9,4,8,5.52,10.82.56,1,1.19,2.45,1.89,3.92l-7.67-.3C177.77,311.41,175.7,308.86,174.27,306.49Zm28.23-.93c-1.13-1.63-2.27-3.53-3.52-5.36l11.5.27q1.64,2.59,3.29,5.18a60.44,60.44,0,0,1,4.2,7.66c.35.76.57,1.52.85,2.22-3.22-.1-6.43-.22-9.65-.33C207.8,311.71,204.45,308.36,202.5,305.56Zm19.42,7a41.28,41.28,0,0,0-3.67-6.58c-1.13-1.87-2.44-3.62-3.73-5.38l12.37.28C225.23,304.74,223.56,308.63,221.92,312.53ZM36.06,270.79a77.41,77.41,0,0,0,12.91,9c1,4.06,3.62,7.91,5.79,11.24,1.94,3,3.81,6.43,5.87,9.64C49,294.62,41.35,283.27,36.06,270.79ZM215.73,399c-.78.62-1.56,1.24-2.33,1.87-3.12-3.79-6-7.74-8.79-11.8,2.09-1.76,4.16-3.54,6.24-5.31.71,1.26,1.52,2.47,2.16,3.59,1.8,3.15,3.79,6.18,5.69,9.27Zm17.08-13.65a57.76,57.76,0,0,0-4-6.25c-1.47-2.37-3-4.69-4.35-7.12,2.71-2.38,5.41-4.76,8.1-7.17,1.25,2.42,3,4.77,4.15,6.77s2.57,5,4.43,7.12l-6.07,4.85Zm53.32-42.55c-.37-3.05-2.82-6.47-4.1-8.68-1.82-3.14-3.77-6.53-5.89-9.72,2.82-2.69,5.61-5.41,8.41-8.12,1,1.9,2.08,3.8,2.94,5.81,2.05,4.78,3.78,9.72,5.87,14.49-1.76,1.66-3.45,3.2-5,4.41Zm24.92-21.13c-.94-3.09-3-6.28-4.11-8.45a112.08,112.08,0,0,0-6.25-10.84c3.43-1.29,6.79-.55,13.16-.29a88.18,88.18,0,0,0,4.52,10.33c.64,1.35,1.55,3.67,2.7,5.83a48.57,48.57,0,0,0-5,1.06A22.15,22.15,0,0,0,311.05,321.69Zm15-4.12c-1.2-2-2.57-3.81-2.77-4.15-2.06-3.47-3.61-7.43-5.38-11.2,5.57.06,11.21.19,16.91.35,1.19,3,2.7,5.87,3.72,8.45.7,1.79,1.29,4.06,2.19,6.05A117.52,117.52,0,0,0,326.05,317.57Zm19.34-.38c-.54-2.7-2.22-5.48-3.25-7.76-.92-2-1.82-4.41-2.87-6.72l14.68.46c.87,2,2,4,2.83,5.75,1.19,2.53,2.21,6.3,3.86,9.13C355.69,317.76,350.54,317.41,345.39,317.19Zm28.7,1.29c-3,0-6.23-.08-9.54-.23-.4-3.31-2.84-6.78-4.18-9.49-.82-1.67-1.63-3.59-2.53-5.47,4.51.14,9,.23,13.57.31.85,1.84,1.87,3.61,2.78,5.25,1.67,3,3.44,6,5,9,.11.21.19.38.28.57C377.67,318.46,375.86,318.46,374.09,318.48Zm58.06-.19c-1.27-3.07-3.87-6-5.48-8.5s-3.38-5.52-5.21-8.23q5.4-.66,10.73-1.58c1.49,2.93,3.59,5.76,4.93,8.23,1.62,3,3.28,5.94,4.83,9l.23.47C438.85,317.93,435.5,318.13,432.15,318.29Zm72-20.74c-2.05-3.62-4.95-7.14-6.81-10.27s-4-7.32-6.8-10.24a72.93,72.93,0,0,0,9.77-9.23c2.11,4.12,5.27,8,7.64,11.61,1.71,2.64,3.21,6.45,5.11,9.63A66.15,66.15,0,0,1,504.19,297.55Zm21.48-29.89c-2.67-4.37-5.29-8.78-8.2-13a39,39,0,0,0-4.77-6A106.68,106.68,0,0,0,518,234.24c1.81,2.63,4,5.12,5.63,7.53s3.37,5.13,4.94,7.78c.51.86,1,1.78,1.41,2.7-.52,2.25-1,4.53-1.54,6.77A83.28,83.28,0,0,1,525.67,267.66Z"/><path class="cls-2" d="M485.33,54.42c13.55,18.44,7.92,48.2,12.91,69.81a.92.92,0,0,0,1.79,0c4.12-23.93,4.63-56.46-10.3-76.82-18-24.49-66.19-19.25-91.33-17.57a.24.24,0,0,0-.07.47C424.94,40.39,466.32,28.54,485.33,54.42Z"/><path class="cls-2" d="M119.66,267.59a.9.9,0,0,0,.22-1.74c-15.41-6-32.07-5.18-47.9-9.72-20.6-5.91-28.5-22.38-42.06-37.09a.39.39,0,0,0-.64.4C41.21,260.35,82.46,272.63,119.66,267.59Z"/><path class="cls-2" d="M135.82,266.42c-1.75-.11-3.48-.21-5.22-.42-1.57-.18-2.37.66-3.69.91-.53.09-.58.79-.29,1.14.43.53.44,1.33,1.16,1.81a12.76,12.76,0,0,0,5.17,1.85c3.79.72,7.81,1.74,11.1-.76a1,1,0,0,0,.18-1.46C142,266.64,139.13,266.65,135.82,266.42Z"/><path class="cls-2" d="M384.21,33.42c1.84-.05,4.41-.47,4.62-2.74.36-3.73-11.72-.58-13.39.12a.78.78,0,0,0,0,1.48C378.36,33.49,381.08,33.52,384.21,33.42Z"/><path class="cls-2" d="M467.87,265.77c-7.46,2.08-15.13,3.7-22.68,5.42-7.35,1.67-16,.95-22.84,4.36a.76.76,0,0,0,0,1.26c6.2,3.74,14.77,2.32,21.55,1.19a52.83,52.83,0,0,0,24.69-10.46C469.41,266.92,468.94,265.47,467.87,265.77Z"/><path class="cls-2" d="M62.84,40.78c12.1-2.22,23.84-6,36-8,12.6-2.1,24.43-3.4,36.68-7.37.78-.26.65-1.53-.2-1.51-22.77.42-54.58-.2-73.1,15.82C61.71,40.15,62.3,40.87,62.84,40.78Z"/><text class="cls-3" transform="translate(71.2 102.26)"><tspan class="cls-4">H</tspan><tspan x="29.17" y="0">o</tspan><tspan class="cls-5" x="47.6" y="0">l</tspan><tspan class="cls-6" x="55.55" y="0">a!!</tspan></text><text class="cls-7" transform="translate(60.63 159.36)"><tspan xml:space="preserve"> Soy Vik, di</tspan><tspan class="cls-8" x="160.13" y="0">s</tspan><tspan class="cls-9" x="171.94" y="0">e</tspan><tspan x="186" y="0">na</tspan><tspan class="cls-10" x="219.29" y="0">d</tspan><tspan x="237.26" y="0">o</tspan><tspan class="cls-11" x="253.07" y="0">r</tspan><tspan class="cls-12" x="264.57" y="0">a </tspan><tspan class="cls-13" x="292.44" y="0">g</tspan><tspan class="cls-14" x="306.41" y="0">r</tspan><tspan x="317.92" y="0">afica y</tspan><tspan class="cls-9" x="0" y="52.09">d</tspan><tspan x="18.06" y="52.09">e</tspan><tspan class="cls-15" x="32.77" y="52.09">s</tspan><tspan x="45.19" y="52.09">a</tspan><tspan class="cls-8" x="62.2" y="52.09">r</tspan><tspan class="cls-16" x="76.27" y="52.09">r</tspan><tspan x="88.12" y="52.09">ol</tspan><tspan class="cls-17" x="112.04" y="52.09">l</tspan><tspan x="118.85" y="52.09">a</tspan><tspan class="cls-10" x="135.87" y="52.09">d</tspan><tspan x="153.84" y="52.09">o</tspan><tspan class="cls-11" x="169.64" y="52.09">r</tspan><tspan x="181.14" y="52.09">a </tspan><tspan class="cls-18" x="209.01" y="52.09">f</tspan><tspan class="cls-19" x="222.25" y="52.09">r</tspan><tspan class="cls-20" x="234.1" y="52.09">o</tspan><tspan x="249.42" y="52.09">nt </tspan><tspan class="cls-9" x="284.8" y="52.09">e</tspan><tspan x="298.86" y="52.09">nd.</tspan></text><text class="cls-21" transform="matrix(0, -1.71, 1, 0, 260.9, 131.29)">l</text><text class="cls-22" transform="matrix(-1.49, -1.55, 0.72, -0.69, 396.62, 127.37)">l</text></g></g></svg>