<svg xmlns="http://www.w3.org/2000/svg" viewBox="0 0 661.96 134.4"><defs><style>.cls-1{fill:#db9d9b;}.cls-2{fill:#c86aa0;}.cls-3{fill:#c65c7f;}</style></defs><title>mywork</title><g id="Capa_2" data-name="Capa 2"><g id="Capa_1-2" data-name="Capa 1"><path class="cls-1" d="M629.15,43.78c1.43,3.86,3.79,21.08.05,22.1s-9.87-14.73-11-18.69c-.81-3-.73-11.31,2.51-12.2S627.72,39.94,629.15,43.78Z"/><path class="cls-1" d="M630.16,90.63c-1.43-3.86-3.8-21.08,0-22.1s9.87,14.73,11,18.69c.81,3,.73,11.31-2.51,12.2S631.58,94.47,630.16,90.63Z"/><path class="cls-1" d="M653.08,66.7c-3.86,1.43-21.08,3.8-22.1,0s14.73-9.87,18.69-11c3-.81,11.31-.73,12.2,2.51S656.92,65.28,653.08,66.7Z"/><path class="cls-1" d="M606.23,67.71c3.86-1.43,21.08-3.8,22.1,0s-14.73,9.87-18.69,11c-3,.81-11.31.73-12.2-2.52S602.38,69.13,606.23,67.71Z"/><path class="cls-1" d="M612.74,51c3.73,1.71,17.58,12.22,15.66,15.59s-17.4-3.43-21-5.47c-2.66-1.52-8.52-7.48-6.85-10.4S609,49.29,612.74,51Z"/><path class="cls-1" d="M646.57,83.41C642.84,81.7,629,71.19,630.91,67.82s17.4,3.43,21,5.47c2.66,1.52,8.52,7.47,6.85,10.4S650.3,85.12,646.57,83.41Z"/><path class="cls-1" d="M645.86,50.29C644.15,54,633.64,67.87,630.27,66s3.43-17.4,5.47-21c1.52-2.66,7.48-8.52,10.4-6.85S647.57,46.56,645.86,50.29Z"/><path class="cls-1" d="M613.45,84.12c1.71-3.73,12.22-17.58,15.59-15.66s-3.43,17.4-5.47,21c-1.52,2.66-7.48,8.51-10.4,6.85S611.74,87.85,613.45,84.12Z"/><path class="cls-2" d="M634.09,66a4.69,4.69,0,1,1-5.76-3.29A4.69,4.69,0,0,1,634.09,66Z"/><path class="cls-1" d="M31.8,43.78c1.43,3.86,3.79,21.08.05,22.1S22,51.15,20.89,47.19c-.81-3-.73-11.31,2.51-12.2S30.37,39.94,31.8,43.78Z"/><path class="cls-1" d="M32.81,90.63c-1.43-3.86-3.8-21.08-.05-22.1s9.87,14.73,11,18.69c.81,3,.73,11.31-2.51,12.2S34.23,94.47,32.81,90.63Z"/><path class="cls-1" d="M55.73,66.7c-3.86,1.43-21.08,3.8-22.1,0s14.73-9.87,18.69-11c3-.81,11.31-.73,12.2,2.51S59.57,65.28,55.73,66.7Z"/><path class="cls-1" d="M8.88,67.71c3.86-1.43,21.08-3.8,22.1,0s-14.73,9.87-18.69,11c-3,.81-11.31.73-12.2-2.52S5,69.13,8.88,67.71Z"/><path class="cls-1" d="M15.39,51C19.12,52.71,33,63.22,31.05,66.59s-17.4-3.43-21-5.47c-2.66-1.52-8.52-7.48-6.85-10.4S11.66,49.29,15.39,51Z"/><path class="cls-1" d="M49.22,83.41C45.49,81.7,31.64,71.19,33.56,67.82s17.4,3.43,21,5.47c2.66,1.52,8.52,7.47,6.85,10.4S53,85.12,49.22,83.41Z"/><path class="cls-1" d="M48.51,50.29C46.8,54,36.29,67.87,32.92,66s3.43-17.4,5.47-21c1.52-2.66,7.48-8.52,10.4-6.85S50.22,46.56,48.51,50.29Z"/><path class="cls-1" d="M16.1,84.12c1.71-3.73,12.22-17.58,15.59-15.66s-3.43,17.4-5.47,21c-1.52,2.66-7.48,8.51-10.4,6.85S14.39,87.85,16.1,84.12Z"/><path class="cls-2" d="M36.74,66A4.69,4.69,0,1,1,31,62.7,4.69,4.69,0,0,1,36.74,66Z"/><path class="cls-3" d="M131.42,73c-.16,13-.16,26-.16,39.13a31.58,31.58,0,0,1-.93,8.5c-.92,3.56-3.55,5.88-6.8,6a7.74,7.74,0,0,1-7.27-4.79,14.71,14.71,0,0,1-1.39-5.72,259.73,259.73,0,0,1,0-43.92c1.24-15,2.47-29.85,5.72-44.54a84.65,84.65,0,0,1,4.18-13.92,32,32,0,0,1,3.4-6.49c4-5.11,10.2-5.57,15-.93a26.15,26.15,0,0,1,6.19,10c3.24,9.12,4.17,18.56,5.41,28,.46,2.94.77,6,1.08,9,.16,1.08,0,2.17,1.55,2.79,1.23-1.4,1.54-3.25,2-4.95,3.4-12.84,7-25.68,11.9-38.2a43,43,0,0,1,2.63-5.26c3.56-4.64,8.82-4.95,13-.93a13.57,13.57,0,0,1,3.72,7.58C192,22,192.35,29.55,193.28,37c2.93,24,3.24,47.94,3.09,72.06-.16,1.86,0,3.56-.31,5.42-.62,3.71-2.63,5.87-5.88,6-3.4.31-6.18-1.55-6.8-5.41a112.59,112.59,0,0,1-1.55-12.68c-1.24-15-2.32-30.16-3.4-45.16L177.66,45c-.16-1.24-.16-2.78-1.24-3.87-1.39,1.4-1.55,2.79-1.86,4.33C171.47,57.38,169,69.29,165.13,81a28.71,28.71,0,0,1-2.78,6.81c-3.87,6.49-11.91,6.65-15.78,0-3.4-6-4.95-12.84-6.18-19.49-1.7-9.28-2.17-18.71-3.41-28-.46-3.87-1.85-3.56-2.32.31C133.27,51.66,131.57,62,131.42,73Z"/><path class="cls-3" d="M248.33,114c-2.63,10.52-10.52,20.42-22.12,20.42-5.87,0-9.9-2.63-14.54-5.57a8.78,8.78,0,0,1-3.24-3.87,5.39,5.39,0,0,1,.46-6.18,4.9,4.9,0,0,1,5.72-1.55A19.61,19.61,0,0,0,222,118c4.33-.15,7.11-2.32,9-6.18,2.63-4.95,4.33-13.61,4.33-19.33,0-2.17-.93-2.32-2.63-1.09l-2.17,2a17,17,0,0,1-10.67,4.17c-13.45,0-18.25-18.4-18.25-29.07,0-5.88,2.48-26.91,7-31.4a7,7,0,0,1,7.27-2.47,5.76,5.76,0,0,1,4.64,5.26,13.43,13.43,0,0,1,.15,5.56,87.11,87.11,0,0,0-3.09,23.2A50.15,50.15,0,0,0,218.63,80c.31,1.55,1.4,3.56,3.41,3.56,9.58.46,13.14-38.36,13.45-42.53a6.53,6.53,0,0,1,6.8-6.34c3.25,0,6,2.47,6.81,6.65.77,4.79,1.39,9.9,1.86,14.85C252,69.91,252,100.37,248.33,114Z"/><path class="cls-3" d="M306.16,26.61c3.09,0,6.19,2.94,7.58,7.73a18.63,18.63,0,0,1,.62,6.49c-.16,10.52.15,20.88.77,31.4.15,1.24-.31,2.78,1.7,4,2-3.09,2.94-6.5,4-9.74a251.7,251.7,0,0,1,9.44-26.29c.46-.93.77-1.86,1.23-2.63,2.79-5.41,8.51-5.73,12.22-.93a14.37,14.37,0,0,1,2.78,7c1.09,5.26,1.86,10.67,2.94,15.93a51.53,51.53,0,0,0,4,12.52c.78,1.24,1.24,2.94,2.94,2.79,1.86,0,2.32-1.86,2.78-3.25a98.44,98.44,0,0,0,5.42-28.3,20.25,20.25,0,0,1,.15-4.33,5.48,5.48,0,0,1,9.28-2.78,11.83,11.83,0,0,1,3.71,7.88,78.38,78.38,0,0,1-2.78,30c-1.55,4.8-3.71,9.13-7.58,12.53-7.11,6.5-15.93,6.34-22.89-.62a36.11,36.11,0,0,1-8.35-13c-.46-1.55-1.39-4.17-2.32-4-1.08,0-1.54,2.78-2,4.33-1.24,3.71-2.32,7.58-3.87,11.14a23.56,23.56,0,0,1-6,9c-5.87,5.41-13,4.63-17.47-2-2.79-4-4.18-8.66-5.1-13.6-1.71-8.51-1.86-17.33-2.17-26a11.89,11.89,0,0,0,0-2.31C296.73,42.54,297,26.61,306.16,26.61Z"/><path class="cls-3" d="M394.77,43.77c3.4-4.48,8.35-6.65,13-9.43a5.58,5.58,0,0,1,4.95-.16,19.88,19.88,0,0,1,6.81,4.33A69.32,69.32,0,0,1,430.8,53.05c5.57,9.75,3.41,25-4.48,34.8a28.67,28.67,0,0,1-14.38,9.59c-14.85,4.63-26.6-4.8-28.3-19.34a28.71,28.71,0,0,1,0-3.71A51.21,51.21,0,0,1,394.77,43.77Zm6.5,33.56c.77,3.87,2.47,4.64,6,2.94A12.09,12.09,0,0,0,413,73.62c2.78-7.11,1.7-13.92-2-20.41-1.24-2.32-2.32-2.32-3.56,0a64,64,0,0,0-6.34,21.34A17.16,17.16,0,0,0,401.27,77.33Z"/><path class="cls-3" d="M467.61,41.3A49,49,0,0,1,476.27,34c2.63-1.85,5.57-2.94,9-2a5.62,5.62,0,0,1,4.33,4.48c.31,2.32-.62,3.87-2.48,5.26C474,52,465.44,65.42,460,81a51.69,51.69,0,0,0-2.78,11c-.62,3.4-2.32,5.11-4.95,5.42-3.1.3-5.72-1.4-6.81-4.8a76,76,0,0,1-3.4-22.89q0-11.59.93-23.19c.31-5.11,1.7-11.45,7.89-11.76,3.24-.15,5.56,1.55,7.26,4.33,1.55,2.48,1.09,5.57,2.94,8.82Z"/><path class="cls-3" d="M497.61,14.39A51.25,51.25,0,0,1,498.38,6c.62-3.71,2.78-5.72,5.88-6,3.09-.16,5.72,2,6.8,5.56A29.1,29.1,0,0,1,512,13c0,10.82,0,21.49.15,32.32,0,1.55-.92,4,1.09,4.64,1.85.77,2.63-1.55,3.86-2.78l9.13-9c2.47-2.32,5.41-2.79,7.88-1.55,3.87,2,4.95,6.19,2,9.59-5.87,6.8-10.36,14.69-16.08,21.65-2.63,3.25-2.63,3.71,1.39,5.26a78.35,78.35,0,0,0,8.51,2.78,54.3,54.3,0,0,1,12.53,5.72,21.35,21.35,0,0,1,2.93,2.48c2.63,2.63,3.25,5.25,2,8-1.39,3.09-4,4.33-7.26,4.33a37.74,37.74,0,0,1-14.23-3.4c-3.4-1.55-6.65-3.1-10-4.34-2.48-1.08-3.1-.77-3.25,2-.31,6.65-.31,13.3-.47,19.95-.15,2.62,0,5.41-.15,8-.15,3.25-1.7,5.41-4.49,6a6.52,6.52,0,0,1-7.11-3.56c-1.24-2.32-1.55-5.1-1.85-7.73a302.76,302.76,0,0,1-2.32-39.28C496.52,54.29,496.83,34.34,497.61,14.39Z"/><path class="cls-3" d="M356.42,127.31a7.22,7.22,0,0,1-1.39.09c-4.95-.09-7.89-1.23-8.82-3.6-.77-2.09,1.4-4.37,5.42-5.41A76,76,0,0,1,363.07,117,520.31,520.31,0,0,1,427.4,116c9.75.48,19.49,1,29.08,2.28,1.85.29,3.86.57,5.57.95,3.71,1,6,3,5.56,5-.46,2.28-2.78,3.61-6.18,4.18a35.23,35.23,0,0,1-9,.38c-13.92-.67-28-1.24-42.07-1.43C392.61,127.21,374.21,126.74,356.42,127.31Z"/></g></g></svg>