<svg xmlns="http://www.w3.org/2000/svg" xmlns:xlink="http://www.w3.org/1999/xlink" viewBox="0 0 1845.82 679.21"><defs><style>.cls-1{fill:none;}.cls-2{clip-path:url(#clip-path);}.cls-3{fill:#bcdae3;}.cls-4,.cls-5{fill:#fafeff;}.cls-4{opacity:0.25;}.cls-5{opacity:0.3;}</style><clipPath id="clip-path"><rect class="cls-1" x="189.65" width="1397.6" height="679.21"/></clipPath></defs><title>nubes</title><g id="Capa_2" data-name="Capa 2"><g id="Capa_1-2" data-name="Capa 1"><g class="cls-2"><rect class="cls-3" x="189.65" width="1397.6" height="679.21"/><path class="cls-4" d="M606.35,140.21a49.1,49.1,0,0,0-19.35,4,58.92,58.92,0,0,0-91.78-38.87,84.12,84.12,0,0,0-157.74,37.37,57.2,57.2,0,1,0-27.43,107.39h.33a69.45,69.45,0,0,0,130,26.78,45.57,45.57,0,0,0,49.69-7.12,54.89,54.89,0,0,0,97.7-34.38c0-.09,0-.17,0-.26a49.25,49.25,0,1,0,18.59-94.86Z"/><path class="cls-4" d="M1696.56,130.67a26.3,26.3,0,0,0-10.33,2.11,31.44,31.44,0,0,0-49-20.74A44.89,44.89,0,0,0,1553.07,132a30.53,30.53,0,1,0-14.64,57.32h.17A37.06,37.06,0,0,0,1608,203.58a24.32,24.32,0,0,0,26.53-3.8,29.29,29.29,0,0,0,52.14-18.35s0-.09,0-.13a26.29,26.29,0,1,0,9.92-50.63Z"/><path class="cls-4" d="M276.19,482.51a38.43,38.43,0,0,0-15.11,3.09,46,46,0,0,0-71.72-30.37,65.72,65.72,0,0,0-123.24,29.2,44.69,44.69,0,1,0-21.43,83.91h.25a54.26,54.26,0,0,0,101.57,20.92,35.6,35.6,0,0,0,38.83-5.56,42.89,42.89,0,0,0,76.34-26.86c0-.07,0-.14,0-.21a38.48,38.48,0,1,0,14.52-74.11Z"/><path class="cls-4" d="M1130.18,82.8a41.34,41.34,0,0,0-16.33,3.34,49.71,49.71,0,0,0-77.45-32.81A71,71,0,0,0,903.28,84.87a48.27,48.27,0,1,0-23.15,90.63h.27a58.61,58.61,0,0,0,109.71,22.6,38.46,38.46,0,0,0,41.94-6,46.33,46.33,0,0,0,82.46-29c0-.08,0-.15,0-.22a41.56,41.56,0,1,0,15.68-80Z"/><path class="cls-4" d="M1528.47,490.1A72.48,72.48,0,0,0,1456,417.63c-1.45,0-2.88.05-4.31.13a86.89,86.89,0,0,0-153.37-23.39,40.64,40.64,0,0,0-64.42,33c0,.07,0,.14,0,.22a72.47,72.47,0,1,0,41.8,134.9,74.06,74.06,0,0,0,134.56,28.36,40.62,40.62,0,0,0,61.89-30.11A72.49,72.49,0,0,0,1528.47,490.1Z"/><path class="cls-4" d="M821.23,532.26a53.57,53.57,0,0,0-53.57-53.57c-1.07,0-2.13,0-3.18.11a64.22,64.22,0,0,0-113.35-17.29,30,30,0,0,0-47.61,24.39v.16a53.56,53.56,0,1,0,30.9,99.71,54.73,54.73,0,0,0,99.44,21,30,30,0,0,0,45.75-22.25A53.58,53.58,0,0,0,821.23,532.26Z"/><path class="cls-5" d="M1845.82,463.12a33.23,33.23,0,0,0-33.23-33.23q-1,0-2,.06a39.84,39.84,0,0,0-70.31-10.73,18.64,18.64,0,0,0-29.54,15.14s0,.06,0,.1a33.23,33.23,0,1,0,19.16,61.85,34,34,0,0,0,61.69,13,18.62,18.62,0,0,0,28.37-13.8A33.24,33.24,0,0,0,1845.82,463.12Z"/></g></g></g></svg>