<svg xmlns="http://www.w3.org/2000/svg" viewBox="0 0 1397.6 679.21"><defs><style>.cls-1{fill:#bcdae3;}.cls-2{fill:#fafeff;opacity:0.25;}.cls-3{fill:none;}</style></defs><title>nubes_1</title><g id="Capa_2" data-name="Capa 2"><g id="Capa_1-2" data-name="Capa 1"><rect class="cls-1" width="1397.6" height="679.21"/><path class="cls-2" d="M416.7,140.21a49.1,49.1,0,0,0-19.35,4,58.92,58.92,0,0,0-91.78-38.87,84.12,84.12,0,0,0-157.74,37.37A57.2,57.2,0,1,0,120.4,250.06h.33a69.45,69.45,0,0,0,130,26.78,45.58,45.58,0,0,0,49.7-7.12,54.89,54.89,0,0,0,97.69-34.38c0-.09,0-.17,0-.26a49.25,49.25,0,1,0,18.59-94.86Z"/><path class="cls-2" d="M940.53,82.8a41.34,41.34,0,0,0-16.33,3.34,49.71,49.71,0,0,0-77.45-32.81A71,71,0,0,0,713.63,84.87a48.27,48.27,0,1,0-23.15,90.63h.27a58.61,58.61,0,0,0,109.71,22.6,38.48,38.48,0,0,0,41.95-6,46.32,46.32,0,0,0,82.45-29c0-.08,0-.15,0-.22a41.56,41.56,0,1,0,15.68-80Z"/><path class="cls-2" d="M1338.82,490.1a72.48,72.48,0,0,0-72.48-72.47c-1.45,0-2.88.05-4.31.13a86.89,86.89,0,0,0-153.37-23.39,40.64,40.64,0,0,0-64.42,33c0,.07,0,.14,0,.22a72.47,72.47,0,1,0,41.8,134.9,74.06,74.06,0,0,0,134.56,28.36,40.62,40.62,0,0,0,61.89-30.11A72.49,72.49,0,0,0,1338.82,490.1Z"/><path class="cls-2" d="M631.58,532.26A53.57,53.57,0,0,0,578,478.69c-1.07,0-2.13,0-3.18.11a64.22,64.22,0,0,0-113.35-17.29,30,30,0,0,0-47.61,24.39v.16a53.56,53.56,0,1,0,30.9,99.71,54.73,54.73,0,0,0,99.44,21A30,30,0,0,0,590,584.48,53.58,53.58,0,0,0,631.58,532.26Z"/><path class="cls-3" d="M1349,189.29h-.17A30.53,30.53,0,1,1,1363.42,132a44.91,44.91,0,0,1,34.18-41.89V0H0V455A46,46,0,0,1,71.43,485.6a38.49,38.49,0,1,1,.59,71c0,.07,0,.14,0,.21A42.87,42.87,0,0,1,0,588.29v90.92H1397.6V220.88A37,37,0,0,1,1349,189.29Z"/><path class="cls-2" d="M1363.42,132a30.53,30.53,0,1,0-14.64,57.32h.17a37,37,0,0,0,48.65,31.59V90.09A44.91,44.91,0,0,0,1363.42,132Z"/><path class="cls-2" d="M72,556.83c0-.07,0-.14,0-.21a38.48,38.48,0,1,0-.59-71A46,46,0,0,0,0,455V588.29a42.87,42.87,0,0,0,72-31.46Z"/></g></g></svg>