<svg xmlns="http://www.w3.org/2000/svg" viewBox="0 0 539.15 538.34"><defs><style>.cls-1,.cls-2{fill:#fff;}.cls-2{font-size:66.9px;font-family:SlimeYogurtDemo, Slime Yogurt Demo;}.cls-3{fill:#dfafcd;}.cls-4{fill:#db9d9b;}</style></defs><title>Recurso 17</title><g id="Capa_2" data-name="Capa 2"><g id="Capa_1-2" data-name="Capa 1"><path class="cls-1" d="M291.27,495.2a12.34,12.34,0,1,1-15.16-8.65A12.33,12.33,0,0,1,291.27,495.2Z"/><path class="cls-1" d="M486.52,155a12.34,12.34,0,1,1-15.16-8.65A12.35,12.35,0,0,1,486.52,155Z"/><path class="cls-1" d="M98.53,114.81a12.34,12.34,0,1,1-15.16-8.65A12.35,12.35,0,0,1,98.53,114.81Z"/><text class="cls-2" transform="translate(141.62 109.07) rotate(-34.47)">V</text><text class="cls-2" transform="translate(166.2 92.69) rotate(-28.96)">i</text><text class="cls-2" transform="translate(175.03 87.59) rotate(-24.86)">c</text><text class="cls-2" transform="translate(192.21 79.73) rotate(-20.55)">t</text><text class="cls-2" transform="translate(202.52 75.54) rotate(-15.78)">o</text><text class="cls-2" transform="translate(224.55 69.25) rotate(-9.4)">r</text><text class="cls-2" transform="translate(245.31 65.94) rotate(-5.3)">i</text><text class="cls-2" transform="translate(255.22 64.76) rotate(-0.93)">a</text><text class="cls-2" transform="matrix(1, 0.09, -0.09, 1, 280.24, 64.63)"> </text><text class="cls-2" transform="translate(295.35 65.1) rotate(12.64)">D</text><text class="cls-2" transform="translate(332.59 73.86) rotate(21.44)">u</text><text class="cls-2" transform="translate(355.55 82.81) rotate(28.22)">n</text><text class="cls-2" transform="matrix(0.83, 0.56, -0.56, 0.83, 376.46, 94.11)">c</text><text class="cls-2" transform="translate(391.93 104.31) rotate(40.18)">a</text><text class="cls-2" transform="translate(410.86 120.23) rotate(46.9)">n</text><text class="cls-2" transform="translate(427.04 137.73) rotate(52.37)"> </text><text class="cls-2" transform="translate(436.68 150.17) rotate(56.76)"> </text><text class="cls-2" transform="translate(445.35 163.32) rotate(61.17)"> </text><text class="cls-2" transform="matrix(0.41, 0.91, -0.91, 0.41, 452.97, 177.1)"> </text><text class="cls-2" transform="matrix(0.34, 0.94, -0.94, 0.34, 459.5, 191.39)"> </text><text class="cls-2" transform="translate(465.35 205.45) rotate(77.06)">G</text><text class="cls-2" transform="translate(472.56 237.69) rotate(84.57)">r</text><text class="cls-2" transform="translate(474.39 254.07) rotate(89.07)">a</text><text class="cls-2" transform="translate(474.89 279.14) rotate(96.78)">p</text><text class="cls-2" transform="translate(471.95 305.51) rotate(104.33)">h</text><text class="cls-2" transform="translate(464.5 333.12) rotate(109.76)">i</text><text class="cls-2" transform="matrix(-0.4, 0.91, -0.91, -0.4, 461.24, 342.77)">c</text><text class="cls-2" transform="matrix(-0.48, 0.88, -0.88, -0.48, 453.62, 359.95)"> </text><text class="cls-2" transform="matrix(-0.59, 0.81, -0.81, -0.59, 447.13, 373.61)">D</text><text class="cls-2" transform="translate(424.1 404.26) rotate(134.41)">e</text><text class="cls-2" transform="matrix(-0.77, 0.64, -0.64, -0.77, 409.09, 419.59)">s</text><text class="cls-2" transform="translate(395.93 430.55) rotate(143.54)">i</text><text class="cls-2" transform="matrix(-0.85, 0.53, -0.53, -0.85, 387.98, 436.77)">g</text><text class="cls-2" transform="matrix(-0.9, 0.43, -0.43, -0.9, 369.66, 448.36)">n</text><text class="cls-2" transform="translate(348.32 458.61) rotate(160.71)">e</text><text class="cls-2" transform="translate(328.25 465.74) rotate(166.88)">r</text><text class="cls-2" transform="matrix(-0.99, 0.13, -0.13, -0.99, 306.13, 470.79)"> </text><text class="cls-2" transform="translate(290.54 472.95) rotate(176.63)"> </text><text class="cls-2" transform="matrix(-1, -0.02, 0.02, -1, 274.8, 473.91)"> </text><text class="cls-2" transform="translate(259.09 473.68) rotate(-174.68)"> </text><text class="cls-2" transform="translate(243.8 472.77) rotate(-168.23)">F</text><text class="cls-2" transform="translate(215.63 466.86) rotate(-161.29)">r</text><text class="cls-2" transform="matrix(-0.92, -0.4, 0.4, -0.92, 199.28, 461.64)">o</text><text class="cls-2" transform="translate(178.87 452.87) rotate(-150.06)">n</text><text class="cls-2" transform="matrix(-0.82, -0.57, 0.57, -0.82, 158.22, 440.72)">t</text><text class="cls-2" transform="matrix(-0.78, -0.63, 0.63, -0.78, 148.46, 434.03)"> </text><text class="cls-2" transform="matrix(-0.72, -0.69, 0.69, -0.72, 136.2, 424.41)">e</text><text class="cls-2" transform="translate(121.42 410.43) rotate(-130.08)">n</text><text class="cls-2" transform="translate(106.12 392.58) rotate(-123.01)">d</text><text class="cls-2" transform="translate(91.35 369.4) rotate(-117)"> </text><text class="cls-2" transform="translate(84.01 355.84) rotate(-110.97)">d</text><text class="cls-2" transform="matrix(-0.25, -0.97, 0.97, -0.25, 74.61, 331.21)">e</text><text class="cls-2" transform="translate(69.57 312.28) rotate(-98.78)">v</text><text class="cls-2" transform="translate(66.27 291.63) rotate(-93.07)">e</text><text class="cls-2" transform="translate(65.27 270.04) rotate(-88.52)">l</text><text class="cls-2" transform="translate(65.2 260.04) rotate(-84.11)">o</text><text class="cls-2" transform="translate(67.15 238.31) rotate(-77.34)">p</text><text class="cls-2" transform="translate(73.29 211.45) rotate(-70.47)">e</text><text class="cls-2" transform="translate(80.3 191.36) rotate(-64.32)">r</text><path class="cls-3" d="M225.89,184.48c12.05,12.53,50.3,75.35,37.5,85.65s-63.17-40.47-74.07-54c-8.14-10.11-21.95-42.63-10.86-51.56S213.86,172,225.89,184.48Z"/><path class="cls-3" d="M308.9,364.5c-12.06-12.53-50.31-75.34-37.5-85.65s63.17,40.47,74.07,54c8.14,10.12,21.95,42.64,10.85,51.56S320.93,377,308.9,364.5Z"/><path class="cls-3" d="M357.4,233c-12.53,12-75.34,50.3-85.65,37.49s40.47-63.17,54-74.07c10.11-8.13,42.63-21.95,51.56-10.85S369.93,221,357.4,233Z"/><path class="cls-3" d="M177.38,316c12.54-12.05,75.35-50.31,85.65-37.5s-40.46,63.18-54,74.07c-10.11,8.14-42.64,22-51.56,10.86S164.86,328,177.38,316Z"/><path class="cls-3" d="M174.4,240.18c17.38.35,88.85,17.72,87.08,34.06s-73.29,16.05-90.57,14.18c-12.9-1.4-45.67-14.63-44.13-28.79S157,239.84,174.4,240.18Z"/><path class="cls-3" d="M360.39,308.79c-17.39-.34-88.85-17.71-87.08-34.05s73.28-16.05,90.57-14.18c12.9,1.4,45.67,14.62,44.13,28.78S377.75,309.14,360.39,308.79Z"/><path class="cls-3" d="M301.7,181.49c-.35,17.39-17.71,88.86-34.05,87.08S251.59,195.29,253.47,178c1.39-12.9,14.62-45.66,28.78-44.13S302,164.13,301.7,181.49Z"/><path class="cls-3" d="M233.09,367.48c.34-17.38,17.71-88.84,34-87.07s16.05,73.28,14.18,90.56c-1.4,12.91-14.62,45.67-28.78,44.14S232.75,384.84,233.09,367.48Z"/><path class="cls-4" d="M282.56,262.29a19.85,19.85,0,1,1-27.91-3A19.86,19.86,0,0,1,282.56,262.29Z"/></g></g></svg>