<svg xmlns="http://www.w3.org/2000/svg" viewBox="0 0 1400 670.81"><defs><style>.cls-1{fill:#c65c7f;}.cls-2{opacity:0.2;}.cls-3{fill:#db9d9b;}.cls-4{fill:#c86aa0;}</style></defs><title>Recurso 20</title><g id="Capa_2" data-name="Capa 2"><g id="Capa_1-2" data-name="Capa 1"><rect class="cls-1" width="1400" height="670.81"/><g class="cls-2"><path class="cls-3" d="M89.9,105.57c4,3.66,17.25,22.44,13.47,25.91s-20.53-11.29-24.21-15.29c-2.75-3-7.73-12.83-4.46-15.84S85.89,101.92,89.9,105.57Z"/><path class="cls-3" d="M119.52,160c-4-3.65-17.25-22.43-13.47-25.91s20.53,11.29,24.21,15.29c2.75,3,7.73,12.83,4.46,15.84S123.53,163.6,119.52,160Z"/><path class="cls-3" d="M131.9,118c-3.65,4-22.44,17.25-25.91,13.47s11.29-20.53,15.29-24.21c3-2.75,12.83-7.73,15.84-4.46S135.55,113.94,131.9,118Z"/><path class="cls-3" d="M77.52,147.57c3.65-4,22.43-17.25,25.91-13.47s-11.29,20.53-15.29,24.21c-3,2.75-12.83,7.73-15.84,4.46S73.87,151.58,77.52,147.57Z"/><path class="cls-3" d="M75,124c5.42-.26,28.06,3.67,27.85,8.8s-22.51,6.53-27.94,6.3c-4-.16-14.53-3.6-14.35-8.05S69.59,124.26,75,124Z"/><path class="cls-3" d="M134.41,141.51c-5.43.26-28.06-3.66-27.85-8.79s22.51-6.54,27.93-6.31c4.06.17,14.54,3.6,14.36,8.05S139.83,141.26,134.41,141.51Z"/><path class="cls-3" d="M113.46,103.06c.26,5.43-3.66,28.06-8.79,27.85S98.13,108.4,98.36,103c.16-4.06,3.6-14.54,8-14.36S113.21,97.64,113.46,103.06Z"/><path class="cls-3" d="M96,162.46c-.25-5.42,3.67-28.06,8.8-27.85s6.54,22.51,6.31,27.93c-.16,4.06-3.6,14.54-8,14.36S96.21,167.88,96,162.46Z"/><path class="cls-4" d="M109.18,128.64a6.2,6.2,0,1,1-8.76-.36A6.2,6.2,0,0,1,109.18,128.64Z"/></g><g class="cls-2"><path class="cls-3" d="M224.36,225.16c4,3.65,17.25,22.43,13.47,25.91s-20.53-11.29-24.21-15.29c-2.75-3-7.74-12.83-4.46-15.85S220.34,221.51,224.36,225.16Z"/><path class="cls-3" d="M254,279.54c-4-3.66-17.25-22.44-13.47-25.92s20.53,11.3,24.21,15.29c2.75,3,7.73,12.84,4.46,15.85S258,283.19,254,279.54Z"/><path class="cls-3" d="M266.36,237.54c-3.66,4-22.44,17.25-25.92,13.47s11.3-20.54,15.3-24.22c3-2.74,12.83-7.73,15.84-4.45S270,233.52,266.36,237.54Z"/><path class="cls-3" d="M212,267.16c3.65-4,22.43-17.25,25.91-13.47S226.6,274.22,222.6,277.9c-3,2.75-12.83,7.73-15.85,4.46S208.33,271.17,212,267.16Z"/><path class="cls-3" d="M209.47,243.59c5.42-.25,28.06,3.67,27.85,8.8s-22.51,6.53-27.94,6.31c-4-.17-14.54-3.61-14.35-8S204.05,243.85,209.47,243.59Z"/><path class="cls-3" d="M268.87,261.1c-5.43.26-28.06-3.67-27.85-8.8S263.53,245.77,269,246c4.05.17,14.54,3.61,14.36,8.06S274.29,260.85,268.87,261.1Z"/><path class="cls-3" d="M247.92,222.65c.26,5.42-3.66,28.06-8.8,27.85s-6.53-22.51-6.3-27.94c.16-4.05,3.6-14.54,8.05-14.35S247.67,217.23,247.92,222.65Z"/><path class="cls-3" d="M230.41,282.05c-.25-5.43,3.67-28.06,8.8-27.85s6.53,22.5,6.31,27.93c-.17,4.05-3.6,14.54-8.05,14.36S230.67,287.47,230.41,282.05Z"/><path class="cls-4" d="M243.64,248.23a6.2,6.2,0,1,1-8.76-.36A6.2,6.2,0,0,1,243.64,248.23Z"/></g><g class="cls-2"><path class="cls-3" d="M350.82,99.45c4,3.65,17.25,22.44,13.48,25.91s-20.54-11.29-24.22-15.29c-2.74-3-7.73-12.83-4.45-15.84S346.81,95.8,350.82,99.45Z"/><path class="cls-3" d="M380.45,153.83c-4-3.65-17.25-22.43-13.47-25.91s20.53,11.29,24.21,15.29c2.75,3,7.73,12.83,4.46,15.84S384.46,157.48,380.45,153.83Z"/><path class="cls-3" d="M392.83,111.83c-3.66,4-22.44,17.25-25.92,13.47s11.3-20.53,15.29-24.21c3-2.75,12.84-7.73,15.85-4.46S396.48,107.82,392.83,111.83Z"/><path class="cls-3" d="M338.45,141.45c3.65-4,22.43-17.25,25.91-13.47s-11.3,20.53-15.29,24.21c-3,2.75-12.83,7.73-15.85,4.46S334.79,145.46,338.45,141.45Z"/><path class="cls-3" d="M335.93,117.89c5.43-.26,28.07,3.66,27.86,8.8s-22.51,6.53-27.94,6.3c-4.05-.16-14.54-3.6-14.35-8.05S330.52,118.14,335.93,117.89Z"/><path class="cls-3" d="M395.34,135.39c-5.43.26-28.06-3.66-27.85-8.79s22.5-6.54,27.93-6.31c4.05.16,14.54,3.6,14.36,8S400.76,135.14,395.34,135.39Z"/><path class="cls-3" d="M374.39,96.94c.25,5.42-3.67,28.06-8.8,27.85s-6.53-22.51-6.31-27.93c.17-4.06,3.61-14.54,8.06-14.36S374.14,91.52,374.39,96.94Z"/><path class="cls-3" d="M356.88,156.34c-.25-5.42,3.67-28.06,8.8-27.85S372.21,151,372,156.42c-.17,4.06-3.61,14.54-8.05,14.36S357.14,161.76,356.88,156.34Z"/><path class="cls-4" d="M370.11,122.52a6.2,6.2,0,1,1-8.76-.36A6.2,6.2,0,0,1,370.11,122.52Z"/></g><g class="cls-2"><path class="cls-3" d="M1014.11,105.57c4,3.66,17.25,22.44,13.47,25.91s-20.53-11.29-24.21-15.29c-2.75-3-7.73-12.83-4.46-15.84S1010.1,101.92,1014.11,105.57Z"/><path class="cls-3" d="M1043.73,160c-4-3.65-17.25-22.43-13.47-25.91s20.53,11.29,24.21,15.29c2.75,3,7.73,12.83,4.46,15.84S1047.74,163.6,1043.73,160Z"/><path class="cls-3" d="M1056.11,118c-3.65,4-22.44,17.25-25.91,13.47s11.29-20.53,15.29-24.21c3-2.75,12.83-7.73,15.84-4.46S1059.76,113.94,1056.11,118Z"/><path class="cls-3" d="M1001.73,147.57c3.65-4,22.43-17.25,25.91-13.47s-11.29,20.53-15.29,24.21c-3,2.75-12.83,7.73-15.84,4.46S998.08,151.58,1001.73,147.57Z"/><path class="cls-3" d="M999.22,124c5.42-.26,28.06,3.67,27.85,8.8s-22.51,6.53-27.94,6.3c-4-.16-14.53-3.6-14.35-8.05S993.8,124.26,999.22,124Z"/><path class="cls-3" d="M1058.62,141.51c-5.43.26-28.06-3.66-27.85-8.79s22.51-6.54,27.93-6.31c4,.17,14.54,3.6,14.36,8.05S1064,141.26,1058.62,141.51Z"/><path class="cls-3" d="M1037.67,103.06c.26,5.43-3.66,28.06-8.79,27.85s-6.54-22.51-6.31-27.93c.16-4.06,3.6-14.54,8-14.36S1037.42,97.64,1037.67,103.06Z"/><path class="cls-3" d="M1020.16,162.46c-.25-5.42,3.67-28.06,8.8-27.85s6.54,22.51,6.31,27.93c-.16,4.06-3.6,14.54-8,14.36S1020.42,167.88,1020.16,162.46Z"/><path class="cls-4" d="M1033.39,128.64a6.2,6.2,0,1,1-8.76-.36A6.2,6.2,0,0,1,1033.39,128.64Z"/></g><g class="cls-2"><path class="cls-3" d="M1148.57,225.16c4,3.65,17.25,22.43,13.47,25.91s-20.53-11.29-24.21-15.29c-2.75-3-7.74-12.83-4.46-15.85S1144.55,221.51,1148.57,225.16Z"/><path class="cls-3" d="M1178.19,279.54c-4-3.66-17.25-22.44-13.47-25.92s20.53,11.3,24.21,15.29c2.75,3,7.73,12.84,4.46,15.85S1182.2,283.19,1178.19,279.54Z"/><path class="cls-3" d="M1190.57,237.54c-3.66,4-22.44,17.25-25.92,13.47s11.3-20.54,15.3-24.22c3-2.74,12.83-7.73,15.84-4.45S1194.22,233.52,1190.57,237.54Z"/><path class="cls-3" d="M1136.19,267.16c3.65-4,22.43-17.25,25.91-13.47s-11.29,20.53-15.29,24.21c-3,2.75-12.83,7.73-15.85,4.46S1132.54,271.17,1136.19,267.16Z"/><path class="cls-3" d="M1133.68,243.59c5.42-.25,28.06,3.67,27.85,8.8s-22.51,6.53-27.94,6.31c-4-.17-14.54-3.61-14.35-8S1128.26,243.85,1133.68,243.59Z"/><path class="cls-3" d="M1193.08,261.1c-5.43.26-28.06-3.67-27.85-8.8s22.51-6.53,27.93-6.31c4,.17,14.54,3.61,14.36,8.06S1198.5,260.85,1193.08,261.1Z"/><path class="cls-3" d="M1172.13,222.65c.26,5.42-3.66,28.06-8.8,27.85s-6.53-22.51-6.3-27.94c.16-4.05,3.6-14.54,8-14.35S1171.88,217.23,1172.13,222.65Z"/><path class="cls-3" d="M1154.62,282.05c-.25-5.43,3.67-28.06,8.8-27.85s6.53,22.5,6.31,27.93c-.17,4.05-3.6,14.54-8,14.36S1154.88,287.47,1154.62,282.05Z"/><path class="cls-4" d="M1167.85,248.23a6.2,6.2,0,1,1-8.76-.36A6.2,6.2,0,0,1,1167.85,248.23Z"/></g><g class="cls-2"><path class="cls-3" d="M1275,99.45c4,3.65,17.25,22.44,13.48,25.91s-20.54-11.29-24.22-15.29c-2.74-3-7.73-12.83-4.45-15.84S1271,95.8,1275,99.45Z"/><path class="cls-3" d="M1304.66,153.83c-4-3.65-17.25-22.43-13.47-25.91s20.53,11.29,24.21,15.29c2.75,3,7.73,12.83,4.46,15.84S1308.67,157.48,1304.66,153.83Z"/><path class="cls-3" d="M1317,111.83c-3.66,4-22.44,17.25-25.92,13.47s11.3-20.53,15.29-24.21c3-2.75,12.84-7.73,15.85-4.46S1320.69,107.82,1317,111.83Z"/><path class="cls-3" d="M1262.66,141.45c3.65-4,22.43-17.25,25.91-13.47s-11.3,20.53-15.29,24.21c-3,2.75-12.83,7.73-15.85,4.46S1259,145.46,1262.66,141.45Z"/><path class="cls-3" d="M1260.14,117.89c5.43-.26,28.07,3.66,27.86,8.8s-22.51,6.53-27.94,6.3c-4-.16-14.54-3.6-14.35-8.05S1254.73,118.14,1260.14,117.89Z"/><path class="cls-3" d="M1319.55,135.39c-5.43.26-28.06-3.66-27.85-8.79s22.5-6.54,27.93-6.31c4,.16,14.54,3.6,14.36,8S1325,135.14,1319.55,135.39Z"/><path class="cls-3" d="M1298.6,96.94c.25,5.42-3.67,28.06-8.8,27.85s-6.53-22.51-6.31-27.93c.17-4.06,3.61-14.54,8.06-14.36S1298.35,91.52,1298.6,96.94Z"/><path class="cls-3" d="M1281.09,156.34c-.25-5.42,3.67-28.06,8.8-27.85s6.53,22.51,6.31,27.93c-.17,4.06-3.61,14.54-8,14.36S1281.35,161.76,1281.09,156.34Z"/><path class="cls-4" d="M1294.32,122.52a6.2,6.2,0,1,1-8.76-.36A6.2,6.2,0,0,1,1294.32,122.52Z"/></g><g class="cls-2"><path class="cls-3" d="M89.9,408.47c4,3.66,17.25,22.44,13.47,25.91s-20.53-11.29-24.21-15.29c-2.75-3-7.73-12.83-4.46-15.84S85.89,404.82,89.9,408.47Z"/><path class="cls-3" d="M119.52,462.85c-4-3.65-17.25-22.43-13.47-25.91s20.53,11.29,24.21,15.29c2.75,3,7.73,12.83,4.46,15.84S123.53,466.5,119.52,462.85Z"/><path class="cls-3" d="M131.9,420.85c-3.65,4-22.44,17.25-25.91,13.47s11.29-20.53,15.29-24.21c3-2.75,12.83-7.73,15.84-4.46S135.55,416.84,131.9,420.85Z"/><path class="cls-3" d="M77.52,450.47c3.65-4,22.43-17.25,25.91-13.47s-11.29,20.54-15.29,24.21c-3,2.75-12.83,7.74-15.84,4.46S73.87,454.48,77.52,450.47Z"/><path class="cls-3" d="M75,426.91c5.42-.26,28.06,3.67,27.85,8.8S80.35,442.24,74.92,442c-4-.17-14.53-3.61-14.35-8.06S69.59,427.16,75,426.91Z"/><path class="cls-3" d="M134.41,444.42c-5.43.25-28.06-3.67-27.85-8.8s22.51-6.54,27.93-6.31c4.06.17,14.54,3.6,14.36,8.05S139.83,444.16,134.41,444.42Z"/><path class="cls-3" d="M113.46,406c.26,5.43-3.66,28.06-8.79,27.85s-6.54-22.51-6.31-27.93c.16-4.06,3.6-14.54,8-14.36S113.21,400.54,113.46,406Z"/><path class="cls-3" d="M96,465.36c-.25-5.42,3.67-28.06,8.8-27.85s6.54,22.51,6.31,27.93c-.16,4.06-3.6,14.54-8,14.36S96.21,470.78,96,465.36Z"/><path class="cls-4" d="M109.18,431.54a6.2,6.2,0,1,1-8.76-.36A6.2,6.2,0,0,1,109.18,431.54Z"/></g><g class="cls-2"><path class="cls-3" d="M224.36,528.06c4,3.65,17.25,22.43,13.47,25.91s-20.53-11.29-24.21-15.29c-2.75-3-7.74-12.83-4.46-15.85S220.34,524.41,224.36,528.06Z"/><path class="cls-3" d="M254,582.44c-4-3.66-17.25-22.44-13.47-25.92s20.53,11.3,24.21,15.29c2.75,3,7.73,12.84,4.46,15.85S258,586.09,254,582.44Z"/><path class="cls-3" d="M266.36,540.44c-3.66,4-22.44,17.25-25.92,13.47s11.3-20.54,15.3-24.21c3-2.75,12.83-7.74,15.84-4.46S270,536.42,266.36,540.44Z"/><path class="cls-3" d="M212,570.06c3.65-4,22.43-17.25,25.91-13.47S226.6,577.12,222.6,580.8c-3,2.75-12.83,7.73-15.85,4.46S208.33,574.07,212,570.06Z"/><path class="cls-3" d="M209.47,546.49c5.42-.25,28.06,3.67,27.85,8.8s-22.51,6.53-27.94,6.31c-4-.17-14.54-3.61-14.35-8.05S204.05,546.75,209.47,546.49Z"/><path class="cls-3" d="M268.87,564c-5.43.26-28.06-3.67-27.85-8.8s22.51-6.53,27.93-6.3c4.05.16,14.54,3.6,14.36,8.05S274.29,563.75,268.87,564Z"/><path class="cls-3" d="M247.92,525.55c.26,5.42-3.66,28.06-8.8,27.85s-6.53-22.51-6.3-27.94c.16-4.05,3.6-14.54,8.05-14.35S247.67,520.13,247.92,525.55Z"/><path class="cls-3" d="M230.41,585c-.25-5.43,3.67-28.06,8.8-27.85s6.53,22.51,6.31,27.93c-.17,4.05-3.6,14.54-8.05,14.36S230.67,590.37,230.41,585Z"/><path class="cls-4" d="M243.64,551.13a6.2,6.2,0,1,1-8.76-.36A6.2,6.2,0,0,1,243.64,551.13Z"/></g><g class="cls-2"><path class="cls-3" d="M350.82,402.35c4,3.66,17.25,22.44,13.48,25.91S343.76,417,340.08,413c-2.74-3-7.73-12.83-4.45-15.84S346.81,398.7,350.82,402.35Z"/><path class="cls-3" d="M380.45,456.73c-4-3.65-17.25-22.43-13.47-25.91s20.53,11.29,24.21,15.29c2.75,3,7.73,12.83,4.46,15.84S384.46,460.38,380.45,456.73Z"/><path class="cls-3" d="M392.83,414.73c-3.66,4-22.44,17.25-25.92,13.47s11.3-20.53,15.29-24.21c3-2.75,12.84-7.73,15.85-4.46S396.48,410.72,392.83,414.73Z"/><path class="cls-3" d="M338.45,444.35c3.65-4,22.43-17.25,25.91-13.47s-11.3,20.53-15.29,24.21c-3,2.75-12.83,7.73-15.85,4.46S334.79,448.36,338.45,444.35Z"/><path class="cls-3" d="M335.93,420.79c5.43-.26,28.07,3.67,27.86,8.8s-22.51,6.53-27.94,6.31c-4.05-.17-14.54-3.61-14.35-8.06S330.52,421,335.93,420.79Z"/><path class="cls-3" d="M395.34,438.29c-5.43.26-28.06-3.66-27.85-8.79s22.5-6.54,27.93-6.31c4.05.17,14.54,3.6,14.36,8.05S400.76,438,395.34,438.29Z"/><path class="cls-3" d="M374.39,399.84c.25,5.43-3.67,28.06-8.8,27.85s-6.53-22.51-6.31-27.93c.17-4.06,3.61-14.54,8.06-14.36S374.14,394.42,374.39,399.84Z"/><path class="cls-3" d="M356.88,459.24c-.25-5.42,3.67-28.06,8.8-27.85s6.53,22.51,6.31,27.93c-.17,4.06-3.61,14.54-8.05,14.36S357.14,464.66,356.88,459.24Z"/><path class="cls-4" d="M370.11,425.42a6.2,6.2,0,1,1-8.76-.36A6.2,6.2,0,0,1,370.11,425.42Z"/></g><g class="cls-2"><path class="cls-3" d="M1014.11,408.47c4,3.66,17.25,22.44,13.47,25.91s-20.53-11.29-24.21-15.29c-2.75-3-7.73-12.83-4.46-15.84S1010.1,404.82,1014.11,408.47Z"/><path class="cls-3" d="M1043.73,462.85c-4-3.65-17.25-22.43-13.47-25.91s20.53,11.29,24.21,15.29c2.75,3,7.73,12.83,4.46,15.84S1047.74,466.5,1043.73,462.85Z"/><path class="cls-3" d="M1056.11,420.85c-3.65,4-22.44,17.25-25.91,13.47s11.29-20.53,15.29-24.21c3-2.75,12.83-7.73,15.84-4.46S1059.76,416.84,1056.11,420.85Z"/><path class="cls-3" d="M1001.73,450.47c3.65-4,22.43-17.25,25.91-13.47s-11.29,20.54-15.29,24.21c-3,2.75-12.83,7.74-15.84,4.46S998.08,454.48,1001.73,450.47Z"/><path class="cls-3" d="M999.22,426.91c5.42-.26,28.06,3.67,27.85,8.8s-22.51,6.53-27.94,6.31c-4-.17-14.53-3.61-14.35-8.06S993.8,427.16,999.22,426.91Z"/><path class="cls-3" d="M1058.62,444.42c-5.43.25-28.06-3.67-27.85-8.8s22.51-6.54,27.93-6.31c4,.17,14.54,3.6,14.36,8.05S1064,444.16,1058.62,444.42Z"/><path class="cls-3" d="M1037.67,406c.26,5.43-3.66,28.06-8.79,27.85s-6.54-22.51-6.31-27.93c.16-4.06,3.6-14.54,8-14.36S1037.42,400.54,1037.67,406Z"/><path class="cls-3" d="M1020.16,465.36c-.25-5.42,3.67-28.06,8.8-27.85s6.54,22.51,6.31,27.93c-.16,4.06-3.6,14.54-8,14.36S1020.42,470.78,1020.16,465.36Z"/><path class="cls-4" d="M1033.39,431.54a6.2,6.2,0,1,1-8.76-.36A6.2,6.2,0,0,1,1033.39,431.54Z"/></g><g class="cls-2"><path class="cls-3" d="M1148.57,528.06c4,3.65,17.25,22.43,13.47,25.91s-20.53-11.29-24.21-15.29c-2.75-3-7.74-12.83-4.46-15.85S1144.55,524.41,1148.57,528.06Z"/><path class="cls-3" d="M1178.19,582.44c-4-3.66-17.25-22.44-13.47-25.92s20.53,11.3,24.21,15.29c2.75,3,7.73,12.84,4.46,15.85S1182.2,586.09,1178.19,582.44Z"/><path class="cls-3" d="M1190.57,540.44c-3.66,4-22.44,17.25-25.92,13.47s11.3-20.54,15.3-24.21c3-2.75,12.83-7.74,15.84-4.46S1194.22,536.42,1190.57,540.44Z"/><path class="cls-3" d="M1136.19,570.06c3.65-4,22.43-17.25,25.91-13.47s-11.29,20.53-15.29,24.21c-3,2.75-12.83,7.73-15.85,4.46S1132.54,574.07,1136.19,570.06Z"/><path class="cls-3" d="M1133.68,546.49c5.42-.25,28.06,3.67,27.85,8.8s-22.51,6.53-27.94,6.31c-4-.17-14.54-3.61-14.35-8.05S1128.26,546.75,1133.68,546.49Z"/><path class="cls-3" d="M1193.08,564c-5.43.26-28.06-3.67-27.85-8.8s22.51-6.53,27.93-6.3c4,.16,14.54,3.6,14.36,8.05S1198.5,563.75,1193.08,564Z"/><path class="cls-3" d="M1172.13,525.55c.26,5.42-3.66,28.06-8.8,27.85s-6.53-22.51-6.3-27.94c.16-4.05,3.6-14.54,8-14.35S1171.88,520.13,1172.13,525.55Z"/><path class="cls-3" d="M1154.62,585c-.25-5.43,3.67-28.06,8.8-27.85s6.53,22.51,6.31,27.93c-.17,4.05-3.6,14.54-8,14.36S1154.88,590.37,1154.62,585Z"/><path class="cls-4" d="M1167.85,551.13a6.2,6.2,0,1,1-8.76-.36A6.2,6.2,0,0,1,1167.85,551.13Z"/></g><g class="cls-2"><path class="cls-3" d="M1275,402.35c4,3.66,17.25,22.44,13.48,25.91S1268,417,1264.29,413c-2.74-3-7.73-12.83-4.45-15.84S1271,398.7,1275,402.35Z"/><path class="cls-3" d="M1304.66,456.73c-4-3.65-17.25-22.43-13.47-25.91s20.53,11.29,24.21,15.29c2.75,3,7.73,12.83,4.46,15.84S1308.67,460.38,1304.66,456.73Z"/><path class="cls-3" d="M1317,414.73c-3.66,4-22.44,17.25-25.92,13.47s11.3-20.53,15.29-24.21c3-2.75,12.84-7.73,15.85-4.46S1320.69,410.72,1317,414.73Z"/><path class="cls-3" d="M1262.66,444.35c3.65-4,22.43-17.25,25.91-13.47s-11.3,20.53-15.29,24.21c-3,2.75-12.83,7.73-15.85,4.46S1259,448.36,1262.66,444.35Z"/><path class="cls-3" d="M1260.14,420.79c5.43-.26,28.07,3.67,27.86,8.8s-22.51,6.53-27.94,6.31c-4-.17-14.54-3.61-14.35-8.06S1254.73,421,1260.14,420.79Z"/><path class="cls-3" d="M1319.55,438.29c-5.43.26-28.06-3.66-27.85-8.79s22.5-6.54,27.93-6.31c4,.17,14.54,3.6,14.36,8.05S1325,438,1319.55,438.29Z"/><path class="cls-3" d="M1298.6,399.84c.25,5.43-3.67,28.06-8.8,27.85s-6.53-22.51-6.31-27.93c.17-4.06,3.61-14.54,8.06-14.36S1298.35,394.42,1298.6,399.84Z"/><path class="cls-3" d="M1281.09,459.24c-.25-5.42,3.67-28.06,8.8-27.85s6.53,22.51,6.31,27.93c-.17,4.06-3.61,14.54-8,14.36S1281.35,464.66,1281.09,459.24Z"/><path class="cls-4" d="M1294.32,425.42a6.2,6.2,0,1,1-8.76-.36A6.2,6.2,0,0,1,1294.32,425.42Z"/></g></g></g></svg>