<svg xmlns="http://www.w3.org/2000/svg" viewBox="0 0 297.11 236.6"><defs><style>.cls-1{fill:#db9d9b;}.cls-2{fill:#c86aa0;}.cls-3{fill:#823c68;}</style></defs><title>vikduncan</title><g id="Capa_2" data-name="Capa 2"><g id="Capa_1-2" data-name="Capa 1"><path class="cls-1" d="M241.73,91.66c1.76,4.75,4.67,26,.06,27.22s-12.17-18.14-13.5-23c-1-3.65-.91-13.93,3.09-15S240,86.92,241.73,91.66Z"/><path class="cls-1" d="M243,149.36c-1.76-4.75-4.68-26-.06-27.22s12.16,18.14,13.49,23c1,3.65.91,13.94-3.09,15S244.72,154.1,243,149.36Z"/><path class="cls-1" d="M271.19,119.89c-4.74,1.76-25.95,4.68-27.21.06s18.14-12.16,23-13.49c3.65-1,13.93-.91,15,3.09S275.94,118.14,271.19,119.89Z"/><path class="cls-1" d="M213.5,121.13c4.74-1.76,26-4.67,27.22-.06s-18.14,12.16-23,13.5c-3.64,1-13.93.9-15-3.09S208.76,122.89,213.5,121.13Z"/><path class="cls-1" d="M221.51,100.55c4.6,2.11,21.66,15,19.29,19.21S219.37,115.53,215,113c-3.28-1.87-10.49-9.21-8.43-12.81S216.92,98.44,221.51,100.55Z"/><path class="cls-1" d="M263.18,140.47c-4.6-2.11-21.65-15-19.28-19.2s21.42,4.23,25.82,6.74c3.28,1.87,10.49,9.2,8.44,12.81S267.78,142.58,263.18,140.47Z"/><path class="cls-1" d="M262.31,99.68c-2.11,4.6-15.05,21.65-19.21,19.28s4.23-21.42,6.74-25.82c1.87-3.28,9.21-10.49,12.81-8.44S264.42,95.08,262.31,99.68Z"/><path class="cls-1" d="M222.38,141.35c2.12-4.6,15.06-21.66,19.21-19.29s-4.23,21.43-6.74,25.82c-1.87,3.29-9.21,10.49-12.81,8.44S220.28,145.94,222.38,141.35Z"/><path class="cls-2" d="M247.81,119a5.77,5.77,0,1,1-7.1-4A5.78,5.78,0,0,1,247.81,119Z"/><path class="cls-2" d="M45.69,147.63A393.65,393.65,0,0,0,59.33,71.68C61,52.34,62.38,33,65,13.86a57.44,57.44,0,0,1,1.63-8.55A7.16,7.16,0,0,1,74.19,0a8.43,8.43,0,0,1,6.92,6.51,42.35,42.35,0,0,1,.61,8.76,603.42,603.42,0,0,1-6.31,79.2c-3.26,24-7.33,48.05-14.25,71.46a54.74,54.74,0,0,1-5.5,13.44l-2.24,3.66c-8.34,10.79-21,9.57-27.89-3.05-5.9-10.79-9.16-22.6-12-34.61C4.35,107.92,1.51,70.26.08,32.18A111.27,111.27,0,0,1,.49,17.93c.2-5.09,2.85-8.14,6.92-9,3.66-.81,7.74,1.43,10.38,5.71a37.08,37.08,0,0,1,3.46,10.17C23.7,38.5,25.53,52.14,27.16,66c3.05,26.06,5.9,52.33,11.2,78.19.61,3.86.4,7.94,3,12.21C44.26,153.73,44.87,150.48,45.69,147.63Z"/><path class="cls-2" d="M114.49,129.51c0,4.68-.2,9.16-.4,13.84,0,5.29-3.87,9.57-9.17,9.57A11.55,11.55,0,0,1,98,150.07a14.8,14.8,0,0,1-4.48-8.14c-3.46-18.74-5.9-37.47-1.22-56.2a33.26,33.26,0,0,1,3.87-10.59c2.44-3.66,5.5-6.31,10.18-5.7,4.89.61,7.53,4.08,9,8.55,1.63,5.91,1,12,1,17.92C116.53,107.31,114.9,118.31,114.49,129.51Z"/><path class="cls-2" d="M127.31,43.38a67,67,0,0,1,1-11c.82-4.89,3.67-7.54,7.74-7.94,4.07-.21,7.53,2.64,9,7.33,1,3,1,6.51,1.22,9.77,0,14.25,0,28.3.2,42.55,0,2-1.22,5.3,1.43,6.11,2.44,1,3.46-2,5.09-3.66l12-11.81c3.26-3.06,7.13-3.67,10.39-2,5.08,2.65,6.51,8.15,2.64,12.62-7.73,9-13.64,19.35-21.17,28.51-3.46,4.27-3.46,4.88,1.83,6.92a102.55,102.55,0,0,0,11.2,3.67A70.77,70.77,0,0,1,186.36,132a27.24,27.24,0,0,1,3.87,3.26c3.46,3.46,4.27,6.92,2.65,10.58-1.84,4.08-5.3,5.71-9.57,5.71A49.87,49.87,0,0,1,164.57,147c-4.47-2-8.75-4.08-13.23-5.71-3.26-1.42-4.07-1-4.27,2.65-.41,8.76-.41,17.51-.62,26.27-.2,3.46,0,7.12-.2,10.58-.2,4.28-2.24,7.13-5.9,7.94s-7.33-1-9.37-4.68c-1.63-3-2-6.72-2.44-10.18a400.52,400.52,0,0,1-3.06-51.71C125.89,95.91,126.3,69.65,127.31,43.38Z"/><path class="cls-3" d="M99.79,236.27c-1.39-.39-2.42-2.11-3.11-5.15q-1.67-5.85-2.63-24.46l-.13-3-1.18,2.39q-2.2,4.55-5.14,9.59a82.88,82.88,0,0,1-5.15,8,26,26,0,0,1-3.55,4.09,12.81,12.81,0,0,1-3.42,2.2,7.77,7.77,0,0,1-2.7.43,7.37,7.37,0,0,1-2.69-.43A7.2,7.2,0,0,1,66,225.72a17.06,17.06,0,0,1-1.14-6.21A24.62,24.62,0,0,1,65,217a28.47,28.47,0,0,1,4.21-12.15,17.85,17.85,0,0,1,8.15-7.21,12.86,12.86,0,0,1,4.21-.76,10.91,10.91,0,0,1,6.36,2.06l1.17.86.21-.48c.09-.18.3-.65.62-1.41s.72-1.65,1.18-2.66a71.68,71.68,0,0,0,4.62-13.5c.55-3.11,1.11-4.94,1.66-5.48a3.79,3.79,0,0,1,2.76-1.09h.14a3.45,3.45,0,0,1,2.69,1.3,2.65,2.65,0,0,1,.21.49,1.53,1.53,0,0,1,.07.49v.33a13.39,13.39,0,0,1-.14,1.57c-.09.69-.21,1.59-.34,2.71q-.7,5-1,12.15t-.32,12.09c0,1.3,0,2.57.07,3.8q.21,8.79.94,15t1.55,7.14a2.45,2.45,0,0,1,1,1.79,2.07,2.07,0,0,1-.49,1.24,3,3,0,0,1-1.65,1.17,7,7,0,0,1-1.39.19A4.41,4.41,0,0,1,99.79,236.27ZM74.86,222.61a44.52,44.52,0,0,0,4.21-5.29q2.42-3.45,4.63-7.3l1.52-2.76L85,206.17C84.46,204,83.44,203,82,203c-1.06,0-2.26.75-3.59,2.25a21.46,21.46,0,0,0-3.52,5.66,27.58,27.58,0,0,0-1.11,3.23,29.87,29.87,0,0,0-.69,3.55,19.79,19.79,0,0,0-.1,2.69,17.11,17.11,0,0,0,.2,2.38c.12.67.27,1,.45,1s.19-.11.42-.33Z"/><path class="cls-3" d="M109.47,225.81a23.21,23.21,0,0,1-.6-5.66c0-1,0-2.09.12-3.25a38.61,38.61,0,0,1,1.74-9.61,4.43,4.43,0,0,1,2-2.92,2.67,2.67,0,0,1,.81-.38,5.62,5.62,0,0,1,1.17-.09,3.16,3.16,0,0,1,2.94,1.27,1.85,1.85,0,0,1,.33,1.23,16.69,16.69,0,0,1-.39,2.45l-.42,2.09c-.16.8-.28,1.52-.36,2.15a32.7,32.7,0,0,0-.36,3.58c-.08,1.44-.12,2.84-.12,4.19a24,24,0,0,0,.12,2.87l.18,1.13.84-1.08q2.88-3.43,8.58-14.32,1.44-2.88,2.31-4.24a4.91,4.91,0,0,1,1.59-1.74,4,4,0,0,1,1.86-.38,3.83,3.83,0,0,1,1.68.3,3.56,3.56,0,0,1,1.14,1,4.82,4.82,0,0,1,.51.92,5.1,5.1,0,0,1,.3,1.46c.06.64.11,1.56.15,2.75s.08,2.78.12,4.76q.12,5.37.3,7.68a7.47,7.47,0,0,0,.54,2.83l.3.42a3.55,3.55,0,0,0,.42.47,1.88,1.88,0,0,1,.54,1.23,1.56,1.56,0,0,1-.24.8,2.47,2.47,0,0,1-2,1.17h-.18a4.58,4.58,0,0,1-4.38-3.15,21.53,21.53,0,0,1-1-4.36,37.9,37.9,0,0,1-.42-5.63l-.09-.92q0-.3-.09-.3-.36.88-1.32,2.73l-1.92,3.65q-1,1.81-1.44,2.61a36.23,36.23,0,0,1-2.58,3.82q-3.36,4-6.78,4h-.54Q111.09,231.13,109.47,225.81Z"/><path class="cls-3" d="M146.12,232.68a5.84,5.84,0,0,1-3.59-3.58,17.25,17.25,0,0,1-1-3.46c-.32-1.58-.56-3.1-.72-4.55,0-.75-.06-1.61-.06-2.59q0-2.49.18-5.93a72.89,72.89,0,0,1,.84-8.53c.36-1.25.95-1.94,1.76-2.07a13.72,13.72,0,0,1,1.54-.19,3.18,3.18,0,0,1,2.63,1.32,1.32,1.32,0,0,1,.24.54,4.62,4.62,0,0,1,.07,1c0,.44,0,1.1-.07,2s-.08,1.6-.14,2.34-.12,1.25-.16,1.53a19.48,19.48,0,0,0-.18,3.08v6.25a40.3,40.3,0,0,0,.24,4.14c.29,1.63.5,2.45.67,2.45s.13-.09.18-.28a5.4,5.4,0,0,0,.33-.54c.13-.27.29-.55.44-.83a13.05,13.05,0,0,0,.75-1.25c.3-.54.6-1.1.87-1.67.36-.75.8-1.62,1.32-2.59.24-.5.48-1,.72-1.37q3.42-6.69,6.24-8.43a5.18,5.18,0,0,1,1.53-.56,6.73,6.73,0,0,1,1.29-.15,5.81,5.81,0,0,1,.72.05,5.42,5.42,0,0,1,1.8.71,8.81,8.81,0,0,1,1.68,1.27c.24.28.6.77,1.08,1.46s1,1.45,1.5,2.26q3.36,5.33,5.1,6.69a3.82,3.82,0,0,0,1.2.9,2.46,2.46,0,0,0,.54.09.83.83,0,0,0,.54-.19,17.38,17.38,0,0,0,3.21-3.62,32.77,32.77,0,0,0,3.09-5.23q.84-1.65,1.71-1.86a5.75,5.75,0,0,1,1.17-.22,2.11,2.11,0,0,1,1.55.66,2,2,0,0,1,.61,1.51,3.8,3.8,0,0,1-.18,1.08,30.74,30.74,0,0,1-4.74,8q-3.3,4.38-7.14,4.38a7,7,0,0,1-1.44-.14,8.48,8.48,0,0,1-4.26-2.26,16,16,0,0,1-2.55-2.64,46.86,46.86,0,0,1-3-4.52l-1.71-2.68a6.68,6.68,0,0,0-.75-1.09c-.12,0-.48.49-1.08,1.46s-1.28,2.18-2,3.61-1.48,2.86-2.16,4.31q-3.06,6.63-5.22,8.71a5.73,5.73,0,0,1-3.78,1.46A5.59,5.59,0,0,1,146.12,232.68Z"/><path class="cls-3" d="M190.33,234.14a10.74,10.74,0,0,1-6.72-5.51,19.84,19.84,0,0,1-2-9v-.28a28.94,28.94,0,0,1,1.92-9.84,18.05,18.05,0,0,1,4.85-7.31,10.28,10.28,0,0,1,4.23-2.23,16.44,16.44,0,0,1,2.49-.31,7.93,7.93,0,0,1,3.54.8,6.14,6.14,0,0,1,3.12,3.86,9.88,9.88,0,0,1,.24,2.31c0,.51,0,1-.06,1.6a10.65,10.65,0,0,1-1,3.68,2.18,2.18,0,0,1-1.26,1,4.72,4.72,0,0,1-1.2.19,3.26,3.26,0,0,1-1.14-.23,1.65,1.65,0,0,1-.78-.5,2,2,0,0,1-.3-1q-.06-.74-.06-2.19v-1.27c0-.48,0-.95-.06-1.42-.08-.72-.25-1.13-.51-1.22a1.77,1.77,0,0,0-.51-.14,3.46,3.46,0,0,0-1.8,1.08,12.5,12.5,0,0,0-2.94,4.66,22,22,0,0,0-1.43,6.55,13.3,13.3,0,0,0-.06,1.41,18.55,18.55,0,0,0,.48,4.29,12.45,12.45,0,0,0,1.76,4.38,3.24,3.24,0,0,0,2.55,1.7q2.16,0,5.82-2.95a49.94,49.94,0,0,0,7.62-7.93,35.9,35.9,0,0,0,3.48-4.76c.8-1.45,1.5-2.22,2.1-2.33a8.68,8.68,0,0,1,1.2-.17,2,2,0,0,1,2.1,2.07,4.77,4.77,0,0,1-.48,1.89,63,63,0,0,1-7.74,10.5,34.72,34.72,0,0,1-7.47,6.88,12.68,12.68,0,0,1-6.75,2.12h-.6A8,8,0,0,1,190.33,234.14Z"/><path class="cls-3" d="M207.43,228.58a14.05,14.05,0,0,1-.48-3.67v-.75a19.87,19.87,0,0,1,.66-4,35.36,35.36,0,0,1,4.14-9.33q4.68-7.58,11-9.7a9,9,0,0,1,2.75-.54l1.38,0a11.17,11.17,0,0,1,3.42.47,6.93,6.93,0,0,1,4.5,4.38c.12.29.27.6.45,1a4.09,4.09,0,0,0,.57.84,4.87,4.87,0,0,1,.78,1.68,7.6,7.6,0,0,1,.3,2.09,18.81,18.81,0,0,0,.39,2.78q.39,2.07.81,3.63a30.25,30.25,0,0,0,1.62,4.66c.76,1.64,1.48,2.45,2.16,2.45h.18c.68-.15,1.7-1,3.06-2.45a41.3,41.3,0,0,0,3.54-4,20.68,20.68,0,0,0,2.4-3.65q1.38-2.73,2.22-2.94a5.82,5.82,0,0,1,1.14-.21,1.61,1.61,0,0,1,1.44.94,3.16,3.16,0,0,1,.42,1.65,6.06,6.06,0,0,1-.18,1.41,18,18,0,0,1-2.49,4.59A48.38,48.38,0,0,1,249.6,225q-4.32,4.71-8.58,4.71H241q-4.26-.1-7.2-5.8a28.87,28.87,0,0,1-2.46-8.38l-.24-1.7L228.9,217c-3.87,5.94-7,10.07-9.23,12.39a11.81,11.81,0,0,1-4,2.76,9.49,9.49,0,0,1-3.06.68,5.47,5.47,0,0,1-2.1-.42C209.15,231.91,208.11,230.63,207.43,228.58Zm10.5-5.51a125.65,125.65,0,0,0,7.8-10.31c.71-1.1,1.39-2.09,2-3s1.08-1.46,1.33-1.74a1.69,1.69,0,0,0,.47-.85v-.1c0-.22-.34-.42-.9-.61a3.83,3.83,0,0,0-1.32-.23,4.8,4.8,0,0,0-2.7.94,17.55,17.55,0,0,0-3.75,3.41,25.54,25.54,0,0,0-2.31,3.18,32,32,0,0,0-3.83,8.58,16.19,16.19,0,0,0-.66,3.48q0,.66.3.66Q215.11,226.46,217.93,223.07Z"/><path class="cls-3" d="M255.66,232.68a5.85,5.85,0,0,1-3.6-3.58,18,18,0,0,1-1-3.46c-.32-1.58-.56-3.1-.72-4.55,0-.75-.06-1.61-.06-2.59q0-2.49.18-5.93a72.89,72.89,0,0,1,.84-8.53q.54-1.87,1.77-2.07a13.65,13.65,0,0,1,1.53-.19,3.19,3.19,0,0,1,2.64,1.32,1.32,1.32,0,0,1,.24.54,5.65,5.65,0,0,1,.06,1c0,.44,0,1.1-.06,2s-.09,1.6-.15,2.34-.11,1.25-.15,1.53a19.48,19.48,0,0,0-.18,3.08v6.25a40.3,40.3,0,0,0,.24,4.14c.28,1.63.5,2.45.66,2.45s.14-.09.18-.28a4,4,0,0,0,.33-.54c.14-.27.29-.55.45-.83a13.05,13.05,0,0,0,.75-1.25c.3-.54.59-1.1.87-1.67.36-.75.8-1.62,1.32-2.59.24-.5.48-1,.71-1.37,2.29-4.46,4.36-7.27,6.24-8.43a5.24,5.24,0,0,1,1.54-.56,6.64,6.64,0,0,1,1.29-.15,5.78,5.78,0,0,1,.71.05,5.42,5.42,0,0,1,1.8.71,8.81,8.81,0,0,1,1.68,1.27c.24.28.6.77,1.08,1.46s1,1.45,1.5,2.26q3.36,5.33,5.1,6.69a3.82,3.82,0,0,0,1.2.9,2.46,2.46,0,0,0,.54.09.83.83,0,0,0,.54-.19,17.38,17.38,0,0,0,3.21-3.62,32.77,32.77,0,0,0,3.09-5.23q.84-1.65,1.71-1.86A5.75,5.75,0,0,1,295,211a2.13,2.13,0,0,1,1.56.66,2,2,0,0,1,.6,1.51,3.8,3.8,0,0,1-.18,1.08,30.46,30.46,0,0,1-4.74,8q-3.3,4.38-7.14,4.38a7,7,0,0,1-1.44-.14,8.48,8.48,0,0,1-4.26-2.26,16,16,0,0,1-2.55-2.64,46.86,46.86,0,0,1-3-4.52c-.68-1.07-1.25-2-1.7-2.68a8.74,8.74,0,0,0-.75-1.09c-.12,0-.49.49-1.09,1.46s-1.28,2.18-2,3.61-1.48,2.86-2.16,4.31c-2.05,4.42-3.78,7.33-5.22,8.71a5.73,5.73,0,0,1-3.78,1.46A5.48,5.48,0,0,1,255.66,232.68Z"/></g></g></svg>