<svg xmlns="http://www.w3.org/2000/svg" viewBox="0 0 355.34 359.39"><defs><style>.cls-1{fill:#db9d9b;}.cls-2{fill:#823c68;}.cls-3{fill:#c86aa0;}</style></defs><title>vikpunto</title><g id="Capa_2" data-name="Capa 2"><g id="Capa_1-2" data-name="Capa 1"><path class="cls-1" d="M354.56,165.58a22.09,22.09,0,1,1-27.14-15.49A22.1,22.1,0,0,1,354.56,165.58Z"/><path class="cls-2" d="M82.23,355.7a5.79,5.79,0,0,1-1.93.22c-6.86-.22-10.94-2.79-12.22-8.15-1.08-4.72,1.93-9.86,7.5-12.22,5.15-1.93,10.51-2.58,15.87-3.22a442,442,0,0,1,89.19-2.14c13.51,1.07,27,2.35,40.32,5.14,2.57.65,5.36,1.29,7.71,2.15,5.15,2.35,8.36,6.86,7.72,11.36-.64,5.15-3.86,8.15-8.57,9.43a30.28,30.28,0,0,1-12.44.86c-19.3-1.5-38.81-2.78-58.32-3.21C132.4,355.49,106.89,354.41,82.23,355.7Z"/><path class="cls-3" d="M73.4,237.16a631.21,631.21,0,0,0,21.91-122c2.62-31.07,4.91-62.15,9.16-92.89a92,92,0,0,1,2.62-13.74c2-5.89,6.54-8.83,12.1-8.51,4.91.66,10.14,4.91,11.12,10.47a68,68,0,0,1,1,14.07c-.33,42.85-4.25,85-10.14,127.23-5.23,38.6-11.77,77.2-22.89,114.81a88.45,88.45,0,0,1-8.84,21.59l-3.59,5.89c-13.42,17.33-33.7,15.37-44.82-4.91-9.48-17.33-14.71-36.31-19.29-55.61C7,173.38,2.42,112.87.13,51.71a178.72,178.72,0,0,1,.65-22.9c.33-8.18,4.58-13.09,11.12-14.39,5.89-1.31,12.43,2.29,16.69,9.16,2.94,5.23,4.25,10.79,5.56,16.35C38.07,61.85,41,83.76,43.63,106c4.91,41.87,9.49,84.06,18,125.6,1,6.22.65,12.76,4.91,19.63C71.11,247,72.09,241.74,73.4,237.16Z"/><path class="cls-3" d="M183.94,208.05c0,7.53-.33,14.72-.66,22.24,0,8.51-6.21,15.38-14.72,15.38-3.92,0-7.85-2-11.12-4.58a23.85,23.85,0,0,1-7.2-13.09c-5.56-30.09-9.48-60.18-2-90.27,1.31-5.89,2.95-11.78,6.22-17,3.92-5.89,8.83-10.14,16.35-9.16,7.85,1,12.1,6.54,14.39,13.74,2.62,9.48,1.64,19.3,1.64,28.78C187.21,172.4,184.59,190.06,183.94,208.05Z"/><path class="cls-3" d="M204.53,69.69A107.74,107.74,0,0,1,206.17,52c1.31-7.85,5.89-12.1,12.43-12.75,6.54-.33,12.1,4.25,14.39,11.77,1.64,4.91,1.64,10.47,2,15.7,0,22.9,0,45.47.33,68.36,0,3.27-2,8.51,2.29,9.81,3.93,1.64,5.56-3.27,8.18-5.88l19.3-19c5.23-4.9,11.44-5.88,16.68-3.27,8.17,4.26,10.46,13.09,4.25,20.28-12.43,14.39-21.91,31.08-34,45.8-5.56,6.87-5.56,7.84,2.95,11.12a163,163,0,0,0,18,5.88A114.45,114.45,0,0,1,299.39,212a43.55,43.55,0,0,1,6.21,5.23c5.56,5.56,6.87,11.12,4.26,17-2.95,6.54-8.51,9.16-15.38,9.16a79.59,79.59,0,0,1-30.09-7.2c-7.19-3.27-14.06-6.54-21.26-9.16-5.23-2.29-6.54-1.63-6.87,4.26-.65,14.06-.65,28.12-1,42.19-.33,5.56,0,11.45-.33,17-.32,6.87-3.59,11.45-9.48,12.76s-11.78-1.64-15.05-7.53c-2.62-4.91-3.27-10.79-3.92-16.35-3.27-27.8-5.24-55.28-4.91-83.08C202.24,154.08,202.9,111.89,204.53,69.69Z"/></g></g></svg>