<svg xmlns="http://www.w3.org/2000/svg" viewBox="0 0 133.46 50"><defs><style>.cls-1{fill:#823c68;}</style></defs><title>work</title><g id="Capa_2" data-name="Capa 2"><g id="Capa_1-2" data-name="Capa 1"><path class="cls-1" d="M33.75,49.33Q30,48.22,26.58,43.1a51.42,51.42,0,0,1-5.89-13.49c-.19-.64-.35-1.19-.47-1.65A5.9,5.9,0,0,1,20,27.2c0-.12,0-.18-.05-.18s-.56.87-1.22,2.63Q16,36.79,14,40.79a19.79,19.79,0,0,1-3.75,5.55,5.44,5.44,0,0,1-3.7,1.55H6.32a4.3,4.3,0,0,1-3.07-1.15A9.49,9.49,0,0,1,.19,39.8C.06,36.9,0,35.06,0,34.27A79.15,79.15,0,0,1,1.93,18.21a76.9,76.9,0,0,1,3.23-11C6.4,4,7.52,1.92,8.53,1A3.37,3.37,0,0,1,10.65.26a3.55,3.55,0,0,1,1,.15,2.1,2.1,0,0,1,1.13.83,1.9,1.9,0,0,1,.33,1,2.12,2.12,0,0,1,0,.44q-.29.78-.48,1.41c-.12.42-.22.73-.28.93a.66.66,0,0,1-.14.31,2.68,2.68,0,0,1-.28.35A17.83,17.83,0,0,0,10,10.29c-.8,2.56-1.54,5.38-2.23,8.44q-1.1,5-1.51,8.44a59.08,59.08,0,0,0-.43,7.18v.74c0,1.38,0,2.43,0,3.14s0,1.28.09,1.7.12.84.21,1.26.24.84.33,1.19l.19.66c0,.1.07.16.1.17l.09,0A.29.29,0,0,0,7,43.15a4.35,4.35,0,0,1,.38-.48,26.87,26.87,0,0,0,3.32-5.55q1.86-3.85,5.4-12.47c.56-1.38,1-2.43,1.34-3.13a6.47,6.47,0,0,1,.9-1.5,2.3,2.3,0,0,1,.92-.63,3.15,3.15,0,0,1,1.13-.18h.18a2.93,2.93,0,0,1,1.28.26,3.91,3.91,0,0,1,1.69,2c.07.18.21.63.43,1.37l.75,2.52q3.92,13.44,8,18a10.6,10.6,0,0,0,1.6,1.55,2.6,2.6,0,0,0,1.22.67c.44,0,.92-.43,1.44-1.28a11.57,11.57,0,0,0,1.25-3.16,19.47,19.47,0,0,0,.61-3c.13-1,.24-2.55.33-4.57.06-1.31.1-2.68.1-4.11q0-5-.48-10.88A92.29,92.29,0,0,0,37,5.22a13.5,13.5,0,0,0-.59-1.76,3.89,3.89,0,0,0-.73-1,1.56,1.56,0,0,1-.43-1,1.13,1.13,0,0,1,.33-.77A1.85,1.85,0,0,1,37.14,0a3.28,3.28,0,0,1,.52,0,3,3,0,0,1,1.2.66,5.09,5.09,0,0,1,1.06,1.15q2,3.25,3.44,19.1c.09,1.4.16,3.15.21,5.23s.07,3.93.07,5.54v2.37A48.22,48.22,0,0,1,43.41,39q-1.09,8.45-5.56,10.14a5.44,5.44,0,0,1-1.59.37c-.45,0-.76,0-.91,0A6.32,6.32,0,0,1,33.75,49.33Z"/><path class="cls-1" d="M49.25,39.3A8.72,8.72,0,0,1,48,35.22c0-1.32-.07-2.18-.07-2.58a26.91,26.91,0,0,1,.57-5.51,17.27,17.27,0,0,1,1.79-5.26,3.23,3.23,0,0,1,2.69-1.66,3.53,3.53,0,0,1,.7.07,1.6,1.6,0,0,0,.47.08h.15a3.79,3.79,0,0,0,.7-.26,5.11,5.11,0,0,1,1.93-.41,4.62,4.62,0,0,1,1.42.22A4.78,4.78,0,0,1,61,22a10.09,10.09,0,0,1,1.36,4.74c.06.49.12.92.17,1.28s.07.55.07.57a10,10,0,0,0,3.13-1A9.2,9.2,0,0,0,68,26.05a1.32,1.32,0,0,1,.7-.44,3.16,3.16,0,0,1,.57-.07,2.07,2.07,0,0,1,.71.11,1.27,1.27,0,0,1,1,1.22,1,1,0,0,1,0,.3,3.82,3.82,0,0,1-1.65,2.14,11.72,11.72,0,0,1-3,1.41c-1.18.37-2.33.7-3.46,1l-.66.15-.38,1.4a16.17,16.17,0,0,1-3.25,6.11Q56.41,41.6,55,41.69l-1.58.09A4.92,4.92,0,0,1,49.25,39.3Zm6.5-3.18a14.23,14.23,0,0,0,.78-1.2,16.43,16.43,0,0,0,.78-1.48,3.24,3.24,0,0,0,.33-.91s-.1-.05-.31-.09l-.77-.13a11.65,11.65,0,0,1-2.17-.59l-1.09-.41-.09.63a12.75,12.75,0,0,0-.1,1.55,16.25,16.25,0,0,0,.19,2.34c.19,1.23.36,1.86.5,1.9l.26.06C54.37,37.79,54.94,37.23,55.75,36.12Zm2.64-7.36a2.14,2.14,0,0,0,0-.48,6.73,6.73,0,0,0,0-.74,13.3,13.3,0,0,0-.21-1.78,10.28,10.28,0,0,0-.35-1.41,6.13,6.13,0,0,0-.33-.68c-.13-.21-.22-.37-.29-.46L56.88,23l-.51.48a4.35,4.35,0,0,0-1.28,2.85v.33a2.33,2.33,0,0,0,2.6,2.59h.23c.16,0,.25,0,.28,0A.58.58,0,0,0,58.39,28.76Z"/><path class="cls-1" d="M69.8,42.38q-1.93-.3-2.64-2.82a17.1,17.1,0,0,1-.71-3.4c-.12-1.19-.19-2.79-.19-4.81V30.2c0-1.48,0-2.82.14-4,.1-1.51.29-3.11.57-4.81a11.36,11.36,0,0,1,.75-3.06,2.37,2.37,0,0,1,1.37-1.16,3.93,3.93,0,0,1,1.27-.23,3.19,3.19,0,0,1,2.08.78,3.38,3.38,0,0,1,.4.46,1.4,1.4,0,0,1,.21.43,1,1,0,0,1,0,.37,6.45,6.45,0,0,1,0,.66c-.06.52-.14,1.13-.24,1.82-.15,1.33-.32,2.81-.49,4.42S72,28.78,72,29.77s-.1,1.65-.1,1.95V32s.11-.14.24-.42.28-.65.47-1.09q.7-1.86,1.77-4c.7-1.44,1.32-2.62,1.86-3.53a12.34,12.34,0,0,1,2.73-3.46,4.26,4.26,0,0,1,2.64-.95,2.12,2.12,0,0,1,.42,0,3.46,3.46,0,0,1,1.68.5,9.52,9.52,0,0,1,1.91,1.72c.37.39.76.77,1.15,1.13s.7.62.92.79a4,4,0,0,0,.5.36.54.54,0,0,0,.25.09h.1a1.43,1.43,0,0,0,.38-.08,2.61,2.61,0,0,1,1-.22,2,2,0,0,1,1.23.45,2.08,2.08,0,0,1,.45.44,1.12,1.12,0,0,1,.11.59,1,1,0,0,1-.14.59,2.41,2.41,0,0,1-.56.56,3.72,3.72,0,0,1-1.18.76,4.22,4.22,0,0,1-1.37.2c-1.54,0-3.36-1-5.46-3-.32-.29-.59-.55-.83-.78a4.43,4.43,0,0,1-.4-.4h0c-.12,0-.33.18-.61.55a21.75,21.75,0,0,0-1.13,1.89,75.24,75.24,0,0,0-4.29,10.29c-.63,1.75-1.14,3.1-1.53,4a12,12,0,0,1-1,2.06,2.41,2.41,0,0,1-1,.87,3.46,3.46,0,0,1-1.65.44A3,3,0,0,1,69.8,42.38Z"/><path class="cls-1" d="M99.06,49.85a3.47,3.47,0,0,1-1.46-1.26q-2.2-3.89-3.91-17.28A51.1,51.1,0,0,1,93.36,26c0-1.94,0-3.33,0-4.17,0-1.7,0-3.16.15-4.36,0-.74.05-1.31.07-1.71s0-.67,0-.83a.36.36,0,0,0-.17-.31,1.57,1.57,0,0,1-.28-1.08,18.17,18.17,0,0,1,.75-4.18c.22-.76.43-1.45.62-2.05a4.37,4.37,0,0,1,.42-1.1,2.49,2.49,0,0,1,2-1H97a3,3,0,0,1,2.26,1,2.18,2.18,0,0,1,.28.42,1.48,1.48,0,0,1,.12.52c0,.21,0,.43,0,.65s0,.49,0,.81c0,.57,0,1.38-.07,2.43s-.12,2.09-.22,3.12Q98.84,22,98.83,26.5v2.59l.89-1a72.84,72.84,0,0,1,5.19-5.33c2.7-2.46,4.87-3.7,6.5-3.7h.28c1.29.15,2,.48,2.24,1a3.37,3.37,0,0,1,.31,1.06,2.13,2.13,0,0,1-1,1.63,2.7,2.7,0,0,1-.61.31,2.36,2.36,0,0,1-.71.09,2,2,0,0,0-.54.06,1.8,1.8,0,0,0-.52.28l-.92.7a50,50,0,0,0-4.38,4.18l-1.63,1.8c-.58.65-1.07,1.22-1.48,1.7a4.18,4.18,0,0,0-.61.8l.8-.17,1.88-.43c.79-.19,1.66-.4,2.62-.61s1.8-.39,2.52-.53A33.62,33.62,0,0,1,116,30h.47a3.15,3.15,0,0,1,2.83,1.44,1.24,1.24,0,0,1,.28.58v.2a1,1,0,0,1-.23.59,1.82,1.82,0,0,1-1.46.78,2.91,2.91,0,0,1-1.27-.34L116,32.9l-1.32.19q-3.3.51-9.7,2.22c-1.07.29-2,.55-2.93.76a16.82,16.82,0,0,1-1.74.35,5.29,5.29,0,0,0-.54.07.54.54,0,0,0-.24.11.36.36,0,0,0-.07.22,15.18,15.18,0,0,0,.24,2c.15,1,.33,2,.54,3.12s.4,2,.59,2.82c.09.42.17.73.23.94a1.68,1.68,0,0,0,.21.46.93.93,0,0,0,.36.26,2.14,2.14,0,0,1,.42.26,1.35,1.35,0,0,1,.29.3,1.55,1.55,0,0,1,.23.81,1.79,1.79,0,0,1-.14.67,2.43,2.43,0,0,1-1.13,1.29,2.94,2.94,0,0,1-.92.26,5.52,5.52,0,0,1-.59,0A1.52,1.52,0,0,1,99.06,49.85Z"/><path class="cls-1" d="M126.3,25.62a2.2,2.2,0,0,1,1-2,3.58,3.58,0,0,1,1.74-.69l.78,0a4.52,4.52,0,0,1,2.31.6,2.55,2.55,0,0,1,1.32,1.88v.26A2.68,2.68,0,0,1,132,28a4,4,0,0,1-1.89.48,5.93,5.93,0,0,1-.61,0,4.56,4.56,0,0,1-2.26-.95A2.26,2.26,0,0,1,126.3,25.62Z"/></g></g></svg>